<svg width="512" height="302" viewBox="0 0 512 302" fill="none" xmlns="http://www.w3.org/2000/svg">
<path d="M268 148H500C506.351 148 511.5 153.149 511.5 159.5V167.5C511.5 173.851 506.351 179 500 179H268C261.649 179 256.5 173.851 256.5 167.5V159.5C256.5 153.149 261.649 148 268 148Z" fill="url(#paint0_linear_2134_15158)"/>
<path d="M268 148H500C506.351 148 511.5 153.149 511.5 159.5V167.5C511.5 173.851 506.351 179 500 179H268C261.649 179 256.5 173.851 256.5 167.5V159.5C256.5 153.149 261.649 148 268 148Z" stroke="url(#paint1_linear_2134_15158)"/>
<path d="M268.959 167.5V158.773H270.276V166.366H274.23V167.5H268.959ZM278.451 167.632C277.806 167.632 277.251 167.494 276.785 167.219C276.322 166.94 275.964 166.55 275.711 166.047C275.461 165.541 275.336 164.949 275.336 164.27C275.336 163.599 275.461 163.009 275.711 162.497C275.964 161.986 276.316 161.587 276.768 161.3C277.222 161.013 277.754 160.869 278.362 160.869C278.731 160.869 279.089 160.93 279.435 161.053C279.782 161.175 280.093 161.366 280.369 161.628C280.644 161.889 280.862 162.229 281.021 162.646C281.18 163.061 281.259 163.565 281.259 164.159V164.611H276.056V163.656H280.011C280.011 163.321 279.942 163.024 279.806 162.766C279.67 162.504 279.478 162.298 279.231 162.148C278.987 161.997 278.7 161.922 278.37 161.922C278.012 161.922 277.7 162.01 277.433 162.186C277.168 162.359 276.964 162.587 276.819 162.868C276.677 163.146 276.606 163.449 276.606 163.776V164.521C276.606 164.959 276.683 165.331 276.836 165.638C276.992 165.945 277.21 166.179 277.488 166.341C277.766 166.5 278.092 166.58 278.464 166.58C278.705 166.58 278.925 166.545 279.124 166.477C279.323 166.406 279.495 166.301 279.64 166.162C279.785 166.023 279.896 165.851 279.972 165.646L281.178 165.864C281.082 166.219 280.908 166.53 280.658 166.797C280.411 167.061 280.1 167.267 279.725 167.415C279.353 167.56 278.928 167.632 278.451 167.632ZM285.728 160.955V161.977H282.153V160.955H285.728ZM283.112 159.386H284.386V165.578C284.386 165.825 284.423 166.011 284.497 166.136C284.571 166.259 284.666 166.342 284.782 166.388C284.902 166.43 285.031 166.452 285.17 166.452C285.272 166.452 285.362 166.445 285.439 166.43C285.515 166.416 285.575 166.405 285.618 166.396L285.848 167.449C285.774 167.477 285.669 167.506 285.532 167.534C285.396 167.565 285.225 167.582 285.021 167.585C284.686 167.591 284.373 167.531 284.083 167.406C283.794 167.281 283.559 167.088 283.38 166.827C283.201 166.565 283.112 166.237 283.112 165.842V159.386ZM290.314 167.5V160.955H291.537V162.02H291.618C291.754 161.659 291.977 161.378 292.287 161.176C292.596 160.972 292.967 160.869 293.399 160.869C293.836 160.869 294.203 160.972 294.498 161.176C294.797 161.381 295.017 161.662 295.159 162.02H295.227C295.383 161.67 295.632 161.392 295.973 161.185C296.314 160.974 296.72 160.869 297.191 160.869C297.785 160.869 298.27 161.055 298.645 161.428C299.022 161.8 299.211 162.361 299.211 163.111V167.5H297.937V163.23C297.937 162.787 297.816 162.466 297.575 162.267C297.333 162.068 297.045 161.969 296.71 161.969C296.295 161.969 295.973 162.097 295.743 162.352C295.512 162.605 295.397 162.93 295.397 163.328V167.5H294.127V163.149C294.127 162.794 294.017 162.509 293.795 162.293C293.574 162.077 293.285 161.969 292.93 161.969C292.689 161.969 292.466 162.033 292.261 162.161C292.059 162.286 291.896 162.46 291.771 162.685C291.649 162.909 291.588 163.169 291.588 163.464V167.5H290.314ZM303.74 167.632C303.095 167.632 302.54 167.494 302.074 167.219C301.611 166.94 301.253 166.55 301 166.047C300.75 165.541 300.625 164.949 300.625 164.27C300.625 163.599 300.75 163.009 301 162.497C301.253 161.986 301.605 161.587 302.057 161.3C302.511 161.013 303.043 160.869 303.651 160.869C304.02 160.869 304.378 160.93 304.724 161.053C305.071 161.175 305.382 161.366 305.658 161.628C305.933 161.889 306.151 162.229 306.31 162.646C306.469 163.061 306.548 163.565 306.548 164.159V164.611H301.345V163.656H305.3C305.3 163.321 305.232 163.024 305.095 162.766C304.959 162.504 304.767 162.298 304.52 162.148C304.276 161.997 303.989 161.922 303.659 161.922C303.301 161.922 302.989 162.01 302.722 162.186C302.457 162.359 302.253 162.587 302.108 162.868C301.966 163.146 301.895 163.449 301.895 163.776V164.521C301.895 164.959 301.972 165.331 302.125 165.638C302.281 165.945 302.499 166.179 302.777 166.341C303.055 166.5 303.381 166.58 303.753 166.58C303.994 166.58 304.214 166.545 304.413 166.477C304.612 166.406 304.784 166.301 304.929 166.162C305.074 166.023 305.185 165.851 305.261 165.646L306.467 165.864C306.371 166.219 306.197 166.53 305.947 166.797C305.7 167.061 305.389 167.267 305.014 167.415C304.642 167.56 304.217 167.632 303.74 167.632ZM315.557 169.955V166.482H315.48C315.403 166.621 315.293 166.78 315.148 166.959C315.006 167.138 314.81 167.294 314.56 167.428C314.31 167.561 313.986 167.628 313.588 167.628C313.06 167.628 312.588 167.493 312.173 167.223C311.761 166.95 311.438 166.562 311.202 166.06C310.969 165.554 310.852 164.947 310.852 164.24C310.852 163.533 310.97 162.928 311.206 162.425C311.445 161.922 311.771 161.537 312.186 161.27C312.601 161.003 313.071 160.869 313.597 160.869C314.003 160.869 314.33 160.938 314.577 161.074C314.827 161.207 315.02 161.364 315.156 161.543C315.295 161.722 315.403 161.879 315.48 162.016H315.587V160.955H316.831V169.955H315.557ZM313.869 166.541C314.236 166.541 314.545 166.445 314.798 166.251C315.054 166.055 315.247 165.784 315.378 165.438C315.511 165.091 315.578 164.687 315.578 164.227C315.578 163.773 315.513 163.375 315.382 163.034C315.251 162.693 315.06 162.428 314.807 162.237C314.554 162.047 314.241 161.952 313.869 161.952C313.486 161.952 313.166 162.051 312.911 162.25C312.655 162.449 312.462 162.72 312.331 163.064C312.203 163.408 312.139 163.795 312.139 164.227C312.139 164.665 312.205 165.058 312.335 165.408C312.466 165.757 312.659 166.034 312.915 166.239C313.173 166.44 313.491 166.541 313.869 166.541ZM322.69 164.786V160.955H323.969V167.5H322.716V166.366H322.648C322.497 166.716 322.256 167.007 321.923 167.24C321.594 167.47 321.183 167.585 320.692 167.585C320.271 167.585 319.899 167.493 319.575 167.308C319.254 167.121 319.001 166.844 318.817 166.477C318.635 166.111 318.544 165.658 318.544 165.118V160.955H319.818V164.964C319.818 165.411 319.942 165.766 320.189 166.03C320.436 166.294 320.757 166.426 321.152 166.426C321.391 166.426 321.628 166.366 321.864 166.247C322.102 166.128 322.3 165.947 322.456 165.706C322.615 165.464 322.693 165.158 322.69 164.786ZM325.681 167.5V160.955H326.955V167.5H325.681ZM326.324 159.945C326.103 159.945 325.912 159.871 325.753 159.723C325.597 159.572 325.519 159.393 325.519 159.186C325.519 158.976 325.597 158.797 325.753 158.649C325.912 158.499 326.103 158.423 326.324 158.423C326.546 158.423 326.735 158.499 326.891 158.649C327.05 158.797 327.13 158.976 327.13 159.186C327.13 159.393 327.05 159.572 326.891 159.723C326.735 159.871 326.546 159.945 326.324 159.945ZM331.426 167.632C330.793 167.632 330.247 167.489 329.79 167.202C329.335 166.912 328.986 166.513 328.741 166.004C328.497 165.496 328.375 164.913 328.375 164.257C328.375 163.592 328.5 163.006 328.75 162.497C329 161.986 329.352 161.587 329.807 161.3C330.261 161.013 330.797 160.869 331.413 160.869C331.911 160.869 332.354 160.962 332.743 161.146C333.132 161.328 333.446 161.584 333.685 161.913C333.926 162.243 334.07 162.628 334.115 163.068H332.875C332.807 162.761 332.651 162.497 332.406 162.276C332.165 162.054 331.841 161.943 331.435 161.943C331.08 161.943 330.768 162.037 330.501 162.224C330.237 162.409 330.031 162.673 329.884 163.017C329.736 163.358 329.662 163.761 329.662 164.227C329.662 164.705 329.734 165.116 329.879 165.463C330.024 165.81 330.229 166.078 330.493 166.268C330.76 166.459 331.074 166.554 331.435 166.554C331.676 166.554 331.895 166.51 332.091 166.422C332.29 166.331 332.456 166.202 332.589 166.034C332.726 165.866 332.821 165.665 332.875 165.429H334.115C334.07 165.852 333.932 166.23 333.702 166.562C333.472 166.895 333.163 167.156 332.777 167.347C332.393 167.537 331.943 167.632 331.426 167.632ZM336.65 165.28L336.641 163.724H336.863L339.471 160.955H340.996L338.022 164.108H337.821L336.65 165.28ZM335.478 167.5V158.773H336.752V167.5H335.478ZM339.611 167.5L337.267 164.389L338.145 163.499L341.175 167.5H339.611ZM343.431 158.773V167.5H342.157V158.773H343.431ZM345.951 169.955C345.761 169.955 345.587 169.939 345.431 169.908C345.275 169.879 345.158 169.848 345.082 169.814L345.388 168.77C345.621 168.832 345.829 168.859 346.011 168.851C346.192 168.842 346.353 168.774 346.492 168.646C346.634 168.518 346.759 168.31 346.867 168.02L347.025 167.585L344.63 160.955H345.994L347.651 166.034H347.719L349.377 160.955H350.745L348.048 168.374C347.923 168.714 347.763 169.003 347.57 169.239C347.377 169.477 347.147 169.656 346.88 169.776C346.613 169.895 346.303 169.955 345.951 169.955ZM355.118 160.955H356.392V167.926C356.392 168.364 356.313 168.733 356.154 169.034C355.998 169.335 355.765 169.564 355.455 169.72C355.148 169.876 354.769 169.955 354.317 169.955C354.272 169.955 354.229 169.955 354.189 169.955C354.147 169.955 354.103 169.953 354.057 169.95V168.855C354.097 168.855 354.132 168.855 354.164 168.855C354.192 168.855 354.225 168.855 354.262 168.855C354.563 168.855 354.78 168.774 354.914 168.612C355.05 168.453 355.118 168.222 355.118 167.918V160.955ZM355.749 159.945C355.527 159.945 355.337 159.871 355.178 159.723C355.022 159.572 354.944 159.393 354.944 159.186C354.944 158.976 355.022 158.797 355.178 158.649C355.337 158.499 355.527 158.423 355.749 158.423C355.971 158.423 356.159 158.499 356.316 158.649C356.475 158.797 356.554 158.976 356.554 159.186C356.554 159.393 356.475 159.572 356.316 159.723C356.159 159.871 355.971 159.945 355.749 159.945ZM362.253 164.786V160.955H363.531V167.5H362.278V166.366H362.21C362.06 166.716 361.818 167.007 361.486 167.24C361.156 167.47 360.746 167.585 360.254 167.585C359.834 167.585 359.462 167.493 359.138 167.308C358.817 167.121 358.564 166.844 358.379 166.477C358.197 166.111 358.107 165.658 358.107 165.118V160.955H359.381V164.964C359.381 165.411 359.504 165.766 359.751 166.03C359.999 166.294 360.32 166.426 360.714 166.426C360.953 166.426 361.19 166.366 361.426 166.247C361.665 166.128 361.862 165.947 362.018 165.706C362.178 165.464 362.256 165.158 362.253 164.786ZM365.243 167.5V160.955H366.466V162.02H366.547C366.684 161.659 366.907 161.378 367.216 161.176C367.526 160.972 367.897 160.869 368.328 160.869C368.766 160.869 369.132 160.972 369.428 161.176C369.726 161.381 369.946 161.662 370.088 162.02H370.157C370.313 161.67 370.561 161.392 370.902 161.185C371.243 160.974 371.65 160.869 372.121 160.869C372.715 160.869 373.199 161.055 373.574 161.428C373.952 161.8 374.141 162.361 374.141 163.111V167.5H372.867V163.23C372.867 162.787 372.746 162.466 372.505 162.267C372.263 162.068 371.975 161.969 371.64 161.969C371.225 161.969 370.902 162.097 370.672 162.352C370.442 162.605 370.327 162.93 370.327 163.328V167.5H369.057V163.149C369.057 162.794 368.946 162.509 368.725 162.293C368.503 162.077 368.215 161.969 367.86 161.969C367.618 161.969 367.395 162.033 367.191 162.161C366.989 162.286 366.826 162.46 366.701 162.685C366.578 162.909 366.517 163.169 366.517 163.464V167.5H365.243ZM375.849 169.955V160.955H377.093V162.016H377.2C377.273 161.879 377.38 161.722 377.519 161.543C377.658 161.364 377.852 161.207 378.099 161.074C378.346 160.938 378.673 160.869 379.079 160.869C379.607 160.869 380.079 161.003 380.494 161.27C380.908 161.537 381.234 161.922 381.469 162.425C381.708 162.928 381.827 163.533 381.827 164.24C381.827 164.947 381.71 165.554 381.474 166.06C381.238 166.562 380.914 166.95 380.502 167.223C380.09 167.493 379.62 167.628 379.092 167.628C378.694 167.628 378.369 167.561 378.116 167.428C377.866 167.294 377.67 167.138 377.528 166.959C377.386 166.78 377.276 166.621 377.2 166.482H377.123V169.955H375.849ZM377.097 164.227C377.097 164.687 377.164 165.091 377.298 165.438C377.431 165.784 377.624 166.055 377.877 166.251C378.13 166.445 378.44 166.541 378.806 166.541C379.187 166.541 379.505 166.44 379.761 166.239C380.016 166.034 380.21 165.757 380.34 165.408C380.474 165.058 380.54 164.665 380.54 164.227C380.54 163.795 380.475 163.408 380.344 163.064C380.217 162.72 380.023 162.449 379.765 162.25C379.509 162.051 379.19 161.952 378.806 161.952C378.437 161.952 378.124 162.047 377.869 162.237C377.616 162.428 377.424 162.693 377.293 163.034C377.163 163.375 377.097 163.773 377.097 164.227ZM386.431 167.5V160.955H387.705V167.5H386.431ZM387.074 159.945C386.853 159.945 386.662 159.871 386.503 159.723C386.347 159.572 386.269 159.393 386.269 159.186C386.269 158.976 386.347 158.797 386.503 158.649C386.662 158.499 386.853 158.423 387.074 158.423C387.296 158.423 387.485 158.499 387.641 158.649C387.8 158.797 387.88 158.976 387.88 159.186C387.88 159.393 387.8 159.572 387.641 159.723C387.485 159.871 387.296 159.945 387.074 159.945ZM390.693 163.614V167.5H389.419V160.955H390.642V162.02H390.723C390.874 161.673 391.109 161.395 391.43 161.185C391.754 160.974 392.162 160.869 392.653 160.869C393.099 160.869 393.49 160.963 393.825 161.151C394.161 161.335 394.42 161.611 394.605 161.977C394.79 162.344 394.882 162.797 394.882 163.337V167.5H393.608V163.49C393.608 163.016 393.484 162.645 393.237 162.378C392.99 162.108 392.651 161.973 392.219 161.973C391.923 161.973 391.661 162.037 391.43 162.165C391.203 162.293 391.023 162.48 390.889 162.727C390.759 162.972 390.693 163.267 390.693 163.614ZM399.646 160.955V161.977H396.071V160.955H399.646ZM397.03 159.386H398.304V165.578C398.304 165.825 398.341 166.011 398.415 166.136C398.489 166.259 398.584 166.342 398.7 166.388C398.82 166.43 398.949 166.452 399.088 166.452C399.19 166.452 399.28 166.445 399.357 166.43C399.433 166.416 399.493 166.405 399.536 166.396L399.766 167.449C399.692 167.477 399.587 167.506 399.45 167.534C399.314 167.565 399.143 167.582 398.939 167.585C398.604 167.591 398.291 167.531 398.001 167.406C397.712 167.281 397.477 167.088 397.298 166.827C397.119 166.565 397.03 166.237 397.03 165.842V159.386ZM403.743 167.632C403.129 167.632 402.593 167.491 402.136 167.21C401.679 166.929 401.324 166.536 401.071 166.03C400.818 165.524 400.691 164.933 400.691 164.257C400.691 163.578 400.818 162.984 401.071 162.476C401.324 161.967 401.679 161.572 402.136 161.291C402.593 161.01 403.129 160.869 403.743 160.869C404.356 160.869 404.892 161.01 405.349 161.291C405.806 161.572 406.162 161.967 406.414 162.476C406.667 162.984 406.794 163.578 406.794 164.257C406.794 164.933 406.667 165.524 406.414 166.03C406.162 166.536 405.806 166.929 405.349 167.21C404.892 167.491 404.356 167.632 403.743 167.632ZM403.747 166.562C404.145 166.562 404.474 166.457 404.735 166.247C404.997 166.037 405.19 165.757 405.315 165.408C405.443 165.058 405.507 164.673 405.507 164.253C405.507 163.835 405.443 163.452 405.315 163.102C405.19 162.75 404.997 162.467 404.735 162.254C404.474 162.041 404.145 161.935 403.747 161.935C403.346 161.935 403.014 162.041 402.75 162.254C402.488 162.467 402.294 162.75 402.166 163.102C402.041 163.452 401.978 163.835 401.978 164.253C401.978 164.673 402.041 165.058 402.166 165.408C402.294 165.757 402.488 166.037 402.75 166.247C403.014 166.457 403.346 166.562 403.747 166.562ZM416.254 161.065C416.208 160.662 416.021 160.349 415.691 160.128C415.362 159.903 414.947 159.791 414.447 159.791C414.089 159.791 413.779 159.848 413.518 159.962C413.257 160.072 413.054 160.226 412.909 160.422C412.767 160.615 412.696 160.835 412.696 161.082C412.696 161.29 412.744 161.469 412.841 161.619C412.94 161.77 413.069 161.896 413.228 161.999C413.39 162.098 413.564 162.182 413.748 162.25C413.933 162.315 414.11 162.369 414.281 162.412L415.133 162.634C415.412 162.702 415.697 162.794 415.99 162.911C416.282 163.027 416.554 163.18 416.804 163.371C417.054 163.561 417.255 163.797 417.409 164.078C417.565 164.359 417.643 164.696 417.643 165.088C417.643 165.582 417.515 166.021 417.26 166.405C417.007 166.788 416.639 167.091 416.156 167.312C415.676 167.534 415.095 167.645 414.413 167.645C413.76 167.645 413.194 167.541 412.717 167.334C412.24 167.126 411.866 166.832 411.596 166.452C411.326 166.068 411.177 165.614 411.149 165.088H412.47C412.495 165.403 412.598 165.666 412.777 165.876C412.958 166.084 413.19 166.239 413.471 166.341C413.755 166.44 414.066 166.49 414.404 166.49C414.777 166.49 415.108 166.432 415.397 166.315C415.69 166.196 415.92 166.031 416.088 165.821C416.255 165.608 416.339 165.359 416.339 165.075C416.339 164.817 416.265 164.605 416.118 164.44C415.973 164.276 415.775 164.139 415.525 164.031C415.278 163.923 414.998 163.828 414.686 163.746L413.654 163.464C412.956 163.274 412.402 162.994 411.993 162.625C411.586 162.256 411.383 161.767 411.383 161.159C411.383 160.656 411.52 160.217 411.792 159.842C412.065 159.467 412.434 159.176 412.9 158.969C413.366 158.759 413.892 158.653 414.477 158.653C415.068 158.653 415.589 158.757 416.041 158.964C416.495 159.172 416.853 159.457 417.115 159.821C417.376 160.182 417.512 160.597 417.524 161.065H416.254ZM421.019 167.645C420.604 167.645 420.229 167.568 419.894 167.415C419.559 167.259 419.293 167.033 419.097 166.737C418.904 166.442 418.808 166.08 418.808 165.651C418.808 165.281 418.879 164.977 419.021 164.739C419.163 164.5 419.354 164.311 419.596 164.172C419.837 164.033 420.107 163.928 420.406 163.857C420.704 163.786 421.008 163.732 421.317 163.695C421.71 163.649 422.028 163.612 422.272 163.584C422.516 163.553 422.694 163.503 422.805 163.435C422.915 163.366 422.971 163.256 422.971 163.102V163.072C422.971 162.7 422.866 162.412 422.656 162.207C422.448 162.003 422.138 161.901 421.727 161.901C421.298 161.901 420.96 161.996 420.712 162.186C420.468 162.374 420.299 162.582 420.205 162.812L419.008 162.54C419.15 162.142 419.357 161.821 419.63 161.577C419.906 161.33 420.222 161.151 420.58 161.04C420.938 160.926 421.315 160.869 421.71 160.869C421.971 160.869 422.248 160.901 422.54 160.963C422.836 161.023 423.112 161.134 423.367 161.295C423.626 161.457 423.837 161.689 424.002 161.99C424.167 162.288 424.249 162.676 424.249 163.153V167.5H423.005V166.605H422.954C422.871 166.77 422.748 166.932 422.583 167.091C422.418 167.25 422.207 167.382 421.948 167.487C421.69 167.592 421.38 167.645 421.019 167.645ZM421.296 166.622C421.648 166.622 421.95 166.553 422.2 166.413C422.452 166.274 422.644 166.092 422.775 165.868C422.908 165.641 422.975 165.398 422.975 165.139V164.295C422.93 164.341 422.842 164.384 422.711 164.423C422.583 164.46 422.437 164.493 422.272 164.521C422.107 164.547 421.947 164.571 421.79 164.594C421.634 164.614 421.504 164.631 421.398 164.645C421.151 164.676 420.925 164.729 420.721 164.803C420.519 164.876 420.357 164.983 420.235 165.122C420.116 165.259 420.056 165.44 420.056 165.668C420.056 165.983 420.173 166.222 420.406 166.384C420.638 166.543 420.935 166.622 421.296 166.622ZM427.221 163.614V167.5H425.946V160.955H427.169V162.02H427.25C427.401 161.673 427.637 161.395 427.958 161.185C428.282 160.974 428.689 160.869 429.181 160.869C429.627 160.869 430.017 160.963 430.353 161.151C430.688 161.335 430.948 161.611 431.132 161.977C431.317 162.344 431.409 162.797 431.409 163.337V167.5H430.135V163.49C430.135 163.016 430.012 162.645 429.765 162.378C429.517 162.108 429.178 161.973 428.746 161.973C428.451 161.973 428.188 162.037 427.958 162.165C427.73 162.293 427.55 162.48 427.417 162.727C427.286 162.972 427.221 163.267 427.221 163.614ZM433.118 167.5V160.955H434.392V167.5H433.118ZM433.762 159.945C433.54 159.945 433.35 159.871 433.191 159.723C433.034 159.572 432.956 159.393 432.956 159.186C432.956 158.976 433.034 158.797 433.191 158.649C433.35 158.499 433.54 158.423 433.762 158.423C433.983 158.423 434.172 158.499 434.328 158.649C434.488 158.797 434.567 158.976 434.567 159.186C434.567 159.393 434.488 159.572 434.328 159.723C434.172 159.871 433.983 159.945 433.762 159.945ZM439.162 160.955V161.977H435.587V160.955H439.162ZM436.545 159.386H437.82V165.578C437.82 165.825 437.857 166.011 437.93 166.136C438.004 166.259 438.099 166.342 438.216 166.388C438.335 166.43 438.464 166.452 438.604 166.452C438.706 166.452 438.795 166.445 438.872 166.43C438.949 166.416 439.009 166.405 439.051 166.396L439.281 167.449C439.207 167.477 439.102 167.506 438.966 167.534C438.83 167.565 438.659 167.582 438.455 167.585C438.119 167.591 437.807 167.531 437.517 167.406C437.227 167.281 436.993 167.088 436.814 166.827C436.635 166.565 436.545 166.237 436.545 165.842V159.386ZM441.377 169.955C441.186 169.955 441.013 169.939 440.857 169.908C440.701 169.879 440.584 169.848 440.507 169.814L440.814 168.77C441.047 168.832 441.255 168.859 441.436 168.851C441.618 168.842 441.779 168.774 441.918 168.646C442.06 168.518 442.185 168.31 442.293 168.02L442.451 167.585L440.056 160.955H441.419L443.077 166.034H443.145L444.803 160.955H446.171L443.473 168.374C443.348 168.714 443.189 169.003 442.996 169.239C442.803 169.477 442.573 169.656 442.306 169.776C442.039 169.895 441.729 169.955 441.377 169.955ZM452.449 167.645C452.034 167.645 451.659 167.568 451.324 167.415C450.989 167.259 450.723 167.033 450.527 166.737C450.334 166.442 450.237 166.08 450.237 165.651C450.237 165.281 450.308 164.977 450.45 164.739C450.592 164.5 450.784 164.311 451.026 164.172C451.267 164.033 451.537 163.928 451.835 163.857C452.134 163.786 452.438 163.732 452.747 163.695C453.139 163.649 453.457 163.612 453.702 163.584C453.946 163.553 454.124 163.503 454.234 163.435C454.345 163.366 454.401 163.256 454.401 163.102V163.072C454.401 162.7 454.295 162.412 454.085 162.207C453.878 162.003 453.568 161.901 453.156 161.901C452.727 161.901 452.389 161.996 452.142 162.186C451.898 162.374 451.729 162.582 451.635 162.812L450.438 162.54C450.58 162.142 450.787 161.821 451.06 161.577C451.335 161.33 451.652 161.151 452.01 161.04C452.368 160.926 452.744 160.869 453.139 160.869C453.401 160.869 453.678 160.901 453.97 160.963C454.266 161.023 454.541 161.134 454.797 161.295C455.055 161.457 455.267 161.689 455.432 161.99C455.597 162.288 455.679 162.676 455.679 163.153V167.5H454.435V166.605H454.384C454.301 166.77 454.178 166.932 454.013 167.091C453.848 167.25 453.636 167.382 453.378 167.487C453.119 167.592 452.81 167.645 452.449 167.645ZM452.726 166.622C453.078 166.622 453.379 166.553 453.629 166.413C453.882 166.274 454.074 166.092 454.205 165.868C454.338 165.641 454.405 165.398 454.405 165.139V164.295C454.359 164.341 454.271 164.384 454.141 164.423C454.013 164.46 453.866 164.493 453.702 164.521C453.537 164.547 453.376 164.571 453.22 164.594C453.064 164.614 452.933 164.631 452.828 164.645C452.581 164.676 452.355 164.729 452.151 164.803C451.949 164.876 451.787 164.983 451.665 165.122C451.545 165.259 451.486 165.44 451.486 165.668C451.486 165.983 451.602 166.222 451.835 166.384C452.068 166.543 452.365 166.622 452.726 166.622ZM458.65 163.614V167.5H457.376V160.955H458.599V162.02H458.68C458.831 161.673 459.066 161.395 459.387 161.185C459.711 160.974 460.119 160.869 460.61 160.869C461.056 160.869 461.447 160.963 461.782 161.151C462.118 161.335 462.377 161.611 462.562 161.977C462.747 162.344 462.839 162.797 462.839 163.337V167.5H461.565V163.49C461.565 163.016 461.441 162.645 461.194 162.378C460.947 162.108 460.608 161.973 460.176 161.973C459.88 161.973 459.618 162.037 459.387 162.165C459.16 162.293 458.98 162.48 458.846 162.727C458.716 162.972 458.65 163.267 458.65 163.614ZM466.998 167.628C466.47 167.628 465.998 167.493 465.583 167.223C465.172 166.95 464.848 166.562 464.612 166.06C464.379 165.554 464.262 164.947 464.262 164.24C464.262 163.533 464.38 162.928 464.616 162.425C464.855 161.922 465.181 161.537 465.596 161.27C466.011 161.003 466.481 160.869 467.007 160.869C467.413 160.869 467.74 160.938 467.987 161.074C468.237 161.207 468.43 161.364 468.566 161.543C468.706 161.722 468.814 161.879 468.89 162.016H468.967V158.773H470.241V167.5H468.997V166.482H468.89C468.814 166.621 468.703 166.78 468.558 166.959C468.416 167.138 468.22 167.294 467.97 167.428C467.72 167.561 467.396 167.628 466.998 167.628ZM467.279 166.541C467.646 166.541 467.956 166.445 468.208 166.251C468.464 166.055 468.657 165.784 468.788 165.438C468.922 165.091 468.988 164.687 468.988 164.227C468.988 163.773 468.923 163.375 468.792 163.034C468.662 162.693 468.47 162.428 468.217 162.237C467.964 162.047 467.652 161.952 467.279 161.952C466.896 161.952 466.576 162.051 466.321 162.25C466.065 162.449 465.872 162.72 465.741 163.064C465.613 163.408 465.549 163.795 465.549 164.227C465.549 164.665 465.615 165.058 465.745 165.408C465.876 165.757 466.069 166.034 466.325 166.239C466.583 166.44 466.902 166.541 467.279 166.541ZM478.35 160.955V161.977H474.652V160.955H478.35ZM475.666 167.5V160.196C475.666 159.787 475.755 159.447 475.934 159.178C476.113 158.905 476.35 158.702 476.646 158.568C476.941 158.432 477.262 158.364 477.609 158.364C477.865 158.364 478.083 158.385 478.265 158.428C478.447 158.467 478.582 158.504 478.67 158.538L478.372 159.57C478.312 159.553 478.235 159.533 478.142 159.51C478.048 159.484 477.934 159.472 477.801 159.472C477.491 159.472 477.27 159.548 477.136 159.702C477.005 159.855 476.94 160.077 476.94 160.366V167.5H475.666ZM479.665 167.5V160.955H480.939V167.5H479.665ZM480.309 159.945C480.087 159.945 479.897 159.871 479.738 159.723C479.581 159.572 479.503 159.393 479.503 159.186C479.503 158.976 479.581 158.797 479.738 158.649C479.897 158.499 480.087 158.423 480.309 158.423C480.53 158.423 480.719 158.499 480.875 158.649C481.034 158.797 481.114 158.976 481.114 159.186C481.114 159.393 481.034 159.572 480.875 159.723C480.719 159.871 480.53 159.945 480.309 159.945ZM483.659 160.955L485.104 163.503L486.561 160.955H487.955L485.913 164.227L487.972 167.5H486.578L485.104 165.054L483.634 167.5H482.236L484.273 164.227L482.261 160.955H483.659ZM492.439 167.5V160.955H493.713V167.5H492.439ZM493.082 159.945C492.86 159.945 492.67 159.871 492.511 159.723C492.355 159.572 492.277 159.393 492.277 159.186C492.277 158.976 492.355 158.797 492.511 158.649C492.67 158.499 492.86 158.423 493.082 158.423C493.304 158.423 493.493 158.499 493.649 158.649C493.808 158.797 493.887 158.976 493.887 159.186C493.887 159.393 493.808 159.572 493.649 159.723C493.493 159.871 493.304 159.945 493.082 159.945ZM498.482 160.955V161.977H494.907V160.955H498.482ZM495.866 159.386H497.14V165.578C497.14 165.825 497.177 166.011 497.251 166.136C497.325 166.259 497.42 166.342 497.536 166.388C497.656 166.43 497.785 166.452 497.924 166.452C498.026 166.452 498.116 166.445 498.192 166.43C498.269 166.416 498.329 166.405 498.371 166.396L498.602 167.449C498.528 167.477 498.423 167.506 498.286 167.534C498.15 167.565 497.979 167.582 497.775 167.585C497.44 167.591 497.127 167.531 496.837 167.406C496.548 167.281 496.313 167.088 496.134 166.827C495.955 166.565 495.866 166.237 495.866 165.842V159.386Z" fill="#71717A"/>
<path d="M466 188H500C506.351 188 511.5 193.149 511.5 199.5V207.5C511.5 213.851 506.351 219 500 219H466C459.649 219 454.5 213.851 454.5 207.5V199.5C454.5 193.149 459.649 188 466 188Z" fill="url(#paint2_linear_2134_15158)"/>
<path d="M466 188H500C506.351 188 511.5 193.149 511.5 199.5V207.5C511.5 213.851 506.351 219 500 219H466C459.649 219 454.5 213.851 454.5 207.5V199.5C454.5 193.149 459.649 188 466 188Z" stroke="url(#paint3_linear_2134_15158)"/>
<path d="M469.784 207.5H466.959V198.773H469.874C470.729 198.773 471.463 198.947 472.077 199.297C472.69 199.643 473.161 200.142 473.487 200.793C473.817 201.44 473.982 202.217 473.982 203.124C473.982 204.033 473.815 204.814 473.483 205.467C473.153 206.121 472.676 206.624 472.051 206.976C471.426 207.325 470.67 207.5 469.784 207.5ZM468.276 206.349H469.712C470.376 206.349 470.929 206.224 471.369 205.974C471.81 205.722 472.139 205.357 472.358 204.879C472.577 204.399 472.686 203.814 472.686 203.124C472.686 202.439 472.577 201.858 472.358 201.381C472.142 200.903 471.82 200.541 471.391 200.294C470.962 200.047 470.429 199.923 469.793 199.923H468.276V206.349ZM478.274 207.632C477.66 207.632 477.125 207.491 476.667 207.21C476.21 206.929 475.855 206.536 475.602 206.03C475.349 205.524 475.223 204.933 475.223 204.257C475.223 203.578 475.349 202.984 475.602 202.476C475.855 201.967 476.21 201.572 476.667 201.291C477.125 201.01 477.66 200.869 478.274 200.869C478.887 200.869 479.423 201.01 479.88 201.291C480.338 201.572 480.693 201.967 480.946 202.476C481.199 202.984 481.325 203.578 481.325 204.257C481.325 204.933 481.199 205.524 480.946 206.03C480.693 206.536 480.338 206.929 479.88 207.21C479.423 207.491 478.887 207.632 478.274 207.632ZM478.278 206.562C478.676 206.562 479.005 206.457 479.267 206.247C479.528 206.037 479.721 205.757 479.846 205.408C479.974 205.058 480.038 204.673 480.038 204.253C480.038 203.835 479.974 203.452 479.846 203.102C479.721 202.75 479.528 202.467 479.267 202.254C479.005 202.041 478.676 201.935 478.278 201.935C477.877 201.935 477.545 202.041 477.281 202.254C477.02 202.467 476.825 202.75 476.697 203.102C476.572 203.452 476.51 203.835 476.51 204.253C476.51 204.673 476.572 205.058 476.697 205.408C476.825 205.757 477.02 206.037 477.281 206.247C477.545 206.457 477.877 206.562 478.278 206.562ZM484.021 203.614V207.5H482.747V200.955H483.97V202.02H484.051C484.202 201.673 484.438 201.395 484.759 201.185C485.082 200.974 485.49 200.869 485.982 200.869C486.428 200.869 486.818 200.963 487.153 201.151C487.489 201.335 487.749 201.611 487.933 201.977C488.118 202.344 488.21 202.797 488.21 203.337V207.5H486.936V203.49C486.936 203.016 486.813 202.645 486.565 202.378C486.318 202.108 485.979 201.973 485.547 201.973C485.251 201.973 484.989 202.037 484.759 202.165C484.531 202.293 484.351 202.48 484.217 202.727C484.087 202.972 484.021 203.267 484.021 203.614ZM492.74 207.632C492.095 207.632 491.54 207.494 491.074 207.219C490.611 206.94 490.253 206.55 490 206.047C489.75 205.541 489.625 204.949 489.625 204.27C489.625 203.599 489.75 203.009 490 202.497C490.253 201.986 490.605 201.587 491.057 201.3C491.511 201.013 492.043 200.869 492.651 200.869C493.02 200.869 493.378 200.93 493.724 201.053C494.071 201.175 494.382 201.366 494.658 201.628C494.933 201.889 495.151 202.229 495.31 202.646C495.469 203.061 495.548 203.565 495.548 204.159V204.611H490.345V203.656H494.3C494.3 203.321 494.232 203.024 494.095 202.766C493.959 202.504 493.767 202.298 493.52 202.148C493.276 201.997 492.989 201.922 492.659 201.922C492.301 201.922 491.989 202.01 491.722 202.186C491.457 202.359 491.253 202.587 491.108 202.868C490.966 203.146 490.895 203.449 490.895 203.776V204.521C490.895 204.959 490.972 205.331 491.125 205.638C491.281 205.945 491.499 206.179 491.777 206.341C492.055 206.5 492.381 206.58 492.753 206.58C492.994 206.58 493.214 206.545 493.413 206.477C493.612 206.406 493.784 206.301 493.929 206.162C494.074 206.023 494.185 205.851 494.261 205.646L495.467 205.864C495.371 206.219 495.197 206.53 494.947 206.797C494.7 207.061 494.389 207.267 494.014 207.415C493.642 207.56 493.217 207.632 492.74 207.632ZM498.569 198.773L498.458 204.99H497.277L497.167 198.773H498.569ZM497.87 207.581C497.634 207.581 497.432 207.499 497.265 207.334C497.097 207.166 497.015 206.964 497.017 206.729C497.015 206.496 497.097 206.297 497.265 206.132C497.432 205.964 497.634 205.881 497.87 205.881C498.1 205.881 498.299 205.964 498.466 206.132C498.634 206.297 498.719 206.496 498.722 206.729C498.719 206.885 498.678 207.028 498.598 207.159C498.522 207.287 498.419 207.389 498.292 207.466C498.164 207.543 498.023 207.581 497.87 207.581Z" fill="#71717A"/>
<g filter="url(#filter0_dd_2134_15158)">
<rect x="314.6" y="238.5" width="51.8" height="22.8" rx="6.6" fill="#18181B"/>
<rect x="314.6" y="238.5" width="51.8" height="22.8" rx="6.6" stroke="#09090B" stroke-width="1.2"/>
<path d="M322.959 253.9V245.173H328.431V246.306H324.276V248.966H328.145V250.095H324.276V252.767H328.482V253.9H322.959ZM330.087 253.9V247.355H331.319V248.395H331.387C331.506 248.042 331.716 247.765 332.018 247.564C332.322 247.359 332.665 247.257 333.049 247.257C333.128 247.257 333.222 247.26 333.33 247.265C333.441 247.271 333.527 247.278 333.59 247.287V248.505C333.539 248.491 333.448 248.475 333.317 248.458C333.187 248.439 333.056 248.429 332.925 248.429C332.624 248.429 332.356 248.493 332.12 248.62C331.887 248.745 331.702 248.92 331.566 249.145C331.429 249.366 331.361 249.619 331.361 249.903V253.9H330.087ZM334.693 253.9V247.355H335.967V253.9H334.693ZM335.336 246.345C335.114 246.345 334.924 246.271 334.765 246.123C334.609 245.973 334.531 245.794 334.531 245.586C334.531 245.376 334.609 245.197 334.765 245.049C334.924 244.899 335.114 244.824 335.336 244.824C335.558 244.824 335.747 244.899 335.903 245.049C336.062 245.197 336.141 245.376 336.141 245.586C336.141 245.794 336.062 245.973 335.903 246.123C335.747 246.271 335.558 246.345 335.336 246.345ZM338.853 251.68L338.844 250.125H339.066L341.674 247.355H343.199L340.225 250.508H340.025L338.853 251.68ZM337.681 253.9V245.173H338.955V253.9H337.681ZM341.814 253.9L339.471 250.789L340.348 249.899L343.378 253.9H341.814ZM350.464 253.9H347.639V245.173H350.553C351.409 245.173 352.143 245.348 352.757 245.697C353.37 246.044 353.84 246.542 354.167 247.193C354.497 247.841 354.661 248.618 354.661 249.524C354.661 250.433 354.495 251.214 354.163 251.868C353.833 252.521 353.356 253.024 352.731 253.376C352.106 253.725 351.35 253.9 350.464 253.9ZM348.955 252.75H350.391C351.056 252.75 351.609 252.625 352.049 252.375C352.489 252.122 352.819 251.757 353.038 251.279C353.257 250.799 353.366 250.214 353.366 249.524C353.366 248.839 353.257 248.258 353.038 247.781C352.822 247.304 352.499 246.941 352.07 246.694C351.641 246.447 351.109 246.324 350.472 246.324H348.955V252.75ZM356.485 253.981C356.252 253.981 356.052 253.899 355.884 253.734C355.717 253.566 355.633 253.365 355.633 253.129C355.633 252.896 355.717 252.697 355.884 252.532C356.052 252.365 356.252 252.281 356.485 252.281C356.718 252.281 356.918 252.365 357.086 252.532C357.254 252.697 357.337 252.896 357.337 253.129C357.337 253.285 357.298 253.429 357.218 253.559C357.141 253.687 357.039 253.789 356.911 253.866C356.784 253.943 356.641 253.981 356.485 253.981Z" fill="#FAFAFA"/>
<path d="M306.6 218.846C306.6 217.777 307.892 217.241 308.648 217.997L321.703 231.052C322.459 231.808 321.923 233.1 320.854 233.1H314.698C314.062 233.1 313.451 233.353 313.001 233.803L308.648 238.156C307.893 238.912 306.6 238.376 306.6 237.308V218.846Z" fill="#18181B" stroke="#09090B" stroke-width="1.2"/>
</g>
<path d="M60 9H325C331.351 9 336.5 14.1487 336.5 20.5V28.5C336.5 34.8513 331.351 40 325 40H60C53.6487 40 48.5 34.8513 48.5 28.5V20.5C48.5 14.1487 53.6487 9 60 9Z" fill="url(#paint4_linear_2134_15158)"/>
<path d="M60 9H325C331.351 9 336.5 14.1487 336.5 20.5V28.5C336.5 34.8513 331.351 40 325 40H60C53.6487 40 48.5 34.8513 48.5 28.5V20.5C48.5 14.1487 53.6487 9 60 9Z" stroke="url(#paint5_linear_2134_15158)"/>
<path d="M62.6676 28.5L60.2472 19.7727H61.6321L63.3324 26.5312H63.4134L65.1818 19.7727H66.554L68.3224 26.5355H68.4034L70.0994 19.7727H71.4886L69.0639 28.5H67.7386L65.902 21.9631H65.8338L63.9972 28.5H62.6676ZM74.7635 28.6321C74.1186 28.6321 73.5632 28.4943 73.0973 28.2188C72.6342 27.9403 72.2763 27.5497 72.0234 27.0469C71.7734 26.5412 71.6484 25.9489 71.6484 25.2699C71.6484 24.5994 71.7734 24.0085 72.0234 23.4972C72.2763 22.9858 72.6286 22.5866 73.0803 22.2997C73.5348 22.0128 74.0661 21.8693 74.674 21.8693C75.0433 21.8693 75.4013 21.9304 75.7479 22.0526C76.0945 22.1747 76.4055 22.3665 76.6811 22.6278C76.9567 22.8892 77.174 23.2287 77.3331 23.6463C77.4922 24.0611 77.5717 24.5653 77.5717 25.1591V25.6108H72.3686V24.6562H76.3232C76.3232 24.321 76.255 24.0241 76.1186 23.7656C75.9822 23.5043 75.7905 23.2983 75.5433 23.1477C75.299 22.9972 75.0121 22.9219 74.6825 22.9219C74.3246 22.9219 74.0121 23.0099 73.745 23.1861C73.4808 23.3594 73.2763 23.5866 73.1314 23.8679C72.9893 24.1463 72.9183 24.4489 72.9183 24.7756V25.5213C72.9183 25.9588 72.995 26.331 73.1484 26.6378C73.3047 26.9446 73.522 27.179 73.8004 27.3409C74.0788 27.5 74.4041 27.5795 74.7763 27.5795C75.0178 27.5795 75.2379 27.5455 75.4368 27.4773C75.6357 27.4062 75.8075 27.3011 75.9524 27.1619C76.0973 27.0227 76.2081 26.8509 76.2848 26.6463L77.4908 26.8636C77.3942 27.2187 77.2209 27.5298 76.9709 27.7969C76.7237 28.0611 76.4126 28.267 76.0376 28.4148C75.6655 28.5597 75.2408 28.6321 74.7635 28.6321ZM83.4354 24.6136V28.5H82.1612V21.9545H83.3842V23.0199H83.4652C83.6158 22.6733 83.8516 22.3949 84.1726 22.1847C84.4964 21.9744 84.9041 21.8693 85.3956 21.8693C85.8416 21.8693 86.2322 21.9631 86.5675 22.1506C86.9027 22.3352 87.1626 22.6108 87.3473 22.9773C87.532 23.3437 87.6243 23.7969 87.6243 24.3366V28.5H86.3501V24.4901C86.3501 24.0156 86.2266 23.6449 85.9794 23.3778C85.7322 23.108 85.3928 22.973 84.9609 22.973C84.6655 22.973 84.4027 23.0369 84.1726 23.1648C83.9453 23.2926 83.7649 23.4801 83.6314 23.7273C83.5007 23.9716 83.4354 24.267 83.4354 24.6136ZM92.1541 28.6321C91.5092 28.6321 90.9538 28.4943 90.4879 28.2188C90.0249 27.9403 89.6669 27.5497 89.4141 27.0469C89.1641 26.5412 89.0391 25.9489 89.0391 25.2699C89.0391 24.5994 89.1641 24.0085 89.4141 23.4972C89.6669 22.9858 90.0192 22.5866 90.4709 22.2997C90.9254 22.0128 91.4567 21.8693 92.0646 21.8693C92.4339 21.8693 92.7919 21.9304 93.1385 22.0526C93.4851 22.1747 93.7962 22.3665 94.0717 22.6278C94.3473 22.8892 94.5646 23.2287 94.7237 23.6463C94.8828 24.0611 94.9624 24.5653 94.9624 25.1591V25.6108H89.7592V24.6562H93.7138C93.7138 24.321 93.6456 24.0241 93.5092 23.7656C93.3729 23.5043 93.1811 23.2983 92.9339 23.1477C92.6896 22.9972 92.4027 22.9219 92.0732 22.9219C91.7152 22.9219 91.4027 23.0099 91.1357 23.1861C90.8714 23.3594 90.6669 23.5866 90.522 23.8679C90.38 24.1463 90.3089 24.4489 90.3089 24.7756V25.5213C90.3089 25.9588 90.3857 26.331 90.5391 26.6378C90.6953 26.9446 90.9126 27.179 91.1911 27.3409C91.4695 27.5 91.7947 27.5795 92.1669 27.5795C92.4084 27.5795 92.6286 27.5455 92.8274 27.4773C93.0263 27.4062 93.1982 27.3011 93.343 27.1619C93.4879 27.0227 93.5987 26.8509 93.6754 26.6463L94.8814 26.8636C94.7848 27.2187 94.6115 27.5298 94.3615 27.7969C94.1143 28.0611 93.8033 28.267 93.4283 28.4148C93.0561 28.5597 92.6314 28.6321 92.1541 28.6321ZM99.1971 28.6321C98.5522 28.6321 97.9968 28.4943 97.5309 28.2188C97.0678 27.9403 96.7099 27.5497 96.457 27.0469C96.207 26.5412 96.082 25.9489 96.082 25.2699C96.082 24.5994 96.207 24.0085 96.457 23.4972C96.7099 22.9858 97.0621 22.5866 97.5138 22.2997C97.9684 22.0128 98.4996 21.8693 99.1076 21.8693C99.4769 21.8693 99.8349 21.9304 100.181 22.0526C100.528 22.1747 100.839 22.3665 101.115 22.6278C101.39 22.8892 101.608 23.2287 101.767 23.6463C101.926 24.0611 102.005 24.5653 102.005 25.1591V25.6108H96.8022V24.6562H100.757C100.757 24.321 100.689 24.0241 100.552 23.7656C100.416 23.5043 100.224 23.2983 99.9769 23.1477C99.7326 22.9972 99.4457 22.9219 99.1161 22.9219C98.7582 22.9219 98.4457 23.0099 98.1786 23.1861C97.9144 23.3594 97.7099 23.5866 97.565 23.8679C97.4229 24.1463 97.3519 24.4489 97.3519 24.7756V25.5213C97.3519 25.9588 97.4286 26.331 97.582 26.6378C97.7383 26.9446 97.9556 27.179 98.234 27.3409C98.5124 27.5 98.8377 27.5795 99.2099 27.5795C99.4513 27.5795 99.6715 27.5455 99.8704 27.4773C100.069 27.4062 100.241 27.3011 100.386 27.1619C100.531 27.0227 100.642 26.8509 100.718 26.6463L101.924 26.8636C101.828 27.2187 101.654 27.5298 101.404 27.7969C101.157 28.0611 100.846 28.267 100.471 28.4148C100.099 28.5597 99.6744 28.6321 99.1971 28.6321ZM105.869 28.6278C105.341 28.6278 104.869 28.4929 104.455 28.223C104.043 27.9503 103.719 27.5625 103.483 27.0597C103.25 26.554 103.134 25.9474 103.134 25.2401C103.134 24.5327 103.251 23.9276 103.487 23.4247C103.726 22.9219 104.053 22.5369 104.467 22.2699C104.882 22.0028 105.352 21.8693 105.878 21.8693C106.284 21.8693 106.611 21.9375 106.858 22.0739C107.108 22.2074 107.301 22.3636 107.438 22.5426C107.577 22.7216 107.685 22.8793 107.761 23.0156H107.838V19.7727H109.112V28.5H107.868V27.4815H107.761C107.685 27.6207 107.574 27.7798 107.429 27.9588C107.287 28.1378 107.091 28.294 106.841 28.4276C106.591 28.5611 106.267 28.6278 105.869 28.6278ZM106.151 27.5412C106.517 27.5412 106.827 27.4446 107.08 27.2514C107.335 27.0554 107.528 26.7841 107.659 26.4375C107.793 26.0909 107.859 25.6875 107.859 25.2273C107.859 24.7727 107.794 24.375 107.663 24.0341C107.533 23.6932 107.341 23.4276 107.088 23.2372C106.835 23.0469 106.523 22.9517 106.151 22.9517C105.767 22.9517 105.447 23.0511 105.192 23.25C104.936 23.4489 104.743 23.7202 104.612 24.0639C104.484 24.4077 104.42 24.7955 104.42 25.2273C104.42 25.6648 104.486 26.0582 104.616 26.4077C104.747 26.7571 104.94 27.0341 105.196 27.2386C105.455 27.4403 105.773 27.5412 106.151 27.5412ZM117.162 21.9545V22.9773H113.587V21.9545H117.162ZM114.545 20.3864H115.82V26.5781C115.82 26.8253 115.857 27.0114 115.93 27.1364C116.004 27.2585 116.099 27.3423 116.216 27.3878C116.335 27.4304 116.464 27.4517 116.604 27.4517C116.706 27.4517 116.795 27.4446 116.872 27.4304C116.949 27.4162 117.009 27.4048 117.051 27.3963L117.281 28.4489C117.207 28.4773 117.102 28.5057 116.966 28.5341C116.83 28.5653 116.659 28.5824 116.455 28.5852C116.119 28.5909 115.807 28.5312 115.517 28.4062C115.227 28.2812 114.993 28.0881 114.814 27.8267C114.635 27.5653 114.545 27.2372 114.545 26.8423V20.3864ZM121.258 28.6321C120.645 28.6321 120.109 28.4915 119.652 28.2102C119.194 27.929 118.839 27.5355 118.586 27.0298C118.333 26.5241 118.207 25.9332 118.207 25.2571C118.207 24.5781 118.333 23.9844 118.586 23.4759C118.839 22.9673 119.194 22.5724 119.652 22.2912C120.109 22.0099 120.645 21.8693 121.258 21.8693C121.872 21.8693 122.407 22.0099 122.865 22.2912C123.322 22.5724 123.677 22.9673 123.93 23.4759C124.183 23.9844 124.309 24.5781 124.309 25.2571C124.309 25.9332 124.183 26.5241 123.93 27.0298C123.677 27.5355 123.322 27.929 122.865 28.2102C122.407 28.4915 121.872 28.6321 121.258 28.6321ZM121.262 27.5625C121.66 27.5625 121.99 27.4574 122.251 27.2472C122.512 27.0369 122.706 26.7571 122.831 26.4077C122.958 26.0582 123.022 25.6733 123.022 25.2528C123.022 24.8352 122.958 24.4517 122.831 24.1023C122.706 23.75 122.512 23.4673 122.251 23.2543C121.99 23.0412 121.66 22.9347 121.262 22.9347C120.862 22.9347 120.529 23.0412 120.265 23.2543C120.004 23.4673 119.809 23.75 119.681 24.1023C119.556 24.4517 119.494 24.8352 119.494 25.2528C119.494 25.6733 119.556 26.0582 119.681 26.4077C119.809 26.7571 120.004 27.0369 120.265 27.2472C120.529 27.4574 120.862 27.5625 121.262 27.5625ZM133.054 25.7855V21.9545H134.332V28.5H133.079V27.3665H133.011C132.86 27.7159 132.619 28.0071 132.287 28.2401C131.957 28.4702 131.547 28.5852 131.055 28.5852C130.635 28.5852 130.262 28.4929 129.939 28.3082C129.618 28.1207 129.365 27.8438 129.18 27.4773C128.998 27.1108 128.907 26.6577 128.907 26.1179V21.9545H130.181V25.9645C130.181 26.4105 130.305 26.7656 130.552 27.0298C130.799 27.294 131.12 27.4261 131.515 27.4261C131.754 27.4261 131.991 27.3665 132.227 27.2472C132.466 27.1278 132.663 26.9474 132.819 26.706C132.978 26.4645 133.056 26.1577 133.054 25.7855ZM136.044 30.9545V21.9545H137.288V23.0156H137.395C137.469 22.8793 137.575 22.7216 137.714 22.5426C137.854 22.3636 138.047 22.2074 138.294 22.0739C138.541 21.9375 138.868 21.8693 139.274 21.8693C139.803 21.8693 140.274 22.0028 140.689 22.2699C141.104 22.5369 141.429 22.9219 141.665 23.4247C141.903 23.9276 142.023 24.5327 142.023 25.2401C142.023 25.9474 141.905 26.554 141.669 27.0597C141.433 27.5625 141.109 27.9503 140.697 28.223C140.286 28.4929 139.815 28.6278 139.287 28.6278C138.889 28.6278 138.564 28.5611 138.311 28.4276C138.061 28.294 137.865 28.1378 137.723 27.9588C137.581 27.7798 137.472 27.6207 137.395 27.4815H137.318V30.9545H136.044ZM137.293 25.2273C137.293 25.6875 137.359 26.0909 137.493 26.4375C137.626 26.7841 137.82 27.0554 138.072 27.2514C138.325 27.4446 138.635 27.5412 139.001 27.5412C139.382 27.5412 139.7 27.4403 139.956 27.2386C140.212 27.0341 140.405 26.7571 140.536 26.4077C140.669 26.0582 140.736 25.6648 140.736 25.2273C140.736 24.7955 140.67 24.4077 140.54 24.0639C140.412 23.7202 140.219 23.4489 139.96 23.25C139.705 23.0511 139.385 22.9517 139.001 22.9517C138.632 22.9517 138.32 23.0469 138.064 23.2372C137.811 23.4276 137.619 23.6932 137.489 24.0341C137.358 24.375 137.293 24.7727 137.293 25.2273ZM145.901 28.6278C145.372 28.6278 144.901 28.4929 144.486 28.223C144.074 27.9503 143.75 27.5625 143.514 27.0597C143.281 26.554 143.165 25.9474 143.165 25.2401C143.165 24.5327 143.283 23.9276 143.518 23.4247C143.757 22.9219 144.084 22.5369 144.499 22.2699C144.913 22.0028 145.384 21.8693 145.909 21.8693C146.315 21.8693 146.642 21.9375 146.889 22.0739C147.139 22.2074 147.332 22.3636 147.469 22.5426C147.608 22.7216 147.716 22.8793 147.793 23.0156H147.869V19.7727H149.143V28.5H147.899V27.4815H147.793C147.716 27.6207 147.605 27.7798 147.46 27.9588C147.318 28.1378 147.122 28.294 146.872 28.4276C146.622 28.5611 146.298 28.6278 145.901 28.6278ZM146.182 27.5412C146.548 27.5412 146.858 27.4446 147.111 27.2514C147.366 27.0554 147.56 26.7841 147.69 26.4375C147.824 26.0909 147.891 25.6875 147.891 25.2273C147.891 24.7727 147.825 24.375 147.695 24.0341C147.564 23.6932 147.372 23.4276 147.119 23.2372C146.866 23.0469 146.554 22.9517 146.182 22.9517C145.798 22.9517 145.479 23.0511 145.223 23.25C144.967 23.4489 144.774 23.7202 144.643 24.0639C144.516 24.4077 144.452 24.7955 144.452 25.2273C144.452 25.6648 144.517 26.0582 144.648 26.4077C144.778 26.7571 144.972 27.0341 145.227 27.2386C145.486 27.4403 145.804 27.5412 146.182 27.5412ZM152.867 28.6449C152.452 28.6449 152.077 28.5682 151.742 28.4148C151.407 28.2585 151.141 28.0327 150.945 27.7372C150.752 27.4418 150.655 27.0795 150.655 26.6506C150.655 26.2812 150.726 25.9773 150.868 25.7386C151.01 25.5 151.202 25.3111 151.444 25.1719C151.685 25.0327 151.955 24.9276 152.253 24.8565C152.551 24.7855 152.855 24.7315 153.165 24.6946C153.557 24.6491 153.875 24.6122 154.12 24.5838C154.364 24.5526 154.542 24.5028 154.652 24.4347C154.763 24.3665 154.819 24.2557 154.819 24.1023V24.0724C154.819 23.7003 154.713 23.4119 154.503 23.2074C154.296 23.0028 153.986 22.9006 153.574 22.9006C153.145 22.9006 152.807 22.9957 152.56 23.1861C152.316 23.3736 152.147 23.5824 152.053 23.8125L150.855 23.5398C150.998 23.142 151.205 22.821 151.478 22.5767C151.753 22.3295 152.07 22.1506 152.428 22.0398C152.786 21.9261 153.162 21.8693 153.557 21.8693C153.819 21.8693 154.096 21.9006 154.388 21.9631C154.684 22.0227 154.959 22.1335 155.215 22.2955C155.473 22.4574 155.685 22.6889 155.85 22.9901C156.015 23.2884 156.097 23.6761 156.097 24.1534V28.5H154.853V27.6051H154.801C154.719 27.7699 154.596 27.9318 154.431 28.0909C154.266 28.25 154.054 28.3821 153.796 28.4872C153.537 28.5923 153.228 28.6449 152.867 28.6449ZM153.144 27.6222C153.496 27.6222 153.797 27.5526 154.047 27.4134C154.3 27.2741 154.492 27.0923 154.623 26.8679C154.756 26.6406 154.823 26.3977 154.823 26.1392V25.2955C154.777 25.3409 154.689 25.3835 154.559 25.4233C154.431 25.4602 154.284 25.4929 154.12 25.5213C153.955 25.5469 153.794 25.571 153.638 25.5938C153.482 25.6136 153.351 25.6307 153.246 25.6449C152.999 25.6761 152.773 25.7287 152.569 25.8026C152.367 25.8764 152.205 25.983 152.083 26.1222C151.963 26.2585 151.904 26.4403 151.904 26.6676C151.904 26.983 152.02 27.2216 152.253 27.3835C152.486 27.5426 152.783 27.6222 153.144 27.6222ZM160.849 21.9545V22.9773H157.274V21.9545H160.849ZM158.233 20.3864H159.507V26.5781C159.507 26.8253 159.544 27.0114 159.618 27.1364C159.692 27.2585 159.787 27.3423 159.903 27.3878C160.023 27.4304 160.152 27.4517 160.291 27.4517C160.393 27.4517 160.483 27.4446 160.56 27.4304C160.636 27.4162 160.696 27.4048 160.739 27.3963L160.969 28.4489C160.895 28.4773 160.79 28.5057 160.653 28.5341C160.517 28.5653 160.347 28.5824 160.142 28.5852C159.807 28.5909 159.494 28.5312 159.205 28.4062C158.915 28.2812 158.68 28.0881 158.501 27.8267C158.322 27.5653 158.233 27.2372 158.233 26.8423V20.3864ZM165.01 28.6321C164.365 28.6321 163.809 28.4943 163.343 28.2188C162.88 27.9403 162.522 27.5497 162.27 27.0469C162.02 26.5412 161.895 25.9489 161.895 25.2699C161.895 24.5994 162.02 24.0085 162.27 23.4972C162.522 22.9858 162.875 22.5866 163.326 22.2997C163.781 22.0128 164.312 21.8693 164.92 21.8693C165.289 21.8693 165.647 21.9304 165.994 22.0526C166.341 22.1747 166.652 22.3665 166.927 22.6278C167.203 22.8892 167.42 23.2287 167.579 23.6463C167.738 24.0611 167.818 24.5653 167.818 25.1591V25.6108H162.615V24.6562H166.569C166.569 24.321 166.501 24.0241 166.365 23.7656C166.228 23.5043 166.037 23.2983 165.789 23.1477C165.545 22.9972 165.258 22.9219 164.929 22.9219C164.571 22.9219 164.258 23.0099 163.991 23.1861C163.727 23.3594 163.522 23.5866 163.377 23.8679C163.235 24.1463 163.164 24.4489 163.164 24.7756V25.5213C163.164 25.9588 163.241 26.331 163.395 26.6378C163.551 26.9446 163.768 27.179 164.047 27.3409C164.325 27.5 164.65 27.5795 165.022 27.5795C165.264 27.5795 165.484 27.5455 165.683 27.4773C165.882 27.4062 166.054 27.3011 166.199 27.1619C166.343 27.0227 166.454 26.8509 166.531 26.6463L167.737 26.8636C167.64 27.2187 167.467 27.5298 167.217 27.7969C166.97 28.0611 166.659 28.267 166.284 28.4148C165.912 28.5597 165.487 28.6321 165.01 28.6321ZM175.463 21.9545V22.9773H171.887V21.9545H175.463ZM172.846 20.3864H174.12V26.5781C174.12 26.8253 174.157 27.0114 174.231 27.1364C174.305 27.2585 174.4 27.3423 174.517 27.3878C174.636 27.4304 174.765 27.4517 174.904 27.4517C175.007 27.4517 175.096 27.4446 175.173 27.4304C175.25 27.4162 175.309 27.4048 175.352 27.3963L175.582 28.4489C175.508 28.4773 175.403 28.5057 175.267 28.5341C175.13 28.5653 174.96 28.5824 174.755 28.5852C174.42 28.5909 174.108 28.5312 173.818 28.4062C173.528 28.2812 173.294 28.0881 173.115 27.8267C172.936 27.5653 172.846 27.2372 172.846 26.8423V20.3864ZM178.287 24.6136V28.5H177.013V19.7727H178.27V23.0199H178.351C178.504 22.6676 178.739 22.3878 179.054 22.1804C179.369 21.973 179.781 21.8693 180.29 21.8693C180.739 21.8693 181.131 21.9616 181.466 22.1463C181.804 22.331 182.065 22.6065 182.25 22.973C182.438 23.3366 182.531 23.7912 182.531 24.3366V28.5H181.257V24.4901C181.257 24.0099 181.134 23.6378 180.886 23.3736C180.639 23.1065 180.295 22.973 179.855 22.973C179.554 22.973 179.284 23.0369 179.045 23.1648C178.81 23.2926 178.624 23.4801 178.487 23.7273C178.354 23.9716 178.287 24.267 178.287 24.6136ZM184.232 28.5V21.9545H185.506V28.5H184.232ZM184.875 20.9446C184.653 20.9446 184.463 20.8707 184.304 20.723C184.148 20.5724 184.07 20.3935 184.07 20.1861C184.07 19.9759 184.148 19.7969 184.304 19.6491C184.463 19.4986 184.653 19.4233 184.875 19.4233C185.097 19.4233 185.286 19.4986 185.442 19.6491C185.601 19.7969 185.68 19.9759 185.68 20.1861C185.68 20.3935 185.601 20.5724 185.442 20.723C185.286 20.8707 185.097 20.9446 184.875 20.9446ZM192.125 23.5526L190.97 23.7571C190.922 23.6094 190.845 23.4687 190.74 23.3352C190.637 23.2017 190.498 23.0923 190.322 23.0071C190.146 22.9219 189.926 22.8793 189.662 22.8793C189.301 22.8793 189 22.9602 188.758 23.1222C188.517 23.2812 188.396 23.4872 188.396 23.7401C188.396 23.9588 188.477 24.1349 188.639 24.2685C188.801 24.402 189.062 24.5114 189.423 24.5966L190.463 24.8352C191.065 24.9744 191.514 25.1889 191.809 25.4787C192.105 25.7685 192.252 26.1449 192.252 26.608C192.252 27 192.139 27.3494 191.912 27.6562C191.687 27.9602 191.373 28.1989 190.97 28.3722C190.569 28.5455 190.105 28.6321 189.576 28.6321C188.843 28.6321 188.245 28.4759 187.782 28.1634C187.319 27.848 187.035 27.4006 186.93 26.821L188.162 26.6335C188.238 26.9545 188.396 27.1974 188.635 27.3622C188.873 27.5241 189.184 27.6051 189.568 27.6051C189.985 27.6051 190.319 27.5185 190.569 27.3452C190.819 27.169 190.944 26.9545 190.944 26.7017C190.944 26.4972 190.868 26.3253 190.714 26.1861C190.564 26.0469 190.332 25.9418 190.02 25.8707L188.912 25.6278C188.301 25.4886 187.849 25.267 187.556 24.9631C187.267 24.6591 187.122 24.2741 187.122 23.8082C187.122 23.4219 187.23 23.0838 187.446 22.794C187.662 22.5043 187.96 22.2784 188.341 22.1165C188.721 21.9517 189.157 21.8693 189.649 21.8693C190.356 21.8693 190.913 22.0227 191.319 22.3295C191.725 22.6335 191.994 23.0412 192.125 23.5526ZM198.103 24.6136V28.5H196.829V19.7727H198.086V23.0199H198.167C198.321 22.6676 198.555 22.3878 198.87 22.1804C199.186 21.973 199.598 21.8693 200.106 21.8693C200.555 21.8693 200.947 21.9616 201.282 22.1463C201.62 22.331 201.882 22.6065 202.066 22.973C202.254 23.3366 202.348 23.7912 202.348 24.3366V28.5H201.074V24.4901C201.074 24.0099 200.95 23.6378 200.703 23.3736C200.456 23.1065 200.112 22.973 199.672 22.973C199.37 22.973 199.1 23.0369 198.862 23.1648C198.626 23.2926 198.44 23.4801 198.304 23.7273C198.17 23.9716 198.103 24.267 198.103 24.6136ZM206.869 28.6321C206.224 28.6321 205.669 28.4943 205.203 28.2188C204.74 27.9403 204.382 27.5497 204.129 27.0469C203.879 26.5412 203.754 25.9489 203.754 25.2699C203.754 24.5994 203.879 24.0085 204.129 23.4972C204.382 22.9858 204.734 22.5866 205.186 22.2997C205.64 22.0128 206.172 21.8693 206.779 21.8693C207.149 21.8693 207.507 21.9304 207.853 22.0526C208.2 22.1747 208.511 22.3665 208.787 22.6278C209.062 22.8892 209.279 23.2287 209.439 23.6463C209.598 24.0611 209.677 24.5653 209.677 25.1591V25.6108H204.474V24.6562H208.429C208.429 24.321 208.36 24.0241 208.224 23.7656C208.088 23.5043 207.896 23.2983 207.649 23.1477C207.404 22.9972 207.118 22.9219 206.788 22.9219C206.43 22.9219 206.118 23.0099 205.85 23.1861C205.586 23.3594 205.382 23.5866 205.237 23.8679C205.095 24.1463 205.024 24.4489 205.024 24.7756V25.5213C205.024 25.9588 205.1 26.331 205.254 26.6378C205.41 26.9446 205.627 27.179 205.906 27.3409C206.184 27.5 206.51 27.5795 206.882 27.5795C207.123 27.5795 207.343 27.5455 207.542 27.4773C207.741 27.4062 207.913 27.3011 208.058 27.1619C208.203 27.0227 208.314 26.8509 208.39 26.6463L209.596 26.8636C209.5 27.2187 209.326 27.5298 209.076 27.7969C208.829 28.0611 208.518 28.267 208.143 28.4148C207.771 28.5597 207.346 28.6321 206.869 28.6321ZM212.996 28.6449C212.581 28.6449 212.206 28.5682 211.871 28.4148C211.536 28.2585 211.27 28.0327 211.074 27.7372C210.881 27.4418 210.784 27.0795 210.784 26.6506C210.784 26.2812 210.855 25.9773 210.997 25.7386C211.139 25.5 211.331 25.3111 211.572 25.1719C211.814 25.0327 212.084 24.9276 212.382 24.8565C212.68 24.7855 212.984 24.7315 213.294 24.6946C213.686 24.6491 214.004 24.6122 214.249 24.5838C214.493 24.5526 214.67 24.5028 214.781 24.4347C214.892 24.3665 214.947 24.2557 214.947 24.1023V24.0724C214.947 23.7003 214.842 23.4119 214.632 23.2074C214.425 23.0028 214.115 22.9006 213.703 22.9006C213.274 22.9006 212.936 22.9957 212.689 23.1861C212.445 23.3736 212.276 23.5824 212.182 23.8125L210.984 23.5398C211.126 23.142 211.334 22.821 211.607 22.5767C211.882 22.3295 212.199 22.1506 212.557 22.0398C212.915 21.9261 213.291 21.8693 213.686 21.8693C213.947 21.8693 214.224 21.9006 214.517 21.9631C214.813 22.0227 215.088 22.1335 215.344 22.2955C215.602 22.4574 215.814 22.6889 215.979 22.9901C216.143 23.2884 216.226 23.6761 216.226 24.1534V28.5H214.982V27.6051H214.93C214.848 27.7699 214.724 27.9318 214.56 28.0909C214.395 28.25 214.183 28.3821 213.925 28.4872C213.666 28.5923 213.357 28.6449 212.996 28.6449ZM213.273 27.6222C213.625 27.6222 213.926 27.5526 214.176 27.4134C214.429 27.2741 214.621 27.0923 214.751 26.8679C214.885 26.6406 214.952 26.3977 214.952 26.1392V25.2955C214.906 25.3409 214.818 25.3835 214.688 25.4233C214.56 25.4602 214.413 25.4929 214.249 25.5213C214.084 25.5469 213.923 25.571 213.767 25.5938C213.611 25.6136 213.48 25.6307 213.375 25.6449C213.128 25.6761 212.902 25.7287 212.697 25.8026C212.496 25.8764 212.334 25.983 212.212 26.1222C212.092 26.2585 212.033 26.4403 212.033 26.6676C212.033 26.983 212.149 27.2216 212.382 27.3835C212.615 27.5426 212.912 27.6222 213.273 27.6222ZM220.373 28.6278C219.845 28.6278 219.373 28.4929 218.958 28.223C218.547 27.9503 218.223 27.5625 217.987 27.0597C217.754 26.554 217.637 25.9474 217.637 25.2401C217.637 24.5327 217.755 23.9276 217.991 23.4247C218.23 22.9219 218.556 22.5369 218.971 22.2699C219.386 22.0028 219.856 21.8693 220.382 21.8693C220.788 21.8693 221.115 21.9375 221.362 22.0739C221.612 22.2074 221.805 22.3636 221.941 22.5426C222.081 22.7216 222.189 22.8793 222.265 23.0156H222.342V19.7727H223.616V28.5H222.372V27.4815H222.265C222.189 27.6207 222.078 27.7798 221.933 27.9588C221.791 28.1378 221.595 28.294 221.345 28.4276C221.095 28.5611 220.771 28.6278 220.373 28.6278ZM220.654 27.5412C221.021 27.5412 221.331 27.4446 221.583 27.2514C221.839 27.0554 222.032 26.7841 222.163 26.4375C222.297 26.0909 222.363 25.6875 222.363 25.2273C222.363 24.7727 222.298 24.375 222.167 24.0341C222.037 23.6932 221.845 23.4276 221.592 23.2372C221.339 23.0469 221.027 22.9517 220.654 22.9517C220.271 22.9517 219.951 23.0511 219.696 23.25C219.44 23.4489 219.247 23.7202 219.116 24.0639C218.988 24.4077 218.924 24.7955 218.924 25.2273C218.924 25.6648 218.99 26.0582 219.12 26.4077C219.251 26.7571 219.444 27.0341 219.7 27.2386C219.958 27.4403 220.277 27.5412 220.654 27.5412ZM225.435 28.5V21.9545H226.709V28.5H225.435ZM226.078 20.9446C225.857 20.9446 225.666 20.8707 225.507 20.723C225.351 20.5724 225.273 20.3935 225.273 20.1861C225.273 19.9759 225.351 19.7969 225.507 19.6491C225.666 19.4986 225.857 19.4233 226.078 19.4233C226.3 19.4233 226.489 19.4986 226.645 19.6491C226.804 19.7969 226.884 19.9759 226.884 20.1861C226.884 20.3935 226.804 20.5724 226.645 20.723C226.489 20.8707 226.3 20.9446 226.078 20.9446ZM229.697 24.6136V28.5H228.423V21.9545H229.646V23.0199H229.727C229.877 22.6733 230.113 22.3949 230.434 22.1847C230.758 21.9744 231.166 21.8693 231.657 21.8693C232.103 21.8693 232.494 21.9631 232.829 22.1506C233.164 22.3352 233.424 22.6108 233.609 22.9773C233.794 23.3437 233.886 23.7969 233.886 24.3366V28.5H232.612V24.4901C232.612 24.0156 232.488 23.6449 232.241 23.3778C231.994 23.108 231.654 22.973 231.223 22.973C230.927 22.973 230.664 23.0369 230.434 23.1648C230.207 23.2926 230.027 23.4801 229.893 23.7273C229.762 23.9716 229.697 24.267 229.697 24.6136ZM238.339 31.0909C237.819 31.0909 237.372 31.0227 236.997 30.8864C236.625 30.75 236.321 30.5696 236.085 30.3452C235.849 30.1207 235.673 29.875 235.556 29.608L236.652 29.1562C236.728 29.2812 236.831 29.4134 236.958 29.5526C237.089 29.6946 237.265 29.8153 237.487 29.9148C237.711 30.0142 238 30.0639 238.352 30.0639C238.835 30.0639 239.234 29.946 239.549 29.7102C239.865 29.4773 240.022 29.1051 240.022 28.5938V27.3068H239.941C239.865 27.446 239.754 27.6009 239.609 27.7713C239.467 27.9418 239.271 28.0895 239.021 28.2145C238.771 28.3395 238.446 28.402 238.045 28.402C237.528 28.402 237.062 28.2812 236.647 28.0398C236.235 27.7955 235.909 27.4361 235.667 26.9616C235.429 26.4844 235.309 25.8977 235.309 25.2017C235.309 24.5057 235.427 23.9091 235.663 23.4119C235.902 22.9148 236.228 22.5341 236.643 22.2699C237.058 22.0028 237.528 21.8693 238.054 21.8693C238.46 21.8693 238.788 21.9375 239.038 22.0739C239.288 22.2074 239.483 22.3636 239.622 22.5426C239.764 22.7216 239.873 22.8793 239.95 23.0156H240.044V21.9545H241.292V28.6449C241.292 29.2074 241.162 29.669 240.9 30.0298C240.639 30.3906 240.285 30.6577 239.839 30.831C239.396 31.0043 238.896 31.0909 238.339 31.0909ZM238.326 27.3452C238.693 27.3452 239.002 27.2599 239.255 27.0895C239.511 26.9162 239.704 26.669 239.835 26.348C239.968 26.0241 240.035 25.6364 240.035 25.1847C240.035 24.7443 239.97 24.3565 239.839 24.0213C239.708 23.6861 239.517 23.4247 239.264 23.2372C239.011 23.0469 238.699 22.9517 238.326 22.9517C237.943 22.9517 237.623 23.0511 237.368 23.25C237.112 23.446 236.919 23.7131 236.788 24.0511C236.66 24.3892 236.596 24.767 236.596 25.1847C236.596 25.6136 236.662 25.9901 236.792 26.3139C236.923 26.6378 237.116 26.8906 237.372 27.0724C237.63 27.2543 237.949 27.3452 238.326 27.3452ZM246.279 28.5V19.7727H247.553V23.0156H247.63C247.704 22.8793 247.81 22.7216 247.95 22.5426C248.089 22.3636 248.282 22.2074 248.529 22.0739C248.776 21.9375 249.103 21.8693 249.509 21.8693C250.038 21.8693 250.509 22.0028 250.924 22.2699C251.339 22.5369 251.664 22.9219 251.9 23.4247C252.138 23.9276 252.258 24.5327 252.258 25.2401C252.258 25.9474 252.14 26.554 251.904 27.0597C251.668 27.5625 251.344 27.9503 250.933 28.223C250.521 28.4929 250.05 28.6278 249.522 28.6278C249.124 28.6278 248.799 28.5611 248.546 28.4276C248.296 28.294 248.1 28.1378 247.958 27.9588C247.816 27.7798 247.707 27.6207 247.63 27.4815H247.523V28.5H246.279ZM247.528 25.2273C247.528 25.6875 247.594 26.0909 247.728 26.4375C247.862 26.7841 248.055 27.0554 248.308 27.2514C248.56 27.4446 248.87 27.5412 249.237 27.5412C249.617 27.5412 249.935 27.4403 250.191 27.2386C250.447 27.0341 250.64 26.7571 250.771 26.4077C250.904 26.0582 250.971 25.6648 250.971 25.2273C250.971 24.7955 250.906 24.4077 250.775 24.0639C250.647 23.7202 250.454 23.4489 250.195 23.25C249.94 23.0511 249.62 22.9517 249.237 22.9517C248.867 22.9517 248.555 23.0469 248.299 23.2372C248.046 23.4276 247.854 23.6932 247.724 24.0341C247.593 24.375 247.528 24.7727 247.528 25.2273ZM256.51 28.6321C255.865 28.6321 255.309 28.4943 254.843 28.2188C254.38 27.9403 254.022 27.5497 253.77 27.0469C253.52 26.5412 253.395 25.9489 253.395 25.2699C253.395 24.5994 253.52 24.0085 253.77 23.4972C254.022 22.9858 254.375 22.5866 254.826 22.2997C255.281 22.0128 255.812 21.8693 256.42 21.8693C256.789 21.8693 257.147 21.9304 257.494 22.0526C257.841 22.1747 258.152 22.3665 258.427 22.6278C258.703 22.8892 258.92 23.2287 259.079 23.6463C259.238 24.0611 259.318 24.5653 259.318 25.1591V25.6108H254.115V24.6562H258.069C258.069 24.321 258.001 24.0241 257.865 23.7656C257.728 23.5043 257.537 23.2983 257.289 23.1477C257.045 22.9972 256.758 22.9219 256.429 22.9219C256.071 22.9219 255.758 23.0099 255.491 23.1861C255.227 23.3594 255.022 23.5866 254.877 23.8679C254.735 24.1463 254.664 24.4489 254.664 24.7756V25.5213C254.664 25.9588 254.741 26.331 254.895 26.6378C255.051 26.9446 255.268 27.179 255.547 27.3409C255.825 27.5 256.15 27.5795 256.522 27.5795C256.764 27.5795 256.984 27.5455 257.183 27.4773C257.382 27.4062 257.554 27.3011 257.699 27.1619C257.843 27.0227 257.954 26.8509 258.031 26.6463L259.237 26.8636C259.14 27.2187 258.967 27.5298 258.717 27.7969C258.47 28.0611 258.159 28.267 257.784 28.4148C257.412 28.5597 256.987 28.6321 256.51 28.6321ZM263.847 21.9545V22.9773H260.148V21.9545H263.847ZM261.162 28.5V21.196C261.162 20.7869 261.251 20.4474 261.43 20.1776C261.609 19.9048 261.847 19.7017 262.142 19.5682C262.438 19.4318 262.759 19.3636 263.105 19.3636C263.361 19.3636 263.58 19.3849 263.761 19.4276C263.943 19.4673 264.078 19.5043 264.166 19.5384L263.868 20.5696C263.808 20.5526 263.732 20.5327 263.638 20.5099C263.544 20.4844 263.43 20.4716 263.297 20.4716C262.987 20.4716 262.766 20.5483 262.632 20.7017C262.501 20.8551 262.436 21.0767 262.436 21.3665V28.5H261.162ZM267.661 28.6321C267.047 28.6321 266.511 28.4915 266.054 28.2102C265.597 27.929 265.241 27.5355 264.989 27.0298C264.736 26.5241 264.609 25.9332 264.609 25.2571C264.609 24.5781 264.736 23.9844 264.989 23.4759C265.241 22.9673 265.597 22.5724 266.054 22.2912C266.511 22.0099 267.047 21.8693 267.661 21.8693C268.274 21.8693 268.81 22.0099 269.267 22.2912C269.724 22.5724 270.08 22.9673 270.332 23.4759C270.585 23.9844 270.712 24.5781 270.712 25.2571C270.712 25.9332 270.585 26.5241 270.332 27.0298C270.08 27.5355 269.724 27.929 269.267 28.2102C268.81 28.4915 268.274 28.6321 267.661 28.6321ZM267.665 27.5625C268.063 27.5625 268.392 27.4574 268.653 27.2472C268.915 27.0369 269.108 26.7571 269.233 26.4077C269.361 26.0582 269.425 25.6733 269.425 25.2528C269.425 24.8352 269.361 24.4517 269.233 24.1023C269.108 23.75 268.915 23.4673 268.653 23.2543C268.392 23.0412 268.063 22.9347 267.665 22.9347C267.264 22.9347 266.932 23.0412 266.668 23.2543C266.406 23.4673 266.212 23.75 266.084 24.1023C265.959 24.4517 265.896 24.8352 265.896 25.2528C265.896 25.6733 265.959 26.0582 266.084 26.4077C266.212 26.7571 266.406 27.0369 266.668 27.2472C266.932 27.4574 267.264 27.5625 267.665 27.5625ZM272.134 28.5V21.9545H273.365V22.9943H273.434C273.553 22.642 273.763 22.3651 274.064 22.1634C274.368 21.9588 274.712 21.8565 275.096 21.8565C275.175 21.8565 275.269 21.8594 275.377 21.8651C275.488 21.8707 275.574 21.8778 275.637 21.8864V23.1051C275.586 23.0909 275.495 23.0753 275.364 23.0582C275.233 23.0384 275.103 23.0284 274.972 23.0284C274.671 23.0284 274.402 23.0923 274.167 23.2202C273.934 23.3452 273.749 23.5199 273.613 23.7443C273.476 23.9659 273.408 24.2187 273.408 24.5028V28.5H272.134ZM279.326 28.6321C278.681 28.6321 278.126 28.4943 277.66 28.2188C277.197 27.9403 276.839 27.5497 276.586 27.0469C276.336 26.5412 276.211 25.9489 276.211 25.2699C276.211 24.5994 276.336 24.0085 276.586 23.4972C276.839 22.9858 277.191 22.5866 277.643 22.2997C278.097 22.0128 278.629 21.8693 279.237 21.8693C279.606 21.8693 279.964 21.9304 280.31 22.0526C280.657 22.1747 280.968 22.3665 281.244 22.6278C281.519 22.8892 281.737 23.2287 281.896 23.6463C282.055 24.0611 282.134 24.5653 282.134 25.1591V25.6108H276.931V24.6562H280.886C280.886 24.321 280.817 24.0241 280.681 23.7656C280.545 23.5043 280.353 23.2983 280.106 23.1477C279.862 22.9972 279.575 22.9219 279.245 22.9219C278.887 22.9219 278.575 23.0099 278.308 23.1861C278.043 23.3594 277.839 23.5866 277.694 23.8679C277.552 24.1463 277.481 24.4489 277.481 24.7756V25.5213C277.481 25.9588 277.558 26.331 277.711 26.6378C277.867 26.9446 278.085 27.179 278.363 27.3409C278.641 27.5 278.967 27.5795 279.339 27.5795C279.58 27.5795 279.8 27.5455 279.999 27.4773C280.198 27.4062 280.37 27.3011 280.515 27.1619C280.66 27.0227 280.771 26.8509 280.847 26.6463L282.053 26.8636C281.957 27.2187 281.783 27.5298 281.533 27.7969C281.286 28.0611 280.975 28.267 280.6 28.4148C280.228 28.5597 279.803 28.6321 279.326 28.6321ZM287.998 19.7727V28.5H286.724V19.7727H287.998ZM291.617 28.6449C291.202 28.6449 290.827 28.5682 290.492 28.4148C290.157 28.2585 289.891 28.0327 289.695 27.7372C289.502 27.4418 289.405 27.0795 289.405 26.6506C289.405 26.2812 289.476 25.9773 289.618 25.7386C289.76 25.5 289.952 25.3111 290.194 25.1719C290.435 25.0327 290.705 24.9276 291.003 24.8565C291.301 24.7855 291.605 24.7315 291.915 24.6946C292.307 24.6491 292.625 24.6122 292.87 24.5838C293.114 24.5526 293.292 24.5028 293.402 24.4347C293.513 24.3665 293.569 24.2557 293.569 24.1023V24.0724C293.569 23.7003 293.463 23.4119 293.253 23.2074C293.046 23.0028 292.736 22.9006 292.324 22.9006C291.895 22.9006 291.557 22.9957 291.31 23.1861C291.066 23.3736 290.897 23.5824 290.803 23.8125L289.605 23.5398C289.748 23.142 289.955 22.821 290.228 22.5767C290.503 22.3295 290.82 22.1506 291.178 22.0398C291.536 21.9261 291.912 21.8693 292.307 21.8693C292.569 21.8693 292.846 21.9006 293.138 21.9631C293.434 22.0227 293.709 22.1335 293.965 22.2955C294.223 22.4574 294.435 22.6889 294.6 22.9901C294.765 23.2884 294.847 23.6761 294.847 24.1534V28.5H293.603V27.6051H293.551C293.469 27.7699 293.346 27.9318 293.181 28.0909C293.016 28.25 292.804 28.3821 292.546 28.4872C292.287 28.5923 291.978 28.6449 291.617 28.6449ZM291.894 27.6222C292.246 27.6222 292.547 27.5526 292.797 27.4134C293.05 27.2741 293.242 27.0923 293.373 26.8679C293.506 26.6406 293.573 26.3977 293.573 26.1392V25.2955C293.527 25.3409 293.439 25.3835 293.309 25.4233C293.181 25.4602 293.034 25.4929 292.87 25.5213C292.705 25.5469 292.544 25.571 292.388 25.5938C292.232 25.6136 292.101 25.6307 291.996 25.6449C291.749 25.6761 291.523 25.7287 291.319 25.8026C291.117 25.8764 290.955 25.983 290.833 26.1222C290.713 26.2585 290.654 26.4403 290.654 26.6676C290.654 26.983 290.77 27.2216 291.003 27.3835C291.236 27.5426 291.533 27.6222 291.894 27.6222ZM300.69 25.7855V21.9545H301.969V28.5H300.716V27.3665H300.648C300.497 27.7159 300.256 28.0071 299.923 28.2401C299.594 28.4702 299.183 28.5852 298.692 28.5852C298.271 28.5852 297.899 28.4929 297.575 28.3082C297.254 28.1207 297.001 27.8438 296.817 27.4773C296.635 27.1108 296.544 26.6577 296.544 26.1179V21.9545H297.818V25.9645C297.818 26.4105 297.942 26.7656 298.189 27.0298C298.436 27.294 298.757 27.4261 299.152 27.4261C299.391 27.4261 299.628 27.3665 299.864 27.2472C300.102 27.1278 300.3 26.9474 300.456 26.706C300.615 26.4645 300.693 26.1577 300.69 25.7855ZM304.955 24.6136V28.5H303.681V21.9545H304.904V23.0199H304.985C305.135 22.6733 305.371 22.3949 305.692 22.1847C306.016 21.9744 306.424 21.8693 306.915 21.8693C307.361 21.8693 307.752 21.9631 308.087 22.1506C308.422 22.3352 308.682 22.6108 308.867 22.9773C309.051 23.3437 309.144 23.7969 309.144 24.3366V28.5H307.87V24.4901C307.87 24.0156 307.746 23.6449 307.499 23.3778C307.252 23.108 306.912 22.973 306.48 22.973C306.185 22.973 305.922 23.0369 305.692 23.1648C305.465 23.2926 305.284 23.4801 305.151 23.7273C305.02 23.9716 304.955 24.267 304.955 24.6136ZM313.61 28.6321C312.976 28.6321 312.431 28.4886 311.973 28.2017C311.519 27.9119 311.169 27.5128 310.925 27.0043C310.681 26.4957 310.559 25.9134 310.559 25.2571C310.559 24.5923 310.684 24.0057 310.934 23.4972C311.184 22.9858 311.536 22.5866 311.99 22.2997C312.445 22.0128 312.98 21.8693 313.597 21.8693C314.094 21.8693 314.537 21.9616 314.926 22.1463C315.316 22.3281 315.63 22.5838 315.868 22.9134C316.11 23.2429 316.253 23.6278 316.299 24.0682H315.059C314.99 23.7614 314.834 23.4972 314.59 23.2756C314.348 23.054 314.025 22.9432 313.618 22.9432C313.263 22.9432 312.952 23.0369 312.685 23.2244C312.421 23.4091 312.215 23.6733 312.067 24.017C311.919 24.358 311.846 24.7614 311.846 25.2273C311.846 25.7045 311.918 26.1165 312.063 26.4631C312.208 26.8097 312.412 27.0781 312.676 27.2685C312.944 27.4588 313.257 27.554 313.618 27.554C313.86 27.554 314.078 27.5099 314.275 27.4219C314.473 27.331 314.64 27.2017 314.773 27.0341C314.909 26.8665 315.005 26.6648 315.059 26.429H316.299C316.253 26.8523 316.115 27.2301 315.885 27.5625C315.655 27.8949 315.347 28.1562 314.961 28.3466C314.577 28.5369 314.127 28.6321 313.61 28.6321ZM318.935 24.6136V28.5H317.661V19.7727H318.918V23.0199H318.999C319.153 22.6676 319.387 22.3878 319.702 22.1804C320.018 21.973 320.43 21.8693 320.938 21.8693C321.387 21.8693 321.779 21.9616 322.114 22.1463C322.452 22.331 322.714 22.6065 322.898 22.973C323.086 23.3366 323.18 23.7912 323.18 24.3366V28.5H321.906V24.4901C321.906 24.0099 321.782 23.6378 321.535 23.3736C321.288 23.1065 320.944 22.973 320.504 22.973C320.202 22.973 319.933 23.0369 319.694 23.1648C319.458 23.2926 319.272 23.4801 319.136 23.7273C319.002 23.9716 318.935 24.267 318.935 24.6136Z" fill="#71717A"/>
<g filter="url(#filter1_dd_2134_15158)">
<rect x="48" y="79.9" width="61" height="24" rx="7.2" fill="#FB923C"/>
<rect x="48.6" y="80.5" width="59.8" height="22.8" rx="6.6" stroke="#FB923C" stroke-width="1.2"/>
<path d="M61.9531 89.4654C61.9077 89.062 61.7202 88.7495 61.3906 88.5279C61.0611 88.3034 60.6463 88.1912 60.1463 88.1912C59.7884 88.1912 59.4787 88.248 59.2173 88.3617C58.956 88.4725 58.7528 88.6259 58.608 88.8219C58.4659 89.0151 58.3949 89.2353 58.3949 89.4824C58.3949 89.6898 58.4432 89.8688 58.5398 90.0193C58.6392 90.1699 58.7685 90.2963 58.9276 90.3986C59.0895 90.498 59.2628 90.5818 59.4474 90.65C59.6321 90.7154 59.8097 90.7693 59.9801 90.812L60.8324 91.0335C61.1108 91.1017 61.3963 91.1941 61.6889 91.3105C61.9815 91.427 62.2528 91.5804 62.5028 91.7708C62.7528 91.9611 62.9545 92.1969 63.108 92.4781C63.2642 92.7594 63.3423 93.096 63.3423 93.4881C63.3423 93.9824 63.2145 94.4213 62.9588 94.8049C62.706 95.1884 62.3381 95.4909 61.8551 95.7125C61.375 95.9341 60.794 96.0449 60.1122 96.0449C59.4588 96.0449 58.8935 95.9412 58.4162 95.7338C57.9389 95.5264 57.5653 95.2324 57.2955 94.8517C57.0256 94.4682 56.8764 94.0137 56.848 93.4881H58.169C58.1946 93.8034 58.2969 94.0662 58.4759 94.2764C58.6577 94.4838 58.8892 94.6387 59.1705 94.7409C59.4545 94.8404 59.7656 94.8901 60.1037 94.8901C60.4759 94.8901 60.8068 94.8318 61.0966 94.7154C61.3892 94.596 61.6193 94.4313 61.7869 94.221C61.9545 94.008 62.0384 93.7594 62.0384 93.4753C62.0384 93.2168 61.9645 93.0051 61.8168 92.8404C61.6719 92.6756 61.4744 92.5392 61.2244 92.4313C60.9773 92.3233 60.6974 92.2281 60.3849 92.1458L59.3537 91.8645C58.6548 91.6742 58.1009 91.3943 57.6918 91.025C57.2855 90.6557 57.0824 90.1671 57.0824 89.5591C57.0824 89.0563 57.2188 88.6174 57.4915 88.2424C57.7642 87.8674 58.1335 87.5762 58.5994 87.3688C59.0653 87.1585 59.5909 87.0534 60.1761 87.0534C60.767 87.0534 61.2884 87.1571 61.7401 87.3645C62.1946 87.5719 62.5526 87.8574 62.8139 88.221C63.0753 88.5818 63.2116 88.9966 63.223 89.4654H61.9531ZM67.5707 96.0321C66.957 96.0321 66.4215 95.8915 65.9641 95.6103C65.5067 95.329 65.1516 94.9355 64.8988 94.4299C64.646 93.9242 64.5195 93.3333 64.5195 92.6571C64.5195 91.9781 64.646 91.3844 64.8988 90.8759C65.1516 90.3674 65.5067 89.9725 65.9641 89.6912C66.4215 89.41 66.957 89.2693 67.5707 89.2693C68.1843 89.2693 68.7198 89.41 69.1772 89.6912C69.6346 89.9725 69.9897 90.3674 70.2425 90.8759C70.4954 91.3844 70.6218 91.9781 70.6218 92.6571C70.6218 93.3333 70.4954 93.9242 70.2425 94.4299C69.9897 94.9355 69.6346 95.329 69.1772 95.6103C68.7198 95.8915 68.1843 96.0321 67.5707 96.0321ZM67.5749 94.9625C67.9727 94.9625 68.3022 94.8574 68.5636 94.6472C68.8249 94.437 69.0181 94.1571 69.1431 93.8077C69.271 93.4583 69.3349 93.0733 69.3349 92.6529C69.3349 92.2353 69.271 91.8517 69.1431 91.5023C69.0181 91.15 68.8249 90.8674 68.5636 90.6543C68.3022 90.4412 67.9727 90.3347 67.5749 90.3347C67.1744 90.3347 66.842 90.4412 66.5778 90.6543C66.3164 90.8674 66.1218 91.15 65.994 91.5023C65.869 91.8517 65.8065 92.2353 65.8065 92.6529C65.8065 93.0733 65.869 93.4583 65.994 93.8077C66.1218 94.1571 66.3164 94.437 66.5778 94.6472C66.842 94.8574 67.1744 94.9625 67.5749 94.9625ZM75.1591 89.3546V90.3773H71.4602V89.3546H75.1591ZM72.4744 95.9V88.596C72.4744 88.187 72.5639 87.8475 72.7429 87.5776C72.9219 87.3049 73.1591 87.1017 73.4545 86.9682C73.75 86.8318 74.071 86.7637 74.4176 86.7637C74.6733 86.7637 74.892 86.785 75.0739 86.8276C75.2557 86.8674 75.3906 86.9043 75.4787 86.9384L75.1804 87.9696C75.1207 87.9526 75.044 87.9327 74.9503 87.91C74.8565 87.8844 74.7429 87.8716 74.6094 87.8716C74.2997 87.8716 74.0781 87.9483 73.9446 88.1017C73.8139 88.2551 73.7486 88.4767 73.7486 88.7665V95.9H72.4744ZM76.4737 95.9V89.3546H77.7479V95.9H76.4737ZM77.1172 88.3446C76.8956 88.3446 76.7053 88.2708 76.5462 88.123C76.3899 87.9725 76.3118 87.7935 76.3118 87.5861C76.3118 87.3759 76.3899 87.1969 76.5462 87.0492C76.7053 86.8986 76.8956 86.8233 77.1172 86.8233C77.3388 86.8233 77.5277 86.8986 77.6839 87.0492C77.843 87.1969 77.9226 87.3759 77.9226 87.5861C77.9226 87.7935 77.843 87.9725 77.6839 88.123C77.5277 88.2708 77.3388 88.3446 77.1172 88.3446ZM81.3668 96.0449C80.9521 96.0449 80.5771 95.9682 80.2418 95.8148C79.9066 95.6585 79.641 95.4327 79.445 95.1372C79.2518 94.8418 79.1552 94.4796 79.1552 94.0506C79.1552 93.6813 79.2262 93.3773 79.3683 93.1387C79.5103 92.9 79.7021 92.7111 79.9435 92.5719C80.185 92.4327 80.4549 92.3276 80.7532 92.2566C81.0515 92.1855 81.3555 92.1316 81.6651 92.0946C82.0572 92.0492 82.3754 92.0122 82.6197 91.9838C82.864 91.9526 83.0415 91.9029 83.1523 91.8347C83.2631 91.7665 83.3185 91.6557 83.3185 91.5023V91.4725C83.3185 91.1003 83.2134 90.812 83.0032 90.6074C82.7958 90.4029 82.4862 90.3006 82.0742 90.3006C81.6452 90.3006 81.3072 90.3958 81.06 90.5861C80.8157 90.7736 80.6467 90.9824 80.5529 91.2125L79.3555 90.9398C79.4975 90.5421 79.7049 90.221 79.9776 89.9767C80.2532 89.7296 80.57 89.5506 80.9279 89.4398C81.2859 89.3262 81.6623 89.2693 82.0572 89.2693C82.3185 89.2693 82.5955 89.3006 82.8881 89.3631C83.1836 89.4228 83.4592 89.5335 83.7148 89.6955C83.9734 89.8574 84.185 90.0889 84.3498 90.3901C84.5146 90.6884 84.5969 91.0762 84.5969 91.5534V95.9H83.3526V95.0051H83.3015C83.2191 95.1699 83.0955 95.3318 82.9308 95.4909C82.766 95.65 82.5543 95.7821 82.2958 95.8872C82.0373 95.9924 81.7276 96.0449 81.3668 96.0449ZM81.6438 95.0222C81.9961 95.0222 82.2972 94.9526 82.5472 94.8134C82.8001 94.6742 82.9918 94.4924 83.1225 94.2679C83.256 94.0406 83.3228 93.7978 83.3228 93.5392V92.6955C83.2773 92.7409 83.1893 92.7835 83.0586 92.8233C82.9308 92.8603 82.7844 92.8929 82.6197 92.9213C82.4549 92.9469 82.2944 92.971 82.1381 92.9938C81.9819 93.0137 81.8512 93.0307 81.7461 93.0449C81.4989 93.0762 81.2731 93.1287 81.0685 93.2026C80.8668 93.2764 80.7049 93.383 80.5827 93.5222C80.4634 93.6585 80.4038 93.8404 80.4038 94.0676C80.4038 94.383 80.5202 94.6216 80.7532 94.7835C80.9862 94.9426 81.283 95.0222 81.6438 95.0222ZM95.4783 89.9299C95.396 89.6713 95.2852 89.4398 95.146 89.2353C95.0096 89.0279 94.8462 88.8517 94.6559 88.7068C94.4656 88.5591 94.2482 88.4469 94.0039 88.3702C93.7624 88.2935 93.4968 88.2551 93.207 88.2551C92.7156 88.2551 92.2724 88.3816 91.8775 88.6344C91.4826 88.8872 91.1701 89.258 90.94 89.7466C90.7127 90.2324 90.5991 90.8276 90.5991 91.5321C90.5991 92.2395 90.7141 92.8375 90.9442 93.3262C91.1744 93.8148 91.4897 94.1855 91.8903 94.4384C92.2908 94.6912 92.7468 94.8176 93.2582 94.8176C93.7326 94.8176 94.146 94.721 94.4982 94.5279C94.8533 94.3347 95.1275 94.062 95.3207 93.7097C95.5167 93.3546 95.6147 92.937 95.6147 92.4568L95.9556 92.5208H93.4585V91.4341H96.8888V92.427C96.8888 93.16 96.7326 93.7963 96.4201 94.3361C96.1104 94.873 95.6815 95.2878 95.1332 95.5804C94.5877 95.873 93.9627 96.0193 93.2582 96.0193C92.4684 96.0193 91.7752 95.8375 91.1786 95.4739C90.5849 95.1103 90.1218 94.5946 89.7894 93.927C89.457 93.2566 89.2908 92.4611 89.2908 91.5406C89.2908 90.8446 89.3874 90.2196 89.5806 89.6656C89.7738 89.1117 90.0451 88.6415 90.3945 88.2551C90.7468 87.8659 91.1602 87.5691 91.6346 87.3645C92.1119 87.1571 92.6332 87.0534 93.1985 87.0534C93.6701 87.0534 94.109 87.123 94.5153 87.2622C94.9244 87.4014 95.288 87.5989 95.6062 87.8546C95.9272 88.1103 96.1928 88.4142 96.4031 88.7665C96.6133 89.1159 96.7553 89.5037 96.8292 89.9299H95.4783ZM99.2976 95.981C99.0646 95.981 98.8643 95.8986 98.6967 95.7338C98.5291 95.5662 98.4453 95.3645 98.4453 95.1287C98.4453 94.8958 98.5291 94.6969 98.6967 94.5321C98.8643 94.3645 99.0646 94.2807 99.2976 94.2807C99.5305 94.2807 99.7308 94.3645 99.8984 94.5321C100.066 94.6969 100.15 94.8958 100.15 95.1287C100.15 95.285 100.11 95.4284 100.031 95.5591C99.9538 95.687 99.8516 95.7892 99.7237 95.8659C99.5959 95.9426 99.4538 95.981 99.2976 95.981Z" fill="#09090B"/>
</g>
<path d="M116.6 60.8457C116.6 59.7766 115.307 59.2412 114.552 59.9971L101.497 73.0518C100.741 73.8077 101.277 75.0995 102.345 75.0996H108.502C109.138 75.0997 109.749 75.3527 110.199 75.8027L114.552 80.1562C115.307 80.9118 116.6 80.3764 116.6 79.3076V60.8457Z" stroke="#FB923C" stroke-width="1.2"/>
<defs>
<filter id="filter0_dd_2134_15158" x="286" y="217.042" width="101" height="84.8582" filterUnits="userSpaceOnUse" color-interpolation-filters="sRGB">
<feFlood flood-opacity="0" result="BackgroundImageFix"/>
<feColorMatrix in="SourceAlpha" type="matrix" values="0 0 0 0 0 0 0 0 0 0 0 0 0 0 0 0 0 0 127 0" result="hardAlpha"/>
<feMorphology radius="5" operator="erode" in="SourceAlpha" result="effect1_dropShadow_2134_15158"/>
<feOffset dy="20"/>
<feGaussianBlur stdDeviation="12.5"/>
<feComposite in2="hardAlpha" operator="out"/>
<feColorMatrix type="matrix" values="0 0 0 0 0 0 0 0 0 0 0 0 0 0 0 0 0 0 0.1 0"/>
<feBlend mode="normal" in2="BackgroundImageFix" result="effect1_dropShadow_2134_15158"/>
<feColorMatrix in="SourceAlpha" type="matrix" values="0 0 0 0 0 0 0 0 0 0 0 0 0 0 0 0 0 0 127 0" result="hardAlpha"/>
<feMorphology radius="6" operator="erode" in="SourceAlpha" result="effect2_dropShadow_2134_15158"/>
<feOffset dy="8"/>
<feGaussianBlur stdDeviation="5"/>
<feComposite in2="hardAlpha" operator="out"/>
<feColorMatrix type="matrix" values="0 0 0 0 0 0 0 0 0 0 0 0 0 0 0 0 0 0 0.1 0"/>
<feBlend mode="normal" in2="effect1_dropShadow_2134_15158" result="effect2_dropShadow_2134_15158"/>
<feBlend mode="normal" in="SourceGraphic" in2="effect2_dropShadow_2134_15158" result="shape"/>
</filter>
<filter id="filter1_dd_2134_15158" x="-16" y="15.9" width="189" height="152" filterUnits="userSpaceOnUse" color-interpolation-filters="sRGB">
<feFlood flood-opacity="0" result="BackgroundImageFix"/>
<feColorMatrix in="SourceAlpha" type="matrix" values="0 0 0 0 0 0 0 0 0 0 0 0 0 0 0 0 0 0 127 0" result="hardAlpha"/>
<feOffset/>
<feGaussianBlur stdDeviation="32"/>
<feColorMatrix type="matrix" values="0 0 0 0 0.992157 0 0 0 0 0.729412 0 0 0 0 0.454902 0 0 0 1 0"/>
<feBlend mode="normal" in2="BackgroundImageFix" result="effect1_dropShadow_2134_15158"/>
<feColorMatrix in="SourceAlpha" type="matrix" values="0 0 0 0 0 0 0 0 0 0 0 0 0 0 0 0 0 0 127 0" result="hardAlpha"/>
<feOffset/>
<feGaussianBlur stdDeviation="4"/>
<feColorMatrix type="matrix" values="0 0 0 0 0.992157 0 0 0 0 0.729412 0 0 0 0 0.454902 0 0 0 0.5 0"/>
<feBlend mode="normal" in2="effect1_dropShadow_2134_15158" result="effect2_dropShadow_2134_15158"/>
<feBlend mode="normal" in="SourceGraphic" in2="effect2_dropShadow_2134_15158" result="shape"/>
</filter>
<linearGradient id="paint0_linear_2134_15158" x1="384" y1="179.5" x2="384" y2="147.5" gradientUnits="userSpaceOnUse">
<stop stop-color="#09090B" stop-opacity="0.05"/>
<stop offset="1" stop-color="#09090B" stop-opacity="0.1"/>
</linearGradient>
<linearGradient id="paint1_linear_2134_15158" x1="384" y1="147.5" x2="384" y2="179.5" gradientUnits="userSpaceOnUse">
<stop stop-color="#09090B" stop-opacity="0.2"/>
<stop offset="0.16" stop-color="#09090B" stop-opacity="0.05"/>
<stop offset="0.86" stop-color="#09090B" stop-opacity="0.05"/>
<stop offset="1" stop-color="#09090B" stop-opacity="0"/>
</linearGradient>
<linearGradient id="paint2_linear_2134_15158" x1="483" y1="219.5" x2="483" y2="187.5" gradientUnits="userSpaceOnUse">
<stop stop-color="#09090B" stop-opacity="0.05"/>
<stop offset="1" stop-color="#09090B" stop-opacity="0.1"/>
</linearGradient>
<linearGradient id="paint3_linear_2134_15158" x1="483" y1="187.5" x2="483" y2="219.5" gradientUnits="userSpaceOnUse">
<stop stop-color="#09090B" stop-opacity="0.2"/>
<stop offset="0.16" stop-color="#09090B" stop-opacity="0.05"/>
<stop offset="0.86" stop-color="#09090B" stop-opacity="0.05"/>
<stop offset="1" stop-color="#09090B" stop-opacity="0"/>
</linearGradient>
<linearGradient id="paint4_linear_2134_15158" x1="192.5" y1="40.5" x2="192.5" y2="8.5" gradientUnits="userSpaceOnUse">
<stop stop-color="#09090B" stop-opacity="0.05"/>
<stop offset="1" stop-color="#09090B" stop-opacity="0.1"/>
</linearGradient>
<linearGradient id="paint5_linear_2134_15158" x1="192.5" y1="8.5" x2="192.5" y2="40.5" gradientUnits="userSpaceOnUse">
<stop stop-color="#09090B" stop-opacity="0.2"/>
<stop offset="0.16" stop-color="#09090B" stop-opacity="0.05"/>
<stop offset="0.86" stop-color="#09090B" stop-opacity="0.05"/>
<stop offset="1" stop-color="#09090B" stop-opacity="0"/>
</linearGradient>
</defs>
</svg>
