<svg width="448" height="368" viewBox="0 0 448 368" fill="none" xmlns="http://www.w3.org/2000/svg">
<path d="M180 201H412C418.351 201 423.5 206.149 423.5 212.5V220.5C423.5 226.851 418.351 232 412 232H180C173.649 232 168.5 226.851 168.5 220.5V212.5C168.5 206.149 173.649 201 180 201Z" fill="url(#paint0_linear_49_750)"/>
<path d="M180 201H412C418.351 201 423.5 206.149 423.5 212.5V220.5C423.5 226.851 418.351 232 412 232H180C173.649 232 168.5 226.851 168.5 220.5V212.5C168.5 206.149 173.649 201 180 201Z" stroke="url(#paint1_linear_49_750)"/>
<path d="M180.959 220.5V211.773H182.276V219.366H186.23V220.5H180.959ZM190.451 220.632C189.806 220.632 189.251 220.494 188.785 220.219C188.322 219.94 187.964 219.55 187.711 219.047C187.461 218.541 187.336 217.949 187.336 217.27C187.336 216.599 187.461 216.009 187.711 215.497C187.964 214.986 188.316 214.587 188.768 214.3C189.222 214.013 189.754 213.869 190.362 213.869C190.731 213.869 191.089 213.93 191.435 214.053C191.782 214.175 192.093 214.366 192.369 214.628C192.644 214.889 192.862 215.229 193.021 215.646C193.18 216.061 193.259 216.565 193.259 217.159V217.611H188.056V216.656H192.011C192.011 216.321 191.942 216.024 191.806 215.766C191.67 215.504 191.478 215.298 191.231 215.148C190.987 214.997 190.7 214.922 190.37 214.922C190.012 214.922 189.7 215.01 189.433 215.186C189.168 215.359 188.964 215.587 188.819 215.868C188.677 216.146 188.606 216.449 188.606 216.776V217.521C188.606 217.959 188.683 218.331 188.836 218.638C188.992 218.945 189.21 219.179 189.488 219.341C189.766 219.5 190.092 219.58 190.464 219.58C190.705 219.58 190.925 219.545 191.124 219.477C191.323 219.406 191.495 219.301 191.64 219.162C191.785 219.023 191.896 218.851 191.972 218.646L193.178 218.864C193.082 219.219 192.908 219.53 192.658 219.797C192.411 220.061 192.1 220.267 191.725 220.415C191.353 220.56 190.928 220.632 190.451 220.632ZM197.728 213.955V214.977H194.153V213.955H197.728ZM195.112 212.386H196.386V218.578C196.386 218.825 196.423 219.011 196.497 219.136C196.571 219.259 196.666 219.342 196.782 219.388C196.902 219.43 197.031 219.452 197.17 219.452C197.272 219.452 197.362 219.445 197.439 219.43C197.515 219.416 197.575 219.405 197.618 219.396L197.848 220.449C197.774 220.477 197.669 220.506 197.532 220.534C197.396 220.565 197.225 220.582 197.021 220.585C196.686 220.591 196.373 220.531 196.083 220.406C195.794 220.281 195.559 220.088 195.38 219.827C195.201 219.565 195.112 219.237 195.112 218.842V212.386ZM202.314 220.5V213.955H203.537V215.02H203.618C203.754 214.659 203.977 214.378 204.287 214.176C204.596 213.972 204.967 213.869 205.399 213.869C205.836 213.869 206.203 213.972 206.498 214.176C206.797 214.381 207.017 214.662 207.159 215.02H207.227C207.383 214.67 207.632 214.392 207.973 214.185C208.314 213.974 208.72 213.869 209.191 213.869C209.785 213.869 210.27 214.055 210.645 214.428C211.022 214.8 211.211 215.361 211.211 216.111V220.5H209.937V216.23C209.937 215.787 209.816 215.466 209.575 215.267C209.333 215.068 209.045 214.969 208.71 214.969C208.295 214.969 207.973 215.097 207.743 215.352C207.512 215.605 207.397 215.93 207.397 216.328V220.5H206.127V216.149C206.127 215.794 206.017 215.509 205.795 215.293C205.574 215.077 205.285 214.969 204.93 214.969C204.689 214.969 204.466 215.033 204.261 215.161C204.059 215.286 203.896 215.46 203.771 215.685C203.649 215.909 203.588 216.169 203.588 216.464V220.5H202.314ZM215.74 220.632C215.095 220.632 214.54 220.494 214.074 220.219C213.611 219.94 213.253 219.55 213 219.047C212.75 218.541 212.625 217.949 212.625 217.27C212.625 216.599 212.75 216.009 213 215.497C213.253 214.986 213.605 214.587 214.057 214.3C214.511 214.013 215.043 213.869 215.651 213.869C216.02 213.869 216.378 213.93 216.724 214.053C217.071 214.175 217.382 214.366 217.658 214.628C217.933 214.889 218.151 215.229 218.31 215.646C218.469 216.061 218.548 216.565 218.548 217.159V217.611H213.345V216.656H217.3C217.3 216.321 217.232 216.024 217.095 215.766C216.959 215.504 216.767 215.298 216.52 215.148C216.276 214.997 215.989 214.922 215.659 214.922C215.301 214.922 214.989 215.01 214.722 215.186C214.457 215.359 214.253 215.587 214.108 215.868C213.966 216.146 213.895 216.449 213.895 216.776V217.521C213.895 217.959 213.972 218.331 214.125 218.638C214.281 218.945 214.499 219.179 214.777 219.341C215.055 219.5 215.381 219.58 215.753 219.58C215.994 219.58 216.214 219.545 216.413 219.477C216.612 219.406 216.784 219.301 216.929 219.162C217.074 219.023 217.185 218.851 217.261 218.646L218.467 218.864C218.371 219.219 218.197 219.53 217.947 219.797C217.7 220.061 217.389 220.267 217.014 220.415C216.642 220.56 216.217 220.632 215.74 220.632ZM227.557 222.955V219.482H227.48C227.403 219.621 227.293 219.78 227.148 219.959C227.006 220.138 226.81 220.294 226.56 220.428C226.31 220.561 225.986 220.628 225.588 220.628C225.06 220.628 224.588 220.493 224.173 220.223C223.761 219.95 223.438 219.562 223.202 219.06C222.969 218.554 222.852 217.947 222.852 217.24C222.852 216.533 222.97 215.928 223.206 215.425C223.445 214.922 223.771 214.537 224.186 214.27C224.601 214.003 225.071 213.869 225.597 213.869C226.003 213.869 226.33 213.938 226.577 214.074C226.827 214.207 227.02 214.364 227.156 214.543C227.295 214.722 227.403 214.879 227.48 215.016H227.587V213.955H228.831V222.955H227.557ZM225.869 219.541C226.236 219.541 226.545 219.445 226.798 219.251C227.054 219.055 227.247 218.784 227.378 218.438C227.511 218.091 227.578 217.687 227.578 217.227C227.578 216.773 227.513 216.375 227.382 216.034C227.251 215.693 227.06 215.428 226.807 215.237C226.554 215.047 226.241 214.952 225.869 214.952C225.486 214.952 225.166 215.051 224.911 215.25C224.655 215.449 224.462 215.72 224.331 216.064C224.203 216.408 224.139 216.795 224.139 217.227C224.139 217.665 224.205 218.058 224.335 218.408C224.466 218.757 224.659 219.034 224.915 219.239C225.173 219.44 225.491 219.541 225.869 219.541ZM234.69 217.786V213.955H235.969V220.5H234.716V219.366H234.648C234.497 219.716 234.256 220.007 233.923 220.24C233.594 220.47 233.183 220.585 232.692 220.585C232.271 220.585 231.899 220.493 231.575 220.308C231.254 220.121 231.001 219.844 230.817 219.477C230.635 219.111 230.544 218.658 230.544 218.118V213.955H231.818V217.964C231.818 218.411 231.942 218.766 232.189 219.03C232.436 219.294 232.757 219.426 233.152 219.426C233.391 219.426 233.628 219.366 233.864 219.247C234.102 219.128 234.3 218.947 234.456 218.706C234.615 218.464 234.693 218.158 234.69 217.786ZM237.681 220.5V213.955H238.955V220.5H237.681ZM238.324 212.945C238.103 212.945 237.912 212.871 237.753 212.723C237.597 212.572 237.519 212.393 237.519 212.186C237.519 211.976 237.597 211.797 237.753 211.649C237.912 211.499 238.103 211.423 238.324 211.423C238.546 211.423 238.735 211.499 238.891 211.649C239.05 211.797 239.13 211.976 239.13 212.186C239.13 212.393 239.05 212.572 238.891 212.723C238.735 212.871 238.546 212.945 238.324 212.945ZM243.426 220.632C242.793 220.632 242.247 220.489 241.79 220.202C241.335 219.912 240.986 219.513 240.741 219.004C240.497 218.496 240.375 217.913 240.375 217.257C240.375 216.592 240.5 216.006 240.75 215.497C241 214.986 241.352 214.587 241.807 214.3C242.261 214.013 242.797 213.869 243.413 213.869C243.911 213.869 244.354 213.962 244.743 214.146C245.132 214.328 245.446 214.584 245.685 214.913C245.926 215.243 246.07 215.628 246.115 216.068H244.875C244.807 215.761 244.651 215.497 244.406 215.276C244.165 215.054 243.841 214.943 243.435 214.943C243.08 214.943 242.768 215.037 242.501 215.224C242.237 215.409 242.031 215.673 241.884 216.017C241.736 216.358 241.662 216.761 241.662 217.227C241.662 217.705 241.734 218.116 241.879 218.463C242.024 218.81 242.229 219.078 242.493 219.268C242.76 219.459 243.074 219.554 243.435 219.554C243.676 219.554 243.895 219.51 244.091 219.422C244.29 219.331 244.456 219.202 244.589 219.034C244.726 218.866 244.821 218.665 244.875 218.429H246.115C246.07 218.852 245.932 219.23 245.702 219.562C245.472 219.895 245.163 220.156 244.777 220.347C244.393 220.537 243.943 220.632 243.426 220.632ZM248.65 218.28L248.641 216.724H248.863L251.471 213.955H252.996L250.022 217.108H249.821L248.65 218.28ZM247.478 220.5V211.773H248.752V220.5H247.478ZM251.611 220.5L249.267 217.389L250.145 216.499L253.175 220.5H251.611ZM255.431 211.773V220.5H254.157V211.773H255.431ZM257.951 222.955C257.761 222.955 257.587 222.939 257.431 222.908C257.275 222.879 257.158 222.848 257.082 222.814L257.388 221.77C257.621 221.832 257.829 221.859 258.011 221.851C258.192 221.842 258.353 221.774 258.492 221.646C258.634 221.518 258.759 221.31 258.867 221.02L259.025 220.585L256.63 213.955H257.994L259.651 219.034H259.719L261.377 213.955H262.745L260.048 221.374C259.923 221.714 259.763 222.003 259.57 222.239C259.377 222.477 259.147 222.656 258.88 222.776C258.613 222.895 258.303 222.955 257.951 222.955ZM267.118 213.955H268.392V220.926C268.392 221.364 268.313 221.733 268.154 222.034C267.998 222.335 267.765 222.564 267.455 222.72C267.148 222.876 266.769 222.955 266.317 222.955C266.272 222.955 266.229 222.955 266.189 222.955C266.147 222.955 266.103 222.953 266.057 222.95V221.855C266.097 221.855 266.132 221.855 266.164 221.855C266.192 221.855 266.225 221.855 266.262 221.855C266.563 221.855 266.78 221.774 266.914 221.612C267.05 221.453 267.118 221.222 267.118 220.918V213.955ZM267.749 212.945C267.527 212.945 267.337 212.871 267.178 212.723C267.022 212.572 266.944 212.393 266.944 212.186C266.944 211.976 267.022 211.797 267.178 211.649C267.337 211.499 267.527 211.423 267.749 211.423C267.971 211.423 268.159 211.499 268.316 211.649C268.475 211.797 268.554 211.976 268.554 212.186C268.554 212.393 268.475 212.572 268.316 212.723C268.159 212.871 267.971 212.945 267.749 212.945ZM274.253 217.786V213.955H275.531V220.5H274.278V219.366H274.21C274.06 219.716 273.818 220.007 273.486 220.24C273.156 220.47 272.746 220.585 272.254 220.585C271.834 220.585 271.462 220.493 271.138 220.308C270.817 220.121 270.564 219.844 270.379 219.477C270.197 219.111 270.107 218.658 270.107 218.118V213.955H271.381V217.964C271.381 218.411 271.504 218.766 271.751 219.03C271.999 219.294 272.32 219.426 272.714 219.426C272.953 219.426 273.19 219.366 273.426 219.247C273.665 219.128 273.862 218.947 274.018 218.706C274.178 218.464 274.256 218.158 274.253 217.786ZM277.243 220.5V213.955H278.466V215.02H278.547C278.684 214.659 278.907 214.378 279.216 214.176C279.526 213.972 279.897 213.869 280.328 213.869C280.766 213.869 281.132 213.972 281.428 214.176C281.726 214.381 281.946 214.662 282.088 215.02H282.157C282.313 214.67 282.561 214.392 282.902 214.185C283.243 213.974 283.65 213.869 284.121 213.869C284.715 213.869 285.199 214.055 285.574 214.428C285.952 214.8 286.141 215.361 286.141 216.111V220.5H284.867V216.23C284.867 215.787 284.746 215.466 284.505 215.267C284.263 215.068 283.975 214.969 283.64 214.969C283.225 214.969 282.902 215.097 282.672 215.352C282.442 215.605 282.327 215.93 282.327 216.328V220.5H281.057V216.149C281.057 215.794 280.946 215.509 280.725 215.293C280.503 215.077 280.215 214.969 279.86 214.969C279.618 214.969 279.395 215.033 279.191 215.161C278.989 215.286 278.826 215.46 278.701 215.685C278.578 215.909 278.517 216.169 278.517 216.464V220.5H277.243ZM287.849 222.955V213.955H289.093V215.016H289.2C289.273 214.879 289.38 214.722 289.519 214.543C289.658 214.364 289.852 214.207 290.099 214.074C290.346 213.938 290.673 213.869 291.079 213.869C291.607 213.869 292.079 214.003 292.494 214.27C292.908 214.537 293.234 214.922 293.469 215.425C293.708 215.928 293.827 216.533 293.827 217.24C293.827 217.947 293.71 218.554 293.474 219.06C293.238 219.562 292.914 219.95 292.502 220.223C292.09 220.493 291.62 220.628 291.092 220.628C290.694 220.628 290.369 220.561 290.116 220.428C289.866 220.294 289.67 220.138 289.528 219.959C289.386 219.78 289.276 219.621 289.2 219.482H289.123V222.955H287.849ZM289.097 217.227C289.097 217.687 289.164 218.091 289.298 218.438C289.431 218.784 289.624 219.055 289.877 219.251C290.13 219.445 290.44 219.541 290.806 219.541C291.187 219.541 291.505 219.44 291.761 219.239C292.016 219.034 292.21 218.757 292.34 218.408C292.474 218.058 292.54 217.665 292.54 217.227C292.54 216.795 292.475 216.408 292.344 216.064C292.217 215.72 292.023 215.449 291.765 215.25C291.509 215.051 291.19 214.952 290.806 214.952C290.437 214.952 290.124 215.047 289.869 215.237C289.616 215.428 289.424 215.693 289.293 216.034C289.163 216.375 289.097 216.773 289.097 217.227ZM298.431 220.5V213.955H299.705V220.5H298.431ZM299.074 212.945C298.853 212.945 298.662 212.871 298.503 212.723C298.347 212.572 298.269 212.393 298.269 212.186C298.269 211.976 298.347 211.797 298.503 211.649C298.662 211.499 298.853 211.423 299.074 211.423C299.296 211.423 299.485 211.499 299.641 211.649C299.8 211.797 299.88 211.976 299.88 212.186C299.88 212.393 299.8 212.572 299.641 212.723C299.485 212.871 299.296 212.945 299.074 212.945ZM302.693 216.614V220.5H301.419V213.955H302.642V215.02H302.723C302.874 214.673 303.109 214.395 303.43 214.185C303.754 213.974 304.162 213.869 304.653 213.869C305.099 213.869 305.49 213.963 305.825 214.151C306.161 214.335 306.42 214.611 306.605 214.977C306.79 215.344 306.882 215.797 306.882 216.337V220.5H305.608V216.49C305.608 216.016 305.484 215.645 305.237 215.378C304.99 215.108 304.651 214.973 304.219 214.973C303.923 214.973 303.661 215.037 303.43 215.165C303.203 215.293 303.023 215.48 302.889 215.727C302.759 215.972 302.693 216.267 302.693 216.614ZM311.646 213.955V214.977H308.071V213.955H311.646ZM309.03 212.386H310.304V218.578C310.304 218.825 310.341 219.011 310.415 219.136C310.489 219.259 310.584 219.342 310.7 219.388C310.82 219.43 310.949 219.452 311.088 219.452C311.19 219.452 311.28 219.445 311.357 219.43C311.433 219.416 311.493 219.405 311.536 219.396L311.766 220.449C311.692 220.477 311.587 220.506 311.45 220.534C311.314 220.565 311.143 220.582 310.939 220.585C310.604 220.591 310.291 220.531 310.001 220.406C309.712 220.281 309.477 220.088 309.298 219.827C309.119 219.565 309.03 219.237 309.03 218.842V212.386ZM315.743 220.632C315.129 220.632 314.593 220.491 314.136 220.21C313.679 219.929 313.324 219.536 313.071 219.03C312.818 218.524 312.691 217.933 312.691 217.257C312.691 216.578 312.818 215.984 313.071 215.476C313.324 214.967 313.679 214.572 314.136 214.291C314.593 214.01 315.129 213.869 315.743 213.869C316.356 213.869 316.892 214.01 317.349 214.291C317.806 214.572 318.162 214.967 318.414 215.476C318.667 215.984 318.794 216.578 318.794 217.257C318.794 217.933 318.667 218.524 318.414 219.03C318.162 219.536 317.806 219.929 317.349 220.21C316.892 220.491 316.356 220.632 315.743 220.632ZM315.747 219.562C316.145 219.562 316.474 219.457 316.735 219.247C316.997 219.037 317.19 218.757 317.315 218.408C317.443 218.058 317.507 217.673 317.507 217.253C317.507 216.835 317.443 216.452 317.315 216.102C317.19 215.75 316.997 215.467 316.735 215.254C316.474 215.041 316.145 214.935 315.747 214.935C315.346 214.935 315.014 215.041 314.75 215.254C314.488 215.467 314.294 215.75 314.166 216.102C314.041 216.452 313.978 216.835 313.978 217.253C313.978 217.673 314.041 218.058 314.166 218.408C314.294 218.757 314.488 219.037 314.75 219.247C315.014 219.457 315.346 219.562 315.747 219.562ZM328.254 214.065C328.208 213.662 328.021 213.349 327.691 213.128C327.362 212.903 326.947 212.791 326.447 212.791C326.089 212.791 325.779 212.848 325.518 212.962C325.257 213.072 325.054 213.226 324.909 213.422C324.767 213.615 324.696 213.835 324.696 214.082C324.696 214.29 324.744 214.469 324.841 214.619C324.94 214.77 325.069 214.896 325.228 214.999C325.39 215.098 325.564 215.182 325.748 215.25C325.933 215.315 326.11 215.369 326.281 215.412L327.133 215.634C327.412 215.702 327.697 215.794 327.99 215.911C328.282 216.027 328.554 216.18 328.804 216.371C329.054 216.561 329.255 216.797 329.409 217.078C329.565 217.359 329.643 217.696 329.643 218.088C329.643 218.582 329.515 219.021 329.26 219.405C329.007 219.788 328.639 220.091 328.156 220.312C327.676 220.534 327.095 220.645 326.413 220.645C325.76 220.645 325.194 220.541 324.717 220.334C324.24 220.126 323.866 219.832 323.596 219.452C323.326 219.068 323.177 218.614 323.149 218.088H324.47C324.495 218.403 324.598 218.666 324.777 218.876C324.958 219.084 325.19 219.239 325.471 219.341C325.755 219.44 326.066 219.49 326.404 219.49C326.777 219.49 327.108 219.432 327.397 219.315C327.69 219.196 327.92 219.031 328.088 218.821C328.255 218.608 328.339 218.359 328.339 218.075C328.339 217.817 328.265 217.605 328.118 217.44C327.973 217.276 327.775 217.139 327.525 217.031C327.278 216.923 326.998 216.828 326.686 216.746L325.654 216.464C324.956 216.274 324.402 215.994 323.993 215.625C323.586 215.256 323.383 214.767 323.383 214.159C323.383 213.656 323.52 213.217 323.792 212.842C324.065 212.467 324.434 212.176 324.9 211.969C325.366 211.759 325.892 211.653 326.477 211.653C327.068 211.653 327.589 211.757 328.041 211.964C328.495 212.172 328.853 212.457 329.115 212.821C329.376 213.182 329.512 213.597 329.524 214.065H328.254ZM333.019 220.645C332.604 220.645 332.229 220.568 331.894 220.415C331.559 220.259 331.293 220.033 331.097 219.737C330.904 219.442 330.808 219.08 330.808 218.651C330.808 218.281 330.879 217.977 331.021 217.739C331.163 217.5 331.354 217.311 331.596 217.172C331.837 217.033 332.107 216.928 332.406 216.857C332.704 216.786 333.008 216.732 333.317 216.695C333.71 216.649 334.028 216.612 334.272 216.584C334.516 216.553 334.694 216.503 334.805 216.435C334.915 216.366 334.971 216.256 334.971 216.102V216.072C334.971 215.7 334.866 215.412 334.656 215.207C334.448 215.003 334.138 214.901 333.727 214.901C333.298 214.901 332.96 214.996 332.712 215.186C332.468 215.374 332.299 215.582 332.205 215.812L331.008 215.54C331.15 215.142 331.357 214.821 331.63 214.577C331.906 214.33 332.222 214.151 332.58 214.04C332.938 213.926 333.315 213.869 333.71 213.869C333.971 213.869 334.248 213.901 334.54 213.963C334.836 214.023 335.112 214.134 335.367 214.295C335.626 214.457 335.837 214.689 336.002 214.99C336.167 215.288 336.249 215.676 336.249 216.153V220.5H335.005V219.605H334.954C334.871 219.77 334.748 219.932 334.583 220.091C334.418 220.25 334.207 220.382 333.948 220.487C333.69 220.592 333.38 220.645 333.019 220.645ZM333.296 219.622C333.648 219.622 333.95 219.553 334.2 219.413C334.452 219.274 334.644 219.092 334.775 218.868C334.908 218.641 334.975 218.398 334.975 218.139V217.295C334.93 217.341 334.842 217.384 334.711 217.423C334.583 217.46 334.437 217.493 334.272 217.521C334.107 217.547 333.947 217.571 333.79 217.594C333.634 217.614 333.504 217.631 333.398 217.645C333.151 217.676 332.925 217.729 332.721 217.803C332.519 217.876 332.357 217.983 332.235 218.122C332.116 218.259 332.056 218.44 332.056 218.668C332.056 218.983 332.173 219.222 332.406 219.384C332.638 219.543 332.935 219.622 333.296 219.622ZM339.221 216.614V220.5H337.946V213.955H339.169V215.02H339.25C339.401 214.673 339.637 214.395 339.958 214.185C340.282 213.974 340.689 213.869 341.181 213.869C341.627 213.869 342.017 213.963 342.353 214.151C342.688 214.335 342.948 214.611 343.132 214.977C343.317 215.344 343.409 215.797 343.409 216.337V220.5H342.135V216.49C342.135 216.016 342.012 215.645 341.765 215.378C341.517 215.108 341.178 214.973 340.746 214.973C340.451 214.973 340.188 215.037 339.958 215.165C339.73 215.293 339.55 215.48 339.417 215.727C339.286 215.972 339.221 216.267 339.221 216.614ZM345.118 220.5V213.955H346.392V220.5H345.118ZM345.762 212.945C345.54 212.945 345.35 212.871 345.191 212.723C345.034 212.572 344.956 212.393 344.956 212.186C344.956 211.976 345.034 211.797 345.191 211.649C345.35 211.499 345.54 211.423 345.762 211.423C345.983 211.423 346.172 211.499 346.328 211.649C346.488 211.797 346.567 211.976 346.567 212.186C346.567 212.393 346.488 212.572 346.328 212.723C346.172 212.871 345.983 212.945 345.762 212.945ZM351.162 213.955V214.977H347.587V213.955H351.162ZM348.545 212.386H349.82V218.578C349.82 218.825 349.857 219.011 349.93 219.136C350.004 219.259 350.099 219.342 350.216 219.388C350.335 219.43 350.464 219.452 350.604 219.452C350.706 219.452 350.795 219.445 350.872 219.43C350.949 219.416 351.009 219.405 351.051 219.396L351.281 220.449C351.207 220.477 351.102 220.506 350.966 220.534C350.83 220.565 350.659 220.582 350.455 220.585C350.119 220.591 349.807 220.531 349.517 220.406C349.227 220.281 348.993 220.088 348.814 219.827C348.635 219.565 348.545 219.237 348.545 218.842V212.386ZM353.377 222.955C353.186 222.955 353.013 222.939 352.857 222.908C352.701 222.879 352.584 222.848 352.507 222.814L352.814 221.77C353.047 221.832 353.255 221.859 353.436 221.851C353.618 221.842 353.779 221.774 353.918 221.646C354.06 221.518 354.185 221.31 354.293 221.02L354.451 220.585L352.056 213.955H353.419L355.077 219.034H355.145L356.803 213.955H358.171L355.473 221.374C355.348 221.714 355.189 222.003 354.996 222.239C354.803 222.477 354.573 222.656 354.306 222.776C354.039 222.895 353.729 222.955 353.377 222.955ZM364.449 220.645C364.034 220.645 363.659 220.568 363.324 220.415C362.989 220.259 362.723 220.033 362.527 219.737C362.334 219.442 362.237 219.08 362.237 218.651C362.237 218.281 362.308 217.977 362.45 217.739C362.592 217.5 362.784 217.311 363.026 217.172C363.267 217.033 363.537 216.928 363.835 216.857C364.134 216.786 364.438 216.732 364.747 216.695C365.139 216.649 365.457 216.612 365.702 216.584C365.946 216.553 366.124 216.503 366.234 216.435C366.345 216.366 366.401 216.256 366.401 216.102V216.072C366.401 215.7 366.295 215.412 366.085 215.207C365.878 215.003 365.568 214.901 365.156 214.901C364.727 214.901 364.389 214.996 364.142 215.186C363.898 215.374 363.729 215.582 363.635 215.812L362.438 215.54C362.58 215.142 362.787 214.821 363.06 214.577C363.335 214.33 363.652 214.151 364.01 214.04C364.368 213.926 364.744 213.869 365.139 213.869C365.401 213.869 365.678 213.901 365.97 213.963C366.266 214.023 366.541 214.134 366.797 214.295C367.055 214.457 367.267 214.689 367.432 214.99C367.597 215.288 367.679 215.676 367.679 216.153V220.5H366.435V219.605H366.384C366.301 219.77 366.178 219.932 366.013 220.091C365.848 220.25 365.636 220.382 365.378 220.487C365.119 220.592 364.81 220.645 364.449 220.645ZM364.726 219.622C365.078 219.622 365.379 219.553 365.629 219.413C365.882 219.274 366.074 219.092 366.205 218.868C366.338 218.641 366.405 218.398 366.405 218.139V217.295C366.359 217.341 366.271 217.384 366.141 217.423C366.013 217.46 365.866 217.493 365.702 217.521C365.537 217.547 365.376 217.571 365.22 217.594C365.064 217.614 364.933 217.631 364.828 217.645C364.581 217.676 364.355 217.729 364.151 217.803C363.949 217.876 363.787 217.983 363.665 218.122C363.545 218.259 363.486 218.44 363.486 218.668C363.486 218.983 363.602 219.222 363.835 219.384C364.068 219.543 364.365 219.622 364.726 219.622ZM370.65 216.614V220.5H369.376V213.955H370.599V215.02H370.68C370.831 214.673 371.066 214.395 371.387 214.185C371.711 213.974 372.119 213.869 372.61 213.869C373.056 213.869 373.447 213.963 373.782 214.151C374.118 214.335 374.377 214.611 374.562 214.977C374.747 215.344 374.839 215.797 374.839 216.337V220.5H373.565V216.49C373.565 216.016 373.441 215.645 373.194 215.378C372.947 215.108 372.608 214.973 372.176 214.973C371.88 214.973 371.618 215.037 371.387 215.165C371.16 215.293 370.98 215.48 370.846 215.727C370.716 215.972 370.65 216.267 370.65 216.614ZM378.998 220.628C378.47 220.628 377.998 220.493 377.583 220.223C377.172 219.95 376.848 219.562 376.612 219.06C376.379 218.554 376.262 217.947 376.262 217.24C376.262 216.533 376.38 215.928 376.616 215.425C376.855 214.922 377.181 214.537 377.596 214.27C378.011 214.003 378.481 213.869 379.007 213.869C379.413 213.869 379.74 213.938 379.987 214.074C380.237 214.207 380.43 214.364 380.566 214.543C380.706 214.722 380.814 214.879 380.89 215.016H380.967V211.773H382.241V220.5H380.997V219.482H380.89C380.814 219.621 380.703 219.78 380.558 219.959C380.416 220.138 380.22 220.294 379.97 220.428C379.72 220.561 379.396 220.628 378.998 220.628ZM379.279 219.541C379.646 219.541 379.956 219.445 380.208 219.251C380.464 219.055 380.657 218.784 380.788 218.438C380.922 218.091 380.988 217.687 380.988 217.227C380.988 216.773 380.923 216.375 380.792 216.034C380.662 215.693 380.47 215.428 380.217 215.237C379.964 215.047 379.652 214.952 379.279 214.952C378.896 214.952 378.576 215.051 378.321 215.25C378.065 215.449 377.872 215.72 377.741 216.064C377.613 216.408 377.549 216.795 377.549 217.227C377.549 217.665 377.615 218.058 377.745 218.408C377.876 218.757 378.069 219.034 378.325 219.239C378.583 219.44 378.902 219.541 379.279 219.541ZM390.35 213.955V214.977H386.652V213.955H390.35ZM387.666 220.5V213.196C387.666 212.787 387.755 212.447 387.934 212.178C388.113 211.905 388.35 211.702 388.646 211.568C388.941 211.432 389.262 211.364 389.609 211.364C389.865 211.364 390.083 211.385 390.265 211.428C390.447 211.467 390.582 211.504 390.67 211.538L390.372 212.57C390.312 212.553 390.235 212.533 390.142 212.51C390.048 212.484 389.934 212.472 389.801 212.472C389.491 212.472 389.27 212.548 389.136 212.702C389.005 212.855 388.94 213.077 388.94 213.366V220.5H387.666ZM391.665 220.5V213.955H392.939V220.5H391.665ZM392.309 212.945C392.087 212.945 391.897 212.871 391.738 212.723C391.581 212.572 391.503 212.393 391.503 212.186C391.503 211.976 391.581 211.797 391.738 211.649C391.897 211.499 392.087 211.423 392.309 211.423C392.53 211.423 392.719 211.499 392.875 211.649C393.034 211.797 393.114 211.976 393.114 212.186C393.114 212.393 393.034 212.572 392.875 212.723C392.719 212.871 392.53 212.945 392.309 212.945ZM395.659 213.955L397.104 216.503L398.561 213.955H399.955L397.913 217.227L399.972 220.5H398.578L397.104 218.054L395.634 220.5H394.236L396.273 217.227L394.261 213.955H395.659ZM404.439 220.5V213.955H405.713V220.5H404.439ZM405.082 212.945C404.86 212.945 404.67 212.871 404.511 212.723C404.355 212.572 404.277 212.393 404.277 212.186C404.277 211.976 404.355 211.797 404.511 211.649C404.67 211.499 404.86 211.423 405.082 211.423C405.304 211.423 405.493 211.499 405.649 211.649C405.808 211.797 405.887 211.976 405.887 212.186C405.887 212.393 405.808 212.572 405.649 212.723C405.493 212.871 405.304 212.945 405.082 212.945ZM410.482 213.955V214.977H406.907V213.955H410.482ZM407.866 212.386H409.14V218.578C409.14 218.825 409.177 219.011 409.251 219.136C409.325 219.259 409.42 219.342 409.536 219.388C409.656 219.43 409.785 219.452 409.924 219.452C410.026 219.452 410.116 219.445 410.192 219.43C410.269 219.416 410.329 219.405 410.371 219.396L410.602 220.449C410.528 220.477 410.423 220.506 410.286 220.534C410.15 220.565 409.979 220.582 409.775 220.585C409.44 220.591 409.127 220.531 408.837 220.406C408.548 220.281 408.313 220.088 408.134 219.827C407.955 219.565 407.866 219.237 407.866 218.842V212.386Z" fill="#71717A"/>
<path d="M378 241H412C418.351 241 423.5 246.149 423.5 252.5V260.5C423.5 266.851 418.351 272 412 272H378C371.649 272 366.5 266.851 366.5 260.5V252.5C366.5 246.149 371.649 241 378 241Z" fill="url(#paint2_linear_49_750)"/>
<path d="M378 241H412C418.351 241 423.5 246.149 423.5 252.5V260.5C423.5 266.851 418.351 272 412 272H378C371.649 272 366.5 266.851 366.5 260.5V252.5C366.5 246.149 371.649 241 378 241Z" stroke="url(#paint3_linear_49_750)"/>
<path d="M381.784 260.5H378.959V251.773H381.874C382.729 251.773 383.463 251.947 384.077 252.297C384.69 252.643 385.161 253.142 385.487 253.793C385.817 254.44 385.982 255.217 385.982 256.124C385.982 257.033 385.815 257.814 385.483 258.467C385.153 259.121 384.676 259.624 384.051 259.976C383.426 260.325 382.67 260.5 381.784 260.5ZM380.276 259.349H381.712C382.376 259.349 382.929 259.224 383.369 258.974C383.81 258.722 384.139 258.357 384.358 257.879C384.577 257.399 384.686 256.814 384.686 256.124C384.686 255.439 384.577 254.858 384.358 254.381C384.142 253.903 383.82 253.541 383.391 253.294C382.962 253.047 382.429 252.923 381.793 252.923H380.276V259.349ZM390.274 260.632C389.66 260.632 389.125 260.491 388.667 260.21C388.21 259.929 387.855 259.536 387.602 259.03C387.349 258.524 387.223 257.933 387.223 257.257C387.223 256.578 387.349 255.984 387.602 255.476C387.855 254.967 388.21 254.572 388.667 254.291C389.125 254.01 389.66 253.869 390.274 253.869C390.887 253.869 391.423 254.01 391.88 254.291C392.338 254.572 392.693 254.967 392.946 255.476C393.199 255.984 393.325 256.578 393.325 257.257C393.325 257.933 393.199 258.524 392.946 259.03C392.693 259.536 392.338 259.929 391.88 260.21C391.423 260.491 390.887 260.632 390.274 260.632ZM390.278 259.562C390.676 259.562 391.005 259.457 391.267 259.247C391.528 259.037 391.721 258.757 391.846 258.408C391.974 258.058 392.038 257.673 392.038 257.253C392.038 256.835 391.974 256.452 391.846 256.102C391.721 255.75 391.528 255.467 391.267 255.254C391.005 255.041 390.676 254.935 390.278 254.935C389.877 254.935 389.545 255.041 389.281 255.254C389.02 255.467 388.825 255.75 388.697 256.102C388.572 256.452 388.51 256.835 388.51 257.253C388.51 257.673 388.572 258.058 388.697 258.408C388.825 258.757 389.02 259.037 389.281 259.247C389.545 259.457 389.877 259.562 390.278 259.562ZM396.021 256.614V260.5H394.747V253.955H395.97V255.02H396.051C396.202 254.673 396.438 254.395 396.759 254.185C397.082 253.974 397.49 253.869 397.982 253.869C398.428 253.869 398.818 253.963 399.153 254.151C399.489 254.335 399.749 254.611 399.933 254.977C400.118 255.344 400.21 255.797 400.21 256.337V260.5H398.936V256.49C398.936 256.016 398.813 255.645 398.565 255.378C398.318 255.108 397.979 254.973 397.547 254.973C397.251 254.973 396.989 255.037 396.759 255.165C396.531 255.293 396.351 255.48 396.217 255.727C396.087 255.972 396.021 256.267 396.021 256.614ZM404.74 260.632C404.095 260.632 403.54 260.494 403.074 260.219C402.611 259.94 402.253 259.55 402 259.047C401.75 258.541 401.625 257.949 401.625 257.27C401.625 256.599 401.75 256.009 402 255.497C402.253 254.986 402.605 254.587 403.057 254.3C403.511 254.013 404.043 253.869 404.651 253.869C405.02 253.869 405.378 253.93 405.724 254.053C406.071 254.175 406.382 254.366 406.658 254.628C406.933 254.889 407.151 255.229 407.31 255.646C407.469 256.061 407.548 256.565 407.548 257.159V257.611H402.345V256.656H406.3C406.3 256.321 406.232 256.024 406.095 255.766C405.959 255.504 405.767 255.298 405.52 255.148C405.276 254.997 404.989 254.922 404.659 254.922C404.301 254.922 403.989 255.01 403.722 255.186C403.457 255.359 403.253 255.587 403.108 255.868C402.966 256.146 402.895 256.449 402.895 256.776V257.521C402.895 257.959 402.972 258.331 403.125 258.638C403.281 258.945 403.499 259.179 403.777 259.341C404.055 259.5 404.381 259.58 404.753 259.58C404.994 259.58 405.214 259.545 405.413 259.477C405.612 259.406 405.784 259.301 405.929 259.162C406.074 259.023 406.185 258.851 406.261 258.646L407.467 258.864C407.371 259.219 407.197 259.53 406.947 259.797C406.7 260.061 406.389 260.267 406.014 260.415C405.642 260.56 405.217 260.632 404.74 260.632ZM410.569 251.773L410.458 257.99H409.277L409.167 251.773H410.569ZM409.87 260.581C409.634 260.581 409.432 260.499 409.265 260.334C409.097 260.166 409.015 259.964 409.017 259.729C409.015 259.496 409.097 259.297 409.265 259.132C409.432 258.964 409.634 258.881 409.87 258.881C410.1 258.881 410.299 258.964 410.466 259.132C410.634 259.297 410.719 259.496 410.722 259.729C410.719 259.885 410.678 260.028 410.598 260.159C410.522 260.287 410.419 260.389 410.292 260.466C410.164 260.543 410.023 260.581 409.87 260.581Z" fill="#71717A"/>
<rect x="226.6" y="291.5" width="51.8" height="22.8" rx="6.6" fill="#18181B"/>
<rect x="226.6" y="291.5" width="51.8" height="22.8" rx="6.6" stroke="#09090B" stroke-width="1.2"/>
<path d="M234.959 306.9V298.173H240.43V299.306H236.276V301.966H240.145V303.095H236.276V305.767H240.482V306.9H234.959ZM242.087 306.9V300.355H243.319V301.395H243.387C243.506 301.042 243.716 300.765 244.017 300.564C244.321 300.359 244.665 300.257 245.049 300.257C245.128 300.257 245.222 300.26 245.33 300.265C245.441 300.271 245.527 300.278 245.59 300.287V301.505C245.539 301.491 245.448 301.475 245.317 301.458C245.186 301.439 245.056 301.429 244.925 301.429C244.624 301.429 244.355 301.493 244.12 301.62C243.887 301.745 243.702 301.92 243.566 302.145C243.429 302.366 243.361 302.619 243.361 302.903V306.9H242.087ZM246.692 306.9V300.355H247.967V306.9H246.692ZM247.336 299.345C247.114 299.345 246.924 299.271 246.765 299.123C246.609 298.973 246.531 298.794 246.531 298.586C246.531 298.376 246.609 298.197 246.765 298.049C246.924 297.899 247.114 297.824 247.336 297.824C247.558 297.824 247.746 297.899 247.903 298.049C248.062 298.197 248.141 298.376 248.141 298.586C248.141 298.794 248.062 298.973 247.903 299.123C247.746 299.271 247.558 299.345 247.336 299.345ZM250.853 304.68L250.844 303.125H251.066L253.674 300.355H255.199L252.225 303.508H252.025L250.853 304.68ZM249.681 306.9V298.173H250.955V306.9H249.681ZM253.814 306.9L251.471 303.789L252.348 302.899L255.378 306.9H253.814ZM262.464 306.9H259.638V298.173H262.553C263.408 298.173 264.143 298.348 264.756 298.697C265.37 299.044 265.84 299.542 266.167 300.193C266.496 300.841 266.661 301.618 266.661 302.524C266.661 303.433 266.495 304.214 266.163 304.868C265.833 305.521 265.356 306.024 264.731 306.376C264.106 306.725 263.35 306.9 262.464 306.9ZM260.955 305.75H262.391C263.056 305.75 263.609 305.625 264.049 305.375C264.489 305.122 264.819 304.757 265.038 304.279C265.256 303.799 265.366 303.214 265.366 302.524C265.366 301.839 265.256 301.258 265.038 300.781C264.822 300.304 264.499 299.941 264.07 299.694C263.641 299.447 263.109 299.324 262.472 299.324H260.955V305.75ZM268.485 306.981C268.252 306.981 268.052 306.899 267.884 306.734C267.717 306.566 267.633 306.365 267.633 306.129C267.633 305.896 267.717 305.697 267.884 305.532C268.052 305.365 268.252 305.281 268.485 305.281C268.718 305.281 268.918 305.365 269.086 305.532C269.254 305.697 269.337 305.896 269.337 306.129C269.337 306.285 269.298 306.429 269.218 306.559C269.141 306.687 269.039 306.789 268.911 306.866C268.783 306.943 268.641 306.981 268.485 306.981Z" fill="#FAFAFA"/>
<path d="M218.6 271.846C218.6 270.777 219.892 270.241 220.648 270.997L233.703 284.052C234.459 284.808 233.923 286.1 232.854 286.1H226.698C226.062 286.1 225.451 286.353 225.001 286.803L220.648 291.156C219.893 291.912 218.6 291.376 218.6 290.308V271.846Z" fill="#18181B" stroke="#09090B" stroke-width="1.2"/>
<path d="M60 62H325C331.351 62 336.5 67.1487 336.5 73.5V81.5C336.5 87.8513 331.351 93 325 93H60C53.6487 93 48.5 87.8513 48.5 81.5V73.5C48.5 67.1487 53.6487 62 60 62Z" fill="url(#paint4_linear_49_750)"/>
<path d="M60 62H325C331.351 62 336.5 67.1487 336.5 73.5V81.5C336.5 87.8513 331.351 93 325 93H60C53.6487 93 48.5 87.8513 48.5 81.5V73.5C48.5 67.1487 53.6487 62 60 62Z" stroke="url(#paint5_linear_49_750)"/>
<path d="M62.6676 81.5L60.2472 72.7727H61.6321L63.3324 79.5312H63.4134L65.1818 72.7727H66.554L68.3224 79.5355H68.4034L70.0994 72.7727H71.4886L69.0639 81.5H67.7386L65.902 74.9631H65.8338L63.9972 81.5H62.6676ZM74.7635 81.6321C74.1186 81.6321 73.5632 81.4943 73.0973 81.2188C72.6342 80.9403 72.2763 80.5497 72.0234 80.0469C71.7734 79.5412 71.6484 78.9489 71.6484 78.2699C71.6484 77.5994 71.7734 77.0085 72.0234 76.4972C72.2763 75.9858 72.6286 75.5866 73.0803 75.2997C73.5348 75.0128 74.0661 74.8693 74.674 74.8693C75.0433 74.8693 75.4013 74.9304 75.7479 75.0526C76.0945 75.1747 76.4055 75.3665 76.6811 75.6278C76.9567 75.8892 77.174 76.2287 77.3331 76.6463C77.4922 77.0611 77.5717 77.5653 77.5717 78.1591V78.6108H72.3686V77.6562H76.3232C76.3232 77.321 76.255 77.0241 76.1186 76.7656C75.9822 76.5043 75.7905 76.2983 75.5433 76.1477C75.299 75.9972 75.0121 75.9219 74.6825 75.9219C74.3246 75.9219 74.0121 76.0099 73.745 76.1861C73.4808 76.3594 73.2763 76.5866 73.1314 76.8679C72.9893 77.1463 72.9183 77.4489 72.9183 77.7756V78.5213C72.9183 78.9588 72.995 79.331 73.1484 79.6378C73.3047 79.9446 73.522 80.179 73.8004 80.3409C74.0788 80.5 74.4041 80.5795 74.7763 80.5795C75.0178 80.5795 75.2379 80.5455 75.4368 80.4773C75.6357 80.4062 75.8075 80.3011 75.9524 80.1619C76.0973 80.0227 76.2081 79.8509 76.2848 79.6463L77.4908 79.8636C77.3942 80.2187 77.2209 80.5298 76.9709 80.7969C76.7237 81.0611 76.4126 81.267 76.0376 81.4148C75.6655 81.5597 75.2408 81.6321 74.7635 81.6321ZM83.4354 77.6136V81.5H82.1612V74.9545H83.3842V76.0199H83.4652C83.6158 75.6733 83.8516 75.3949 84.1726 75.1847C84.4964 74.9744 84.9041 74.8693 85.3956 74.8693C85.8416 74.8693 86.2322 74.9631 86.5675 75.1506C86.9027 75.3352 87.1626 75.6108 87.3473 75.9773C87.532 76.3437 87.6243 76.7969 87.6243 77.3366V81.5H86.3501V77.4901C86.3501 77.0156 86.2266 76.6449 85.9794 76.3778C85.7322 76.108 85.3928 75.973 84.9609 75.973C84.6655 75.973 84.4027 76.0369 84.1726 76.1648C83.9453 76.2926 83.7649 76.4801 83.6314 76.7273C83.5007 76.9716 83.4354 77.267 83.4354 77.6136ZM92.1541 81.6321C91.5092 81.6321 90.9538 81.4943 90.4879 81.2188C90.0249 80.9403 89.6669 80.5497 89.4141 80.0469C89.1641 79.5412 89.0391 78.9489 89.0391 78.2699C89.0391 77.5994 89.1641 77.0085 89.4141 76.4972C89.6669 75.9858 90.0192 75.5866 90.4709 75.2997C90.9254 75.0128 91.4567 74.8693 92.0646 74.8693C92.4339 74.8693 92.7919 74.9304 93.1385 75.0526C93.4851 75.1747 93.7962 75.3665 94.0717 75.6278C94.3473 75.8892 94.5646 76.2287 94.7237 76.6463C94.8828 77.0611 94.9624 77.5653 94.9624 78.1591V78.6108H89.7592V77.6562H93.7138C93.7138 77.321 93.6456 77.0241 93.5092 76.7656C93.3729 76.5043 93.1811 76.2983 92.9339 76.1477C92.6896 75.9972 92.4027 75.9219 92.0732 75.9219C91.7152 75.9219 91.4027 76.0099 91.1357 76.1861C90.8714 76.3594 90.6669 76.5866 90.522 76.8679C90.38 77.1463 90.3089 77.4489 90.3089 77.7756V78.5213C90.3089 78.9588 90.3857 79.331 90.5391 79.6378C90.6953 79.9446 90.9126 80.179 91.1911 80.3409C91.4695 80.5 91.7947 80.5795 92.1669 80.5795C92.4084 80.5795 92.6286 80.5455 92.8274 80.4773C93.0263 80.4062 93.1982 80.3011 93.343 80.1619C93.4879 80.0227 93.5987 79.8509 93.6754 79.6463L94.8814 79.8636C94.7848 80.2187 94.6115 80.5298 94.3615 80.7969C94.1143 81.0611 93.8033 81.267 93.4283 81.4148C93.0561 81.5597 92.6314 81.6321 92.1541 81.6321ZM99.1971 81.6321C98.5522 81.6321 97.9968 81.4943 97.5309 81.2188C97.0678 80.9403 96.7099 80.5497 96.457 80.0469C96.207 79.5412 96.082 78.9489 96.082 78.2699C96.082 77.5994 96.207 77.0085 96.457 76.4972C96.7099 75.9858 97.0621 75.5866 97.5138 75.2997C97.9684 75.0128 98.4996 74.8693 99.1076 74.8693C99.4769 74.8693 99.8349 74.9304 100.181 75.0526C100.528 75.1747 100.839 75.3665 101.115 75.6278C101.39 75.8892 101.608 76.2287 101.767 76.6463C101.926 77.0611 102.005 77.5653 102.005 78.1591V78.6108H96.8022V77.6562H100.757C100.757 77.321 100.689 77.0241 100.552 76.7656C100.416 76.5043 100.224 76.2983 99.9769 76.1477C99.7326 75.9972 99.4457 75.9219 99.1161 75.9219C98.7582 75.9219 98.4457 76.0099 98.1786 76.1861C97.9144 76.3594 97.7099 76.5866 97.565 76.8679C97.4229 77.1463 97.3519 77.4489 97.3519 77.7756V78.5213C97.3519 78.9588 97.4286 79.331 97.582 79.6378C97.7383 79.9446 97.9556 80.179 98.234 80.3409C98.5124 80.5 98.8377 80.5795 99.2099 80.5795C99.4513 80.5795 99.6715 80.5455 99.8704 80.4773C100.069 80.4062 100.241 80.3011 100.386 80.1619C100.531 80.0227 100.642 79.8509 100.718 79.6463L101.924 79.8636C101.828 80.2187 101.654 80.5298 101.404 80.7969C101.157 81.0611 100.846 81.267 100.471 81.4148C100.099 81.5597 99.6744 81.6321 99.1971 81.6321ZM105.869 81.6278C105.341 81.6278 104.869 81.4929 104.455 81.223C104.043 80.9503 103.719 80.5625 103.483 80.0597C103.25 79.554 103.134 78.9474 103.134 78.2401C103.134 77.5327 103.251 76.9276 103.487 76.4247C103.726 75.9219 104.053 75.5369 104.467 75.2699C104.882 75.0028 105.352 74.8693 105.878 74.8693C106.284 74.8693 106.611 74.9375 106.858 75.0739C107.108 75.2074 107.301 75.3636 107.438 75.5426C107.577 75.7216 107.685 75.8793 107.761 76.0156H107.838V72.7727H109.112V81.5H107.868V80.4815H107.761C107.685 80.6207 107.574 80.7798 107.429 80.9588C107.287 81.1378 107.091 81.294 106.841 81.4276C106.591 81.5611 106.267 81.6278 105.869 81.6278ZM106.151 80.5412C106.517 80.5412 106.827 80.4446 107.08 80.2514C107.335 80.0554 107.528 79.7841 107.659 79.4375C107.793 79.0909 107.859 78.6875 107.859 78.2273C107.859 77.7727 107.794 77.375 107.663 77.0341C107.533 76.6932 107.341 76.4276 107.088 76.2372C106.835 76.0469 106.523 75.9517 106.151 75.9517C105.767 75.9517 105.447 76.0511 105.192 76.25C104.936 76.4489 104.743 76.7202 104.612 77.0639C104.484 77.4077 104.42 77.7955 104.42 78.2273C104.42 78.6648 104.486 79.0582 104.616 79.4077C104.747 79.7571 104.94 80.0341 105.196 80.2386C105.455 80.4403 105.773 80.5412 106.151 80.5412ZM117.162 74.9545V75.9773H113.587V74.9545H117.162ZM114.545 73.3864H115.82V79.5781C115.82 79.8253 115.857 80.0114 115.93 80.1364C116.004 80.2585 116.099 80.3423 116.216 80.3878C116.335 80.4304 116.464 80.4517 116.604 80.4517C116.706 80.4517 116.795 80.4446 116.872 80.4304C116.949 80.4162 117.009 80.4048 117.051 80.3963L117.281 81.4489C117.207 81.4773 117.102 81.5057 116.966 81.5341C116.83 81.5653 116.659 81.5824 116.455 81.5852C116.119 81.5909 115.807 81.5312 115.517 81.4062C115.227 81.2812 114.993 81.0881 114.814 80.8267C114.635 80.5653 114.545 80.2372 114.545 79.8423V73.3864ZM121.258 81.6321C120.645 81.6321 120.109 81.4915 119.652 81.2102C119.194 80.929 118.839 80.5355 118.586 80.0298C118.333 79.5241 118.207 78.9332 118.207 78.2571C118.207 77.5781 118.333 76.9844 118.586 76.4759C118.839 75.9673 119.194 75.5724 119.652 75.2912C120.109 75.0099 120.645 74.8693 121.258 74.8693C121.872 74.8693 122.407 75.0099 122.865 75.2912C123.322 75.5724 123.677 75.9673 123.93 76.4759C124.183 76.9844 124.309 77.5781 124.309 78.2571C124.309 78.9332 124.183 79.5241 123.93 80.0298C123.677 80.5355 123.322 80.929 122.865 81.2102C122.407 81.4915 121.872 81.6321 121.258 81.6321ZM121.262 80.5625C121.66 80.5625 121.99 80.4574 122.251 80.2472C122.512 80.0369 122.706 79.7571 122.831 79.4077C122.958 79.0582 123.022 78.6733 123.022 78.2528C123.022 77.8352 122.958 77.4517 122.831 77.1023C122.706 76.75 122.512 76.4673 122.251 76.2543C121.99 76.0412 121.66 75.9347 121.262 75.9347C120.862 75.9347 120.529 76.0412 120.265 76.2543C120.004 76.4673 119.809 76.75 119.681 77.1023C119.556 77.4517 119.494 77.8352 119.494 78.2528C119.494 78.6733 119.556 79.0582 119.681 79.4077C119.809 79.7571 120.004 80.0369 120.265 80.2472C120.529 80.4574 120.862 80.5625 121.262 80.5625ZM133.054 78.7855V74.9545H134.332V81.5H133.079V80.3665H133.011C132.86 80.7159 132.619 81.0071 132.287 81.2401C131.957 81.4702 131.547 81.5852 131.055 81.5852C130.635 81.5852 130.262 81.4929 129.939 81.3082C129.618 81.1207 129.365 80.8438 129.18 80.4773C128.998 80.1108 128.907 79.6577 128.907 79.1179V74.9545H130.181V78.9645C130.181 79.4105 130.305 79.7656 130.552 80.0298C130.799 80.294 131.12 80.4261 131.515 80.4261C131.754 80.4261 131.991 80.3665 132.227 80.2472C132.466 80.1278 132.663 79.9474 132.819 79.706C132.978 79.4645 133.056 79.1577 133.054 78.7855ZM136.044 83.9545V74.9545H137.288V76.0156H137.395C137.469 75.8793 137.575 75.7216 137.714 75.5426C137.854 75.3636 138.047 75.2074 138.294 75.0739C138.541 74.9375 138.868 74.8693 139.274 74.8693C139.803 74.8693 140.274 75.0028 140.689 75.2699C141.104 75.5369 141.429 75.9219 141.665 76.4247C141.903 76.9276 142.023 77.5327 142.023 78.2401C142.023 78.9474 141.905 79.554 141.669 80.0597C141.433 80.5625 141.109 80.9503 140.697 81.223C140.286 81.4929 139.815 81.6278 139.287 81.6278C138.889 81.6278 138.564 81.5611 138.311 81.4276C138.061 81.294 137.865 81.1378 137.723 80.9588C137.581 80.7798 137.472 80.6207 137.395 80.4815H137.318V83.9545H136.044ZM137.293 78.2273C137.293 78.6875 137.359 79.0909 137.493 79.4375C137.626 79.7841 137.82 80.0554 138.072 80.2514C138.325 80.4446 138.635 80.5412 139.001 80.5412C139.382 80.5412 139.7 80.4403 139.956 80.2386C140.212 80.0341 140.405 79.7571 140.536 79.4077C140.669 79.0582 140.736 78.6648 140.736 78.2273C140.736 77.7955 140.67 77.4077 140.54 77.0639C140.412 76.7202 140.219 76.4489 139.96 76.25C139.705 76.0511 139.385 75.9517 139.001 75.9517C138.632 75.9517 138.32 76.0469 138.064 76.2372C137.811 76.4276 137.619 76.6932 137.489 77.0341C137.358 77.375 137.293 77.7727 137.293 78.2273ZM145.901 81.6278C145.372 81.6278 144.901 81.4929 144.486 81.223C144.074 80.9503 143.75 80.5625 143.514 80.0597C143.281 79.554 143.165 78.9474 143.165 78.2401C143.165 77.5327 143.283 76.9276 143.518 76.4247C143.757 75.9219 144.084 75.5369 144.499 75.2699C144.913 75.0028 145.384 74.8693 145.909 74.8693C146.315 74.8693 146.642 74.9375 146.889 75.0739C147.139 75.2074 147.332 75.3636 147.469 75.5426C147.608 75.7216 147.716 75.8793 147.793 76.0156H147.869V72.7727H149.143V81.5H147.899V80.4815H147.793C147.716 80.6207 147.605 80.7798 147.46 80.9588C147.318 81.1378 147.122 81.294 146.872 81.4276C146.622 81.5611 146.298 81.6278 145.901 81.6278ZM146.182 80.5412C146.548 80.5412 146.858 80.4446 147.111 80.2514C147.366 80.0554 147.56 79.7841 147.69 79.4375C147.824 79.0909 147.891 78.6875 147.891 78.2273C147.891 77.7727 147.825 77.375 147.695 77.0341C147.564 76.6932 147.372 76.4276 147.119 76.2372C146.866 76.0469 146.554 75.9517 146.182 75.9517C145.798 75.9517 145.479 76.0511 145.223 76.25C144.967 76.4489 144.774 76.7202 144.643 77.0639C144.516 77.4077 144.452 77.7955 144.452 78.2273C144.452 78.6648 144.517 79.0582 144.648 79.4077C144.778 79.7571 144.972 80.0341 145.227 80.2386C145.486 80.4403 145.804 80.5412 146.182 80.5412ZM152.867 81.6449C152.452 81.6449 152.077 81.5682 151.742 81.4148C151.407 81.2585 151.141 81.0327 150.945 80.7372C150.752 80.4418 150.655 80.0795 150.655 79.6506C150.655 79.2812 150.726 78.9773 150.868 78.7386C151.01 78.5 151.202 78.3111 151.444 78.1719C151.685 78.0327 151.955 77.9276 152.253 77.8565C152.551 77.7855 152.855 77.7315 153.165 77.6946C153.557 77.6491 153.875 77.6122 154.12 77.5838C154.364 77.5526 154.542 77.5028 154.652 77.4347C154.763 77.3665 154.819 77.2557 154.819 77.1023V77.0724C154.819 76.7003 154.713 76.4119 154.503 76.2074C154.296 76.0028 153.986 75.9006 153.574 75.9006C153.145 75.9006 152.807 75.9957 152.56 76.1861C152.316 76.3736 152.147 76.5824 152.053 76.8125L150.855 76.5398C150.998 76.142 151.205 75.821 151.478 75.5767C151.753 75.3295 152.07 75.1506 152.428 75.0398C152.786 74.9261 153.162 74.8693 153.557 74.8693C153.819 74.8693 154.096 74.9006 154.388 74.9631C154.684 75.0227 154.959 75.1335 155.215 75.2955C155.473 75.4574 155.685 75.6889 155.85 75.9901C156.015 76.2884 156.097 76.6761 156.097 77.1534V81.5H154.853V80.6051H154.801C154.719 80.7699 154.596 80.9318 154.431 81.0909C154.266 81.25 154.054 81.3821 153.796 81.4872C153.537 81.5923 153.228 81.6449 152.867 81.6449ZM153.144 80.6222C153.496 80.6222 153.797 80.5526 154.047 80.4134C154.3 80.2741 154.492 80.0923 154.623 79.8679C154.756 79.6406 154.823 79.3977 154.823 79.1392V78.2955C154.777 78.3409 154.689 78.3835 154.559 78.4233C154.431 78.4602 154.284 78.4929 154.12 78.5213C153.955 78.5469 153.794 78.571 153.638 78.5938C153.482 78.6136 153.351 78.6307 153.246 78.6449C152.999 78.6761 152.773 78.7287 152.569 78.8026C152.367 78.8764 152.205 78.983 152.083 79.1222C151.963 79.2585 151.904 79.4403 151.904 79.6676C151.904 79.983 152.02 80.2216 152.253 80.3835C152.486 80.5426 152.783 80.6222 153.144 80.6222ZM160.849 74.9545V75.9773H157.274V74.9545H160.849ZM158.233 73.3864H159.507V79.5781C159.507 79.8253 159.544 80.0114 159.618 80.1364C159.692 80.2585 159.787 80.3423 159.903 80.3878C160.023 80.4304 160.152 80.4517 160.291 80.4517C160.393 80.4517 160.483 80.4446 160.56 80.4304C160.636 80.4162 160.696 80.4048 160.739 80.3963L160.969 81.4489C160.895 81.4773 160.79 81.5057 160.653 81.5341C160.517 81.5653 160.347 81.5824 160.142 81.5852C159.807 81.5909 159.494 81.5312 159.205 81.4062C158.915 81.2812 158.68 81.0881 158.501 80.8267C158.322 80.5653 158.233 80.2372 158.233 79.8423V73.3864ZM165.01 81.6321C164.365 81.6321 163.809 81.4943 163.343 81.2188C162.88 80.9403 162.522 80.5497 162.27 80.0469C162.02 79.5412 161.895 78.9489 161.895 78.2699C161.895 77.5994 162.02 77.0085 162.27 76.4972C162.522 75.9858 162.875 75.5866 163.326 75.2997C163.781 75.0128 164.312 74.8693 164.92 74.8693C165.289 74.8693 165.647 74.9304 165.994 75.0526C166.341 75.1747 166.652 75.3665 166.927 75.6278C167.203 75.8892 167.42 76.2287 167.579 76.6463C167.738 77.0611 167.818 77.5653 167.818 78.1591V78.6108H162.615V77.6562H166.569C166.569 77.321 166.501 77.0241 166.365 76.7656C166.228 76.5043 166.037 76.2983 165.789 76.1477C165.545 75.9972 165.258 75.9219 164.929 75.9219C164.571 75.9219 164.258 76.0099 163.991 76.1861C163.727 76.3594 163.522 76.5866 163.377 76.8679C163.235 77.1463 163.164 77.4489 163.164 77.7756V78.5213C163.164 78.9588 163.241 79.331 163.395 79.6378C163.551 79.9446 163.768 80.179 164.047 80.3409C164.325 80.5 164.65 80.5795 165.022 80.5795C165.264 80.5795 165.484 80.5455 165.683 80.4773C165.882 80.4062 166.054 80.3011 166.199 80.1619C166.343 80.0227 166.454 79.8509 166.531 79.6463L167.737 79.8636C167.64 80.2187 167.467 80.5298 167.217 80.7969C166.97 81.0611 166.659 81.267 166.284 81.4148C165.912 81.5597 165.487 81.6321 165.01 81.6321ZM175.463 74.9545V75.9773H171.887V74.9545H175.463ZM172.846 73.3864H174.12V79.5781C174.12 79.8253 174.157 80.0114 174.231 80.1364C174.305 80.2585 174.4 80.3423 174.517 80.3878C174.636 80.4304 174.765 80.4517 174.904 80.4517C175.007 80.4517 175.096 80.4446 175.173 80.4304C175.25 80.4162 175.309 80.4048 175.352 80.3963L175.582 81.4489C175.508 81.4773 175.403 81.5057 175.267 81.5341C175.13 81.5653 174.96 81.5824 174.755 81.5852C174.42 81.5909 174.108 81.5312 173.818 81.4062C173.528 81.2812 173.294 81.0881 173.115 80.8267C172.936 80.5653 172.846 80.2372 172.846 79.8423V73.3864ZM178.287 77.6136V81.5H177.013V72.7727H178.27V76.0199H178.351C178.504 75.6676 178.739 75.3878 179.054 75.1804C179.369 74.973 179.781 74.8693 180.29 74.8693C180.739 74.8693 181.131 74.9616 181.466 75.1463C181.804 75.331 182.065 75.6065 182.25 75.973C182.438 76.3366 182.531 76.7912 182.531 77.3366V81.5H181.257V77.4901C181.257 77.0099 181.134 76.6378 180.886 76.3736C180.639 76.1065 180.295 75.973 179.855 75.973C179.554 75.973 179.284 76.0369 179.045 76.1648C178.81 76.2926 178.624 76.4801 178.487 76.7273C178.354 76.9716 178.287 77.267 178.287 77.6136ZM184.232 81.5V74.9545H185.506V81.5H184.232ZM184.875 73.9446C184.653 73.9446 184.463 73.8707 184.304 73.723C184.148 73.5724 184.07 73.3935 184.07 73.1861C184.07 72.9759 184.148 72.7969 184.304 72.6491C184.463 72.4986 184.653 72.4233 184.875 72.4233C185.097 72.4233 185.286 72.4986 185.442 72.6491C185.601 72.7969 185.68 72.9759 185.68 73.1861C185.68 73.3935 185.601 73.5724 185.442 73.723C185.286 73.8707 185.097 73.9446 184.875 73.9446ZM192.125 76.5526L190.97 76.7571C190.922 76.6094 190.845 76.4687 190.74 76.3352C190.637 76.2017 190.498 76.0923 190.322 76.0071C190.146 75.9219 189.926 75.8793 189.662 75.8793C189.301 75.8793 189 75.9602 188.758 76.1222C188.517 76.2812 188.396 76.4872 188.396 76.7401C188.396 76.9588 188.477 77.1349 188.639 77.2685C188.801 77.402 189.062 77.5114 189.423 77.5966L190.463 77.8352C191.065 77.9744 191.514 78.1889 191.809 78.4787C192.105 78.7685 192.252 79.1449 192.252 79.608C192.252 80 192.139 80.3494 191.912 80.6562C191.687 80.9602 191.373 81.1989 190.97 81.3722C190.569 81.5455 190.105 81.6321 189.576 81.6321C188.843 81.6321 188.245 81.4759 187.782 81.1634C187.319 80.848 187.035 80.4006 186.93 79.821L188.162 79.6335C188.238 79.9545 188.396 80.1974 188.635 80.3622C188.873 80.5241 189.184 80.6051 189.568 80.6051C189.985 80.6051 190.319 80.5185 190.569 80.3452C190.819 80.169 190.944 79.9545 190.944 79.7017C190.944 79.4972 190.868 79.3253 190.714 79.1861C190.564 79.0469 190.332 78.9418 190.02 78.8707L188.912 78.6278C188.301 78.4886 187.849 78.267 187.556 77.9631C187.267 77.6591 187.122 77.2741 187.122 76.8082C187.122 76.4219 187.23 76.0838 187.446 75.794C187.662 75.5043 187.96 75.2784 188.341 75.1165C188.721 74.9517 189.157 74.8693 189.649 74.8693C190.356 74.8693 190.913 75.0227 191.319 75.3295C191.725 75.6335 191.994 76.0412 192.125 76.5526ZM198.103 77.6136V81.5H196.829V72.7727H198.086V76.0199H198.167C198.321 75.6676 198.555 75.3878 198.87 75.1804C199.186 74.973 199.598 74.8693 200.106 74.8693C200.555 74.8693 200.947 74.9616 201.282 75.1463C201.62 75.331 201.882 75.6065 202.066 75.973C202.254 76.3366 202.348 76.7912 202.348 77.3366V81.5H201.074V77.4901C201.074 77.0099 200.95 76.6378 200.703 76.3736C200.456 76.1065 200.112 75.973 199.672 75.973C199.37 75.973 199.1 76.0369 198.862 76.1648C198.626 76.2926 198.44 76.4801 198.304 76.7273C198.17 76.9716 198.103 77.267 198.103 77.6136ZM206.869 81.6321C206.224 81.6321 205.669 81.4943 205.203 81.2188C204.74 80.9403 204.382 80.5497 204.129 80.0469C203.879 79.5412 203.754 78.9489 203.754 78.2699C203.754 77.5994 203.879 77.0085 204.129 76.4972C204.382 75.9858 204.734 75.5866 205.186 75.2997C205.64 75.0128 206.172 74.8693 206.779 74.8693C207.149 74.8693 207.507 74.9304 207.853 75.0526C208.2 75.1747 208.511 75.3665 208.787 75.6278C209.062 75.8892 209.279 76.2287 209.439 76.6463C209.598 77.0611 209.677 77.5653 209.677 78.1591V78.6108H204.474V77.6562H208.429C208.429 77.321 208.36 77.0241 208.224 76.7656C208.088 76.5043 207.896 76.2983 207.649 76.1477C207.404 75.9972 207.118 75.9219 206.788 75.9219C206.43 75.9219 206.118 76.0099 205.85 76.1861C205.586 76.3594 205.382 76.5866 205.237 76.8679C205.095 77.1463 205.024 77.4489 205.024 77.7756V78.5213C205.024 78.9588 205.1 79.331 205.254 79.6378C205.41 79.9446 205.627 80.179 205.906 80.3409C206.184 80.5 206.51 80.5795 206.882 80.5795C207.123 80.5795 207.343 80.5455 207.542 80.4773C207.741 80.4062 207.913 80.3011 208.058 80.1619C208.203 80.0227 208.314 79.8509 208.39 79.6463L209.596 79.8636C209.5 80.2187 209.326 80.5298 209.076 80.7969C208.829 81.0611 208.518 81.267 208.143 81.4148C207.771 81.5597 207.346 81.6321 206.869 81.6321ZM212.996 81.6449C212.581 81.6449 212.206 81.5682 211.871 81.4148C211.536 81.2585 211.27 81.0327 211.074 80.7372C210.881 80.4418 210.784 80.0795 210.784 79.6506C210.784 79.2812 210.855 78.9773 210.997 78.7386C211.139 78.5 211.331 78.3111 211.572 78.1719C211.814 78.0327 212.084 77.9276 212.382 77.8565C212.68 77.7855 212.984 77.7315 213.294 77.6946C213.686 77.6491 214.004 77.6122 214.249 77.5838C214.493 77.5526 214.67 77.5028 214.781 77.4347C214.892 77.3665 214.947 77.2557 214.947 77.1023V77.0724C214.947 76.7003 214.842 76.4119 214.632 76.2074C214.425 76.0028 214.115 75.9006 213.703 75.9006C213.274 75.9006 212.936 75.9957 212.689 76.1861C212.445 76.3736 212.276 76.5824 212.182 76.8125L210.984 76.5398C211.126 76.142 211.334 75.821 211.607 75.5767C211.882 75.3295 212.199 75.1506 212.557 75.0398C212.915 74.9261 213.291 74.8693 213.686 74.8693C213.947 74.8693 214.224 74.9006 214.517 74.9631C214.813 75.0227 215.088 75.1335 215.344 75.2955C215.602 75.4574 215.814 75.6889 215.979 75.9901C216.143 76.2884 216.226 76.6761 216.226 77.1534V81.5H214.982V80.6051H214.93C214.848 80.7699 214.724 80.9318 214.56 81.0909C214.395 81.25 214.183 81.3821 213.925 81.4872C213.666 81.5923 213.357 81.6449 212.996 81.6449ZM213.273 80.6222C213.625 80.6222 213.926 80.5526 214.176 80.4134C214.429 80.2741 214.621 80.0923 214.751 79.8679C214.885 79.6406 214.952 79.3977 214.952 79.1392V78.2955C214.906 78.3409 214.818 78.3835 214.688 78.4233C214.56 78.4602 214.413 78.4929 214.249 78.5213C214.084 78.5469 213.923 78.571 213.767 78.5938C213.611 78.6136 213.48 78.6307 213.375 78.6449C213.128 78.6761 212.902 78.7287 212.697 78.8026C212.496 78.8764 212.334 78.983 212.212 79.1222C212.092 79.2585 212.033 79.4403 212.033 79.6676C212.033 79.983 212.149 80.2216 212.382 80.3835C212.615 80.5426 212.912 80.6222 213.273 80.6222ZM220.373 81.6278C219.845 81.6278 219.373 81.4929 218.958 81.223C218.547 80.9503 218.223 80.5625 217.987 80.0597C217.754 79.554 217.637 78.9474 217.637 78.2401C217.637 77.5327 217.755 76.9276 217.991 76.4247C218.23 75.9219 218.556 75.5369 218.971 75.2699C219.386 75.0028 219.856 74.8693 220.382 74.8693C220.788 74.8693 221.115 74.9375 221.362 75.0739C221.612 75.2074 221.805 75.3636 221.941 75.5426C222.081 75.7216 222.189 75.8793 222.265 76.0156H222.342V72.7727H223.616V81.5H222.372V80.4815H222.265C222.189 80.6207 222.078 80.7798 221.933 80.9588C221.791 81.1378 221.595 81.294 221.345 81.4276C221.095 81.5611 220.771 81.6278 220.373 81.6278ZM220.654 80.5412C221.021 80.5412 221.331 80.4446 221.583 80.2514C221.839 80.0554 222.032 79.7841 222.163 79.4375C222.297 79.0909 222.363 78.6875 222.363 78.2273C222.363 77.7727 222.298 77.375 222.167 77.0341C222.037 76.6932 221.845 76.4276 221.592 76.2372C221.339 76.0469 221.027 75.9517 220.654 75.9517C220.271 75.9517 219.951 76.0511 219.696 76.25C219.44 76.4489 219.247 76.7202 219.116 77.0639C218.988 77.4077 218.924 77.7955 218.924 78.2273C218.924 78.6648 218.99 79.0582 219.12 79.4077C219.251 79.7571 219.444 80.0341 219.7 80.2386C219.958 80.4403 220.277 80.5412 220.654 80.5412ZM225.435 81.5V74.9545H226.709V81.5H225.435ZM226.078 73.9446C225.857 73.9446 225.666 73.8707 225.507 73.723C225.351 73.5724 225.273 73.3935 225.273 73.1861C225.273 72.9759 225.351 72.7969 225.507 72.6491C225.666 72.4986 225.857 72.4233 226.078 72.4233C226.3 72.4233 226.489 72.4986 226.645 72.6491C226.804 72.7969 226.884 72.9759 226.884 73.1861C226.884 73.3935 226.804 73.5724 226.645 73.723C226.489 73.8707 226.3 73.9446 226.078 73.9446ZM229.697 77.6136V81.5H228.423V74.9545H229.646V76.0199H229.727C229.877 75.6733 230.113 75.3949 230.434 75.1847C230.758 74.9744 231.166 74.8693 231.657 74.8693C232.103 74.8693 232.494 74.9631 232.829 75.1506C233.164 75.3352 233.424 75.6108 233.609 75.9773C233.794 76.3437 233.886 76.7969 233.886 77.3366V81.5H232.612V77.4901C232.612 77.0156 232.488 76.6449 232.241 76.3778C231.994 76.108 231.654 75.973 231.223 75.973C230.927 75.973 230.664 76.0369 230.434 76.1648C230.207 76.2926 230.027 76.4801 229.893 76.7273C229.762 76.9716 229.697 77.267 229.697 77.6136ZM238.339 84.0909C237.819 84.0909 237.372 84.0227 236.997 83.8864C236.625 83.75 236.321 83.5696 236.085 83.3452C235.849 83.1207 235.673 82.875 235.556 82.608L236.652 82.1562C236.728 82.2812 236.831 82.4134 236.958 82.5526C237.089 82.6946 237.265 82.8153 237.487 82.9148C237.711 83.0142 238 83.0639 238.352 83.0639C238.835 83.0639 239.234 82.946 239.549 82.7102C239.865 82.4773 240.022 82.1051 240.022 81.5938V80.3068H239.941C239.865 80.446 239.754 80.6009 239.609 80.7713C239.467 80.9418 239.271 81.0895 239.021 81.2145C238.771 81.3395 238.446 81.402 238.045 81.402C237.528 81.402 237.062 81.2812 236.647 81.0398C236.235 80.7955 235.909 80.4361 235.667 79.9616C235.429 79.4844 235.309 78.8977 235.309 78.2017C235.309 77.5057 235.427 76.9091 235.663 76.4119C235.902 75.9148 236.228 75.5341 236.643 75.2699C237.058 75.0028 237.528 74.8693 238.054 74.8693C238.46 74.8693 238.788 74.9375 239.038 75.0739C239.288 75.2074 239.483 75.3636 239.622 75.5426C239.764 75.7216 239.873 75.8793 239.95 76.0156H240.044V74.9545H241.292V81.6449C241.292 82.2074 241.162 82.669 240.9 83.0298C240.639 83.3906 240.285 83.6577 239.839 83.831C239.396 84.0043 238.896 84.0909 238.339 84.0909ZM238.326 80.3452C238.693 80.3452 239.002 80.2599 239.255 80.0895C239.511 79.9162 239.704 79.669 239.835 79.348C239.968 79.0241 240.035 78.6364 240.035 78.1847C240.035 77.7443 239.97 77.3565 239.839 77.0213C239.708 76.6861 239.517 76.4247 239.264 76.2372C239.011 76.0469 238.699 75.9517 238.326 75.9517C237.943 75.9517 237.623 76.0511 237.368 76.25C237.112 76.446 236.919 76.7131 236.788 77.0511C236.66 77.3892 236.596 77.767 236.596 78.1847C236.596 78.6136 236.662 78.9901 236.792 79.3139C236.923 79.6378 237.116 79.8906 237.372 80.0724C237.63 80.2543 237.949 80.3452 238.326 80.3452ZM246.279 81.5V72.7727H247.553V76.0156H247.63C247.704 75.8793 247.81 75.7216 247.95 75.5426C248.089 75.3636 248.282 75.2074 248.529 75.0739C248.776 74.9375 249.103 74.8693 249.509 74.8693C250.038 74.8693 250.509 75.0028 250.924 75.2699C251.339 75.5369 251.664 75.9219 251.9 76.4247C252.138 76.9276 252.258 77.5327 252.258 78.2401C252.258 78.9474 252.14 79.554 251.904 80.0597C251.668 80.5625 251.344 80.9503 250.933 81.223C250.521 81.4929 250.05 81.6278 249.522 81.6278C249.124 81.6278 248.799 81.5611 248.546 81.4276C248.296 81.294 248.1 81.1378 247.958 80.9588C247.816 80.7798 247.707 80.6207 247.63 80.4815H247.523V81.5H246.279ZM247.528 78.2273C247.528 78.6875 247.594 79.0909 247.728 79.4375C247.862 79.7841 248.055 80.0554 248.308 80.2514C248.56 80.4446 248.87 80.5412 249.237 80.5412C249.617 80.5412 249.935 80.4403 250.191 80.2386C250.447 80.0341 250.64 79.7571 250.771 79.4077C250.904 79.0582 250.971 78.6648 250.971 78.2273C250.971 77.7955 250.906 77.4077 250.775 77.0639C250.647 76.7202 250.454 76.4489 250.195 76.25C249.94 76.0511 249.62 75.9517 249.237 75.9517C248.867 75.9517 248.555 76.0469 248.299 76.2372C248.046 76.4276 247.854 76.6932 247.724 77.0341C247.593 77.375 247.528 77.7727 247.528 78.2273ZM256.51 81.6321C255.865 81.6321 255.309 81.4943 254.843 81.2188C254.38 80.9403 254.022 80.5497 253.77 80.0469C253.52 79.5412 253.395 78.9489 253.395 78.2699C253.395 77.5994 253.52 77.0085 253.77 76.4972C254.022 75.9858 254.375 75.5866 254.826 75.2997C255.281 75.0128 255.812 74.8693 256.42 74.8693C256.789 74.8693 257.147 74.9304 257.494 75.0526C257.841 75.1747 258.152 75.3665 258.427 75.6278C258.703 75.8892 258.92 76.2287 259.079 76.6463C259.238 77.0611 259.318 77.5653 259.318 78.1591V78.6108H254.115V77.6562H258.069C258.069 77.321 258.001 77.0241 257.865 76.7656C257.728 76.5043 257.537 76.2983 257.289 76.1477C257.045 75.9972 256.758 75.9219 256.429 75.9219C256.071 75.9219 255.758 76.0099 255.491 76.1861C255.227 76.3594 255.022 76.5866 254.877 76.8679C254.735 77.1463 254.664 77.4489 254.664 77.7756V78.5213C254.664 78.9588 254.741 79.331 254.895 79.6378C255.051 79.9446 255.268 80.179 255.547 80.3409C255.825 80.5 256.15 80.5795 256.522 80.5795C256.764 80.5795 256.984 80.5455 257.183 80.4773C257.382 80.4062 257.554 80.3011 257.699 80.1619C257.843 80.0227 257.954 79.8509 258.031 79.6463L259.237 79.8636C259.14 80.2187 258.967 80.5298 258.717 80.7969C258.47 81.0611 258.159 81.267 257.784 81.4148C257.412 81.5597 256.987 81.6321 256.51 81.6321ZM263.847 74.9545V75.9773H260.148V74.9545H263.847ZM261.162 81.5V74.196C261.162 73.7869 261.251 73.4474 261.43 73.1776C261.609 72.9048 261.847 72.7017 262.142 72.5682C262.438 72.4318 262.759 72.3636 263.105 72.3636C263.361 72.3636 263.58 72.3849 263.761 72.4276C263.943 72.4673 264.078 72.5043 264.166 72.5384L263.868 73.5696C263.808 73.5526 263.732 73.5327 263.638 73.5099C263.544 73.4844 263.43 73.4716 263.297 73.4716C262.987 73.4716 262.766 73.5483 262.632 73.7017C262.501 73.8551 262.436 74.0767 262.436 74.3665V81.5H261.162ZM267.661 81.6321C267.047 81.6321 266.511 81.4915 266.054 81.2102C265.597 80.929 265.241 80.5355 264.989 80.0298C264.736 79.5241 264.609 78.9332 264.609 78.2571C264.609 77.5781 264.736 76.9844 264.989 76.4759C265.241 75.9673 265.597 75.5724 266.054 75.2912C266.511 75.0099 267.047 74.8693 267.661 74.8693C268.274 74.8693 268.81 75.0099 269.267 75.2912C269.724 75.5724 270.08 75.9673 270.332 76.4759C270.585 76.9844 270.712 77.5781 270.712 78.2571C270.712 78.9332 270.585 79.5241 270.332 80.0298C270.08 80.5355 269.724 80.929 269.267 81.2102C268.81 81.4915 268.274 81.6321 267.661 81.6321ZM267.665 80.5625C268.063 80.5625 268.392 80.4574 268.653 80.2472C268.915 80.0369 269.108 79.7571 269.233 79.4077C269.361 79.0582 269.425 78.6733 269.425 78.2528C269.425 77.8352 269.361 77.4517 269.233 77.1023C269.108 76.75 268.915 76.4673 268.653 76.2543C268.392 76.0412 268.063 75.9347 267.665 75.9347C267.264 75.9347 266.932 76.0412 266.668 76.2543C266.406 76.4673 266.212 76.75 266.084 77.1023C265.959 77.4517 265.896 77.8352 265.896 78.2528C265.896 78.6733 265.959 79.0582 266.084 79.4077C266.212 79.7571 266.406 80.0369 266.668 80.2472C266.932 80.4574 267.264 80.5625 267.665 80.5625ZM272.134 81.5V74.9545H273.365V75.9943H273.434C273.553 75.642 273.763 75.3651 274.064 75.1634C274.368 74.9588 274.712 74.8565 275.096 74.8565C275.175 74.8565 275.269 74.8594 275.377 74.8651C275.488 74.8707 275.574 74.8778 275.637 74.8864V76.1051C275.586 76.0909 275.495 76.0753 275.364 76.0582C275.233 76.0384 275.103 76.0284 274.972 76.0284C274.671 76.0284 274.402 76.0923 274.167 76.2202C273.934 76.3452 273.749 76.5199 273.613 76.7443C273.476 76.9659 273.408 77.2187 273.408 77.5028V81.5H272.134ZM279.326 81.6321C278.681 81.6321 278.126 81.4943 277.66 81.2188C277.197 80.9403 276.839 80.5497 276.586 80.0469C276.336 79.5412 276.211 78.9489 276.211 78.2699C276.211 77.5994 276.336 77.0085 276.586 76.4972C276.839 75.9858 277.191 75.5866 277.643 75.2997C278.097 75.0128 278.629 74.8693 279.237 74.8693C279.606 74.8693 279.964 74.9304 280.31 75.0526C280.657 75.1747 280.968 75.3665 281.244 75.6278C281.519 75.8892 281.737 76.2287 281.896 76.6463C282.055 77.0611 282.134 77.5653 282.134 78.1591V78.6108H276.931V77.6562H280.886C280.886 77.321 280.817 77.0241 280.681 76.7656C280.545 76.5043 280.353 76.2983 280.106 76.1477C279.862 75.9972 279.575 75.9219 279.245 75.9219C278.887 75.9219 278.575 76.0099 278.308 76.1861C278.043 76.3594 277.839 76.5866 277.694 76.8679C277.552 77.1463 277.481 77.4489 277.481 77.7756V78.5213C277.481 78.9588 277.558 79.331 277.711 79.6378C277.867 79.9446 278.085 80.179 278.363 80.3409C278.641 80.5 278.967 80.5795 279.339 80.5795C279.58 80.5795 279.8 80.5455 279.999 80.4773C280.198 80.4062 280.37 80.3011 280.515 80.1619C280.66 80.0227 280.771 79.8509 280.847 79.6463L282.053 79.8636C281.957 80.2187 281.783 80.5298 281.533 80.7969C281.286 81.0611 280.975 81.267 280.6 81.4148C280.228 81.5597 279.803 81.6321 279.326 81.6321ZM287.998 72.7727V81.5H286.724V72.7727H287.998ZM291.617 81.6449C291.202 81.6449 290.827 81.5682 290.492 81.4148C290.157 81.2585 289.891 81.0327 289.695 80.7372C289.502 80.4418 289.405 80.0795 289.405 79.6506C289.405 79.2812 289.476 78.9773 289.618 78.7386C289.76 78.5 289.952 78.3111 290.194 78.1719C290.435 78.0327 290.705 77.9276 291.003 77.8565C291.301 77.7855 291.605 77.7315 291.915 77.6946C292.307 77.6491 292.625 77.6122 292.87 77.5838C293.114 77.5526 293.292 77.5028 293.402 77.4347C293.513 77.3665 293.569 77.2557 293.569 77.1023V77.0724C293.569 76.7003 293.463 76.4119 293.253 76.2074C293.046 76.0028 292.736 75.9006 292.324 75.9006C291.895 75.9006 291.557 75.9957 291.31 76.1861C291.066 76.3736 290.897 76.5824 290.803 76.8125L289.605 76.5398C289.748 76.142 289.955 75.821 290.228 75.5767C290.503 75.3295 290.82 75.1506 291.178 75.0398C291.536 74.9261 291.912 74.8693 292.307 74.8693C292.569 74.8693 292.846 74.9006 293.138 74.9631C293.434 75.0227 293.709 75.1335 293.965 75.2955C294.223 75.4574 294.435 75.6889 294.6 75.9901C294.765 76.2884 294.847 76.6761 294.847 77.1534V81.5H293.603V80.6051H293.551C293.469 80.7699 293.346 80.9318 293.181 81.0909C293.016 81.25 292.804 81.3821 292.546 81.4872C292.287 81.5923 291.978 81.6449 291.617 81.6449ZM291.894 80.6222C292.246 80.6222 292.547 80.5526 292.797 80.4134C293.05 80.2741 293.242 80.0923 293.373 79.8679C293.506 79.6406 293.573 79.3977 293.573 79.1392V78.2955C293.527 78.3409 293.439 78.3835 293.309 78.4233C293.181 78.4602 293.034 78.4929 292.87 78.5213C292.705 78.5469 292.544 78.571 292.388 78.5938C292.232 78.6136 292.101 78.6307 291.996 78.6449C291.749 78.6761 291.523 78.7287 291.319 78.8026C291.117 78.8764 290.955 78.983 290.833 79.1222C290.713 79.2585 290.654 79.4403 290.654 79.6676C290.654 79.983 290.77 80.2216 291.003 80.3835C291.236 80.5426 291.533 80.6222 291.894 80.6222ZM300.69 78.7855V74.9545H301.969V81.5H300.716V80.3665H300.648C300.497 80.7159 300.256 81.0071 299.923 81.2401C299.594 81.4702 299.183 81.5852 298.692 81.5852C298.271 81.5852 297.899 81.4929 297.575 81.3082C297.254 81.1207 297.001 80.8438 296.817 80.4773C296.635 80.1108 296.544 79.6577 296.544 79.1179V74.9545H297.818V78.9645C297.818 79.4105 297.942 79.7656 298.189 80.0298C298.436 80.294 298.757 80.4261 299.152 80.4261C299.391 80.4261 299.628 80.3665 299.864 80.2472C300.102 80.1278 300.3 79.9474 300.456 79.706C300.615 79.4645 300.693 79.1577 300.69 78.7855ZM304.955 77.6136V81.5H303.681V74.9545H304.904V76.0199H304.985C305.135 75.6733 305.371 75.3949 305.692 75.1847C306.016 74.9744 306.424 74.8693 306.915 74.8693C307.361 74.8693 307.752 74.9631 308.087 75.1506C308.422 75.3352 308.682 75.6108 308.867 75.9773C309.051 76.3437 309.144 76.7969 309.144 77.3366V81.5H307.87V77.4901C307.87 77.0156 307.746 76.6449 307.499 76.3778C307.252 76.108 306.912 75.973 306.48 75.973C306.185 75.973 305.922 76.0369 305.692 76.1648C305.465 76.2926 305.284 76.4801 305.151 76.7273C305.02 76.9716 304.955 77.267 304.955 77.6136ZM313.61 81.6321C312.976 81.6321 312.431 81.4886 311.973 81.2017C311.519 80.9119 311.169 80.5128 310.925 80.0043C310.681 79.4957 310.559 78.9134 310.559 78.2571C310.559 77.5923 310.684 77.0057 310.934 76.4972C311.184 75.9858 311.536 75.5866 311.99 75.2997C312.445 75.0128 312.98 74.8693 313.597 74.8693C314.094 74.8693 314.537 74.9616 314.926 75.1463C315.316 75.3281 315.63 75.5838 315.868 75.9134C316.11 76.2429 316.253 76.6278 316.299 77.0682H315.059C314.99 76.7614 314.834 76.4972 314.59 76.2756C314.348 76.054 314.025 75.9432 313.618 75.9432C313.263 75.9432 312.952 76.0369 312.685 76.2244C312.421 76.4091 312.215 76.6733 312.067 77.017C311.919 77.358 311.846 77.7614 311.846 78.2273C311.846 78.7045 311.918 79.1165 312.063 79.4631C312.208 79.8097 312.412 80.0781 312.676 80.2685C312.944 80.4588 313.257 80.554 313.618 80.554C313.86 80.554 314.078 80.5099 314.275 80.4219C314.473 80.331 314.64 80.2017 314.773 80.0341C314.909 79.8665 315.005 79.6648 315.059 79.429H316.299C316.253 79.8523 316.115 80.2301 315.885 80.5625C315.655 80.8949 315.347 81.1562 314.961 81.3466C314.577 81.5369 314.127 81.6321 313.61 81.6321ZM318.935 77.6136V81.5H317.661V72.7727H318.918V76.0199H318.999C319.153 75.6676 319.387 75.3878 319.702 75.1804C320.018 74.973 320.43 74.8693 320.938 74.8693C321.387 74.8693 321.779 74.9616 322.114 75.1463C322.452 75.331 322.714 75.6065 322.898 75.973C323.086 76.3366 323.18 76.7912 323.18 77.3366V81.5H321.906V77.4901C321.906 77.0099 321.782 76.6378 321.535 76.3736C321.288 76.1065 320.944 75.973 320.504 75.973C320.202 75.973 319.933 76.0369 319.694 76.1648C319.458 76.2926 319.272 76.4801 319.136 76.7273C319.002 76.9716 318.935 77.267 318.935 77.6136Z" fill="#71717A"/>
<g filter="url(#filter0_dd_49_750)">
<rect x="48" y="132.9" width="61" height="24" rx="7.2" fill="#FDBA74"/>
<rect x="48.6" y="133.5" width="59.8" height="22.8" rx="6.6" stroke="#FB923C" stroke-width="1.2"/>
<path d="M61.9531 142.465C61.9077 142.062 61.7202 141.749 61.3906 141.528C61.0611 141.303 60.6463 141.191 60.1463 141.191C59.7884 141.191 59.4787 141.248 59.2173 141.362C58.956 141.472 58.7528 141.626 58.608 141.822C58.4659 142.015 58.3949 142.235 58.3949 142.482C58.3949 142.69 58.4432 142.869 58.5398 143.019C58.6392 143.17 58.7685 143.296 58.9276 143.399C59.0895 143.498 59.2628 143.582 59.4474 143.65C59.6321 143.715 59.8097 143.769 59.9801 143.812L60.8324 144.034C61.1108 144.102 61.3963 144.194 61.6889 144.311C61.9815 144.427 62.2528 144.58 62.5028 144.771C62.7528 144.961 62.9545 145.197 63.108 145.478C63.2642 145.759 63.3423 146.096 63.3423 146.488C63.3423 146.982 63.2145 147.421 62.9588 147.805C62.706 148.188 62.3381 148.491 61.8551 148.713C61.375 148.934 60.794 149.045 60.1122 149.045C59.4588 149.045 58.8935 148.941 58.4162 148.734C57.9389 148.526 57.5653 148.232 57.2955 147.852C57.0256 147.468 56.8764 147.014 56.848 146.488H58.169C58.1946 146.803 58.2969 147.066 58.4759 147.276C58.6577 147.484 58.8892 147.639 59.1705 147.741C59.4545 147.84 59.7656 147.89 60.1037 147.89C60.4759 147.89 60.8068 147.832 61.0966 147.715C61.3892 147.596 61.6193 147.431 61.7869 147.221C61.9545 147.008 62.0384 146.759 62.0384 146.475C62.0384 146.217 61.9645 146.005 61.8168 145.84C61.6719 145.676 61.4744 145.539 61.2244 145.431C60.9773 145.323 60.6974 145.228 60.3849 145.146L59.3537 144.865C58.6548 144.674 58.1009 144.394 57.6918 144.025C57.2855 143.656 57.0824 143.167 57.0824 142.559C57.0824 142.056 57.2188 141.617 57.4915 141.242C57.7642 140.867 58.1335 140.576 58.5994 140.369C59.0653 140.159 59.5909 140.053 60.1761 140.053C60.767 140.053 61.2884 140.157 61.7401 140.365C62.1946 140.572 62.5526 140.857 62.8139 141.221C63.0753 141.582 63.2116 141.997 63.223 142.465H61.9531ZM67.5707 149.032C66.957 149.032 66.4215 148.892 65.9641 148.61C65.5067 148.329 65.1516 147.936 64.8988 147.43C64.646 146.924 64.5195 146.333 64.5195 145.657C64.5195 144.978 64.646 144.384 64.8988 143.876C65.1516 143.367 65.5067 142.972 65.9641 142.691C66.4215 142.41 66.957 142.269 67.5707 142.269C68.1843 142.269 68.7198 142.41 69.1772 142.691C69.6346 142.972 69.9897 143.367 70.2425 143.876C70.4954 144.384 70.6218 144.978 70.6218 145.657C70.6218 146.333 70.4954 146.924 70.2425 147.43C69.9897 147.936 69.6346 148.329 69.1772 148.61C68.7198 148.892 68.1843 149.032 67.5707 149.032ZM67.5749 147.963C67.9727 147.963 68.3022 147.857 68.5636 147.647C68.8249 147.437 69.0181 147.157 69.1431 146.808C69.271 146.458 69.3349 146.073 69.3349 145.653C69.3349 145.235 69.271 144.852 69.1431 144.502C69.0181 144.15 68.8249 143.867 68.5636 143.654C68.3022 143.441 67.9727 143.335 67.5749 143.335C67.1744 143.335 66.842 143.441 66.5778 143.654C66.3164 143.867 66.1218 144.15 65.994 144.502C65.869 144.852 65.8065 145.235 65.8065 145.653C65.8065 146.073 65.869 146.458 65.994 146.808C66.1218 147.157 66.3164 147.437 66.5778 147.647C66.842 147.857 67.1744 147.963 67.5749 147.963ZM75.1591 142.355V143.377H71.4602V142.355H75.1591ZM72.4744 148.9V141.596C72.4744 141.187 72.5639 140.847 72.7429 140.578C72.9219 140.305 73.1591 140.102 73.4545 139.968C73.75 139.832 74.071 139.764 74.4176 139.764C74.6733 139.764 74.892 139.785 75.0739 139.828C75.2557 139.867 75.3906 139.904 75.4787 139.938L75.1804 140.97C75.1207 140.953 75.044 140.933 74.9503 140.91C74.8565 140.884 74.7429 140.872 74.6094 140.872C74.2997 140.872 74.0781 140.948 73.9446 141.102C73.8139 141.255 73.7486 141.477 73.7486 141.767V148.9H72.4744ZM76.4737 148.9V142.355H77.7479V148.9H76.4737ZM77.1172 141.345C76.8956 141.345 76.7053 141.271 76.5462 141.123C76.3899 140.972 76.3118 140.793 76.3118 140.586C76.3118 140.376 76.3899 140.197 76.5462 140.049C76.7053 139.899 76.8956 139.823 77.1172 139.823C77.3388 139.823 77.5277 139.899 77.6839 140.049C77.843 140.197 77.9226 140.376 77.9226 140.586C77.9226 140.793 77.843 140.972 77.6839 141.123C77.5277 141.271 77.3388 141.345 77.1172 141.345ZM81.3668 149.045C80.9521 149.045 80.5771 148.968 80.2418 148.815C79.9066 148.659 79.641 148.433 79.445 148.137C79.2518 147.842 79.1552 147.48 79.1552 147.051C79.1552 146.681 79.2262 146.377 79.3683 146.139C79.5103 145.9 79.7021 145.711 79.9435 145.572C80.185 145.433 80.4549 145.328 80.7532 145.257C81.0515 145.186 81.3555 145.132 81.6651 145.095C82.0572 145.049 82.3754 145.012 82.6197 144.984C82.864 144.953 83.0415 144.903 83.1523 144.835C83.2631 144.767 83.3185 144.656 83.3185 144.502V144.472C83.3185 144.1 83.2134 143.812 83.0032 143.607C82.7958 143.403 82.4862 143.301 82.0742 143.301C81.6452 143.301 81.3072 143.396 81.06 143.586C80.8157 143.774 80.6467 143.982 80.5529 144.213L79.3555 143.94C79.4975 143.542 79.7049 143.221 79.9776 142.977C80.2532 142.73 80.57 142.551 80.9279 142.44C81.2859 142.326 81.6623 142.269 82.0572 142.269C82.3185 142.269 82.5955 142.301 82.8881 142.363C83.1836 142.423 83.4592 142.534 83.7148 142.695C83.9734 142.857 84.185 143.089 84.3498 143.39C84.5146 143.688 84.5969 144.076 84.5969 144.553V148.9H83.3526V148.005H83.3015C83.2191 148.17 83.0955 148.332 82.9308 148.491C82.766 148.65 82.5543 148.782 82.2958 148.887C82.0373 148.992 81.7276 149.045 81.3668 149.045ZM81.6438 148.022C81.9961 148.022 82.2972 147.953 82.5472 147.813C82.8001 147.674 82.9918 147.492 83.1225 147.268C83.256 147.041 83.3228 146.798 83.3228 146.539V145.695C83.2773 145.741 83.1893 145.784 83.0586 145.823C82.9308 145.86 82.7844 145.893 82.6197 145.921C82.4549 145.947 82.2944 145.971 82.1381 145.994C81.9819 146.014 81.8512 146.031 81.7461 146.045C81.4989 146.076 81.2731 146.129 81.0685 146.203C80.8668 146.276 80.7049 146.383 80.5827 146.522C80.4634 146.659 80.4038 146.84 80.4038 147.068C80.4038 147.383 80.5202 147.622 80.7532 147.784C80.9862 147.943 81.283 148.022 81.6438 148.022ZM95.4783 142.93C95.396 142.671 95.2852 142.44 95.146 142.235C95.0096 142.028 94.8462 141.852 94.6559 141.707C94.4656 141.559 94.2482 141.447 94.0039 141.37C93.7624 141.293 93.4968 141.255 93.207 141.255C92.7156 141.255 92.2724 141.382 91.8775 141.634C91.4826 141.887 91.1701 142.258 90.94 142.747C90.7127 143.232 90.5991 143.828 90.5991 144.532C90.5991 145.24 90.7141 145.838 90.9442 146.326C91.1744 146.815 91.4897 147.186 91.8903 147.438C92.2908 147.691 92.7468 147.818 93.2582 147.818C93.7326 147.818 94.146 147.721 94.4982 147.528C94.8533 147.335 95.1275 147.062 95.3207 146.71C95.5167 146.355 95.6147 145.937 95.6147 145.457L95.9556 145.521H93.4585V144.434H96.8888V145.427C96.8888 146.16 96.7326 146.796 96.4201 147.336C96.1104 147.873 95.6815 148.288 95.1332 148.58C94.5877 148.873 93.9627 149.019 93.2582 149.019C92.4684 149.019 91.7752 148.838 91.1786 148.474C90.5849 148.11 90.1218 147.595 89.7894 146.927C89.457 146.257 89.2908 145.461 89.2908 144.541C89.2908 143.845 89.3874 143.22 89.5806 142.666C89.7738 142.112 90.0451 141.642 90.3945 141.255C90.7468 140.866 91.1602 140.569 91.6346 140.365C92.1119 140.157 92.6332 140.053 93.1985 140.053C93.6701 140.053 94.109 140.123 94.5153 140.262C94.9244 140.401 95.288 140.599 95.6062 140.855C95.9272 141.11 96.1928 141.414 96.4031 141.767C96.6133 142.116 96.7553 142.504 96.8292 142.93H95.4783ZM99.2976 148.981C99.0646 148.981 98.8643 148.899 98.6967 148.734C98.5291 148.566 98.4453 148.365 98.4453 148.129C98.4453 147.896 98.5291 147.697 98.6967 147.532C98.8643 147.365 99.0646 147.281 99.2976 147.281C99.5305 147.281 99.7308 147.365 99.8984 147.532C100.066 147.697 100.15 147.896 100.15 148.129C100.15 148.285 100.11 148.428 100.031 148.559C99.9538 148.687 99.8516 148.789 99.7237 148.866C99.5959 148.943 99.4538 148.981 99.2976 148.981Z" fill="#09090B"/>
</g>
<path d="M116.601 113.846C116.601 112.777 115.308 112.241 114.552 112.997L101.497 126.052C100.741 126.808 101.277 128.1 102.346 128.1H108.502C109.138 128.1 109.749 128.353 110.199 128.803L114.552 133.156C115.308 133.912 116.6 133.376 116.601 132.308V113.846Z" fill="#FDBA74" stroke="#FB923C" stroke-width="1.2"/>
<defs>
<filter id="filter0_dd_49_750" x="-16" y="68.9" width="189" height="152" filterUnits="userSpaceOnUse" color-interpolation-filters="sRGB">
<feFlood flood-opacity="0" result="BackgroundImageFix"/>
<feColorMatrix in="SourceAlpha" type="matrix" values="0 0 0 0 0 0 0 0 0 0 0 0 0 0 0 0 0 0 127 0" result="hardAlpha"/>
<feOffset/>
<feGaussianBlur stdDeviation="32"/>
<feColorMatrix type="matrix" values="0 0 0 0 0.992157 0 0 0 0 0.729412 0 0 0 0 0.454902 0 0 0 1 0"/>
<feBlend mode="normal" in2="BackgroundImageFix" result="effect1_dropShadow_49_750"/>
<feColorMatrix in="SourceAlpha" type="matrix" values="0 0 0 0 0 0 0 0 0 0 0 0 0 0 0 0 0 0 127 0" result="hardAlpha"/>
<feOffset/>
<feGaussianBlur stdDeviation="4"/>
<feColorMatrix type="matrix" values="0 0 0 0 0.992157 0 0 0 0 0.729412 0 0 0 0 0.454902 0 0 0 0.5 0"/>
<feBlend mode="normal" in2="effect1_dropShadow_49_750" result="effect2_dropShadow_49_750"/>
<feBlend mode="normal" in="SourceGraphic" in2="effect2_dropShadow_49_750" result="shape"/>
</filter>
<linearGradient id="paint0_linear_49_750" x1="296" y1="232.5" x2="296" y2="200.5" gradientUnits="userSpaceOnUse">
<stop stop-color="#09090B" stop-opacity="0.05"/>
<stop offset="1" stop-color="#09090B" stop-opacity="0.1"/>
</linearGradient>
<linearGradient id="paint1_linear_49_750" x1="296" y1="200.5" x2="296" y2="232.5" gradientUnits="userSpaceOnUse">
<stop stop-color="#09090B" stop-opacity="0.2"/>
<stop offset="0.16" stop-color="#09090B" stop-opacity="0.05"/>
<stop offset="0.86" stop-color="#09090B" stop-opacity="0.05"/>
<stop offset="1" stop-color="#09090B" stop-opacity="0"/>
</linearGradient>
<linearGradient id="paint2_linear_49_750" x1="395" y1="272.5" x2="395" y2="240.5" gradientUnits="userSpaceOnUse">
<stop stop-color="#09090B" stop-opacity="0.05"/>
<stop offset="1" stop-color="#09090B" stop-opacity="0.1"/>
</linearGradient>
<linearGradient id="paint3_linear_49_750" x1="395" y1="240.5" x2="395" y2="272.5" gradientUnits="userSpaceOnUse">
<stop stop-color="#09090B" stop-opacity="0.2"/>
<stop offset="0.16" stop-color="#09090B" stop-opacity="0.05"/>
<stop offset="0.86" stop-color="#09090B" stop-opacity="0.05"/>
<stop offset="1" stop-color="#09090B" stop-opacity="0"/>
</linearGradient>
<linearGradient id="paint4_linear_49_750" x1="192.5" y1="93.5" x2="192.5" y2="61.5" gradientUnits="userSpaceOnUse">
<stop stop-color="#09090B" stop-opacity="0.05"/>
<stop offset="1" stop-color="#09090B" stop-opacity="0.1"/>
</linearGradient>
<linearGradient id="paint5_linear_49_750" x1="192.5" y1="61.5" x2="192.5" y2="93.5" gradientUnits="userSpaceOnUse">
<stop stop-color="#09090B" stop-opacity="0.2"/>
<stop offset="0.16" stop-color="#09090B" stop-opacity="0.05"/>
<stop offset="0.86" stop-color="#09090B" stop-opacity="0.05"/>
<stop offset="1" stop-color="#09090B" stop-opacity="0"/>
</linearGradient>
</defs>
</svg>
