<svg width="472" height="384" viewBox="0 0 472 384" fill="none" xmlns="http://www.w3.org/2000/svg">
<path d="M64.8633 271.514L64.8705 271.652L65.2168 272.751L63.7305 283.163L62.2079 256.889L63.3697 245.99L64.8633 271.514ZM184.822 94.0793L183.942 94.8215L167.259 98.7579L167.736 98.5687L188.82 90.3976L201.497 87.6327L184.822 94.0793ZM270.796 86.5995L269.295 86.7159L264.395 85.2607L283.336 88.8405L284.267 89.1607L270.796 86.5995ZM204.015 423.803L204.795 424.13L236.132 429.289L221.78 430.766L191.785 425.84L204.015 423.803ZM186.994 425.055L154.365 411.201L165.405 407.337L165.499 407.403L202.118 422.995L188.387 425.28L186.994 425.055ZM94.7141 359.257L100.299 349.769L129.154 381.267L120.56 387.903L119.709 387.299L96.7417 362.24L94.7141 359.257ZM78.479 313.104L99.5341 348.917L94.0791 358.173L75.2393 326.092L75.0733 325.561L78.479 313.104ZM77.4472 311.293L77.4833 311.409L77.7287 311.824L74.4672 323.64L64.1995 291.203L64.0552 288.693L65.9889 275.167L77.4472 311.293ZM127.906 124.493L125.525 126.247L128.202 123.999L127.906 124.493ZM215.185 84.664L216.809 84.5476L240.418 89.7136L218.432 98.2558L218.086 98.5468L188.798 94.916L215.185 84.664ZM367.066 148.832L351.379 131.849L354.143 126.072L374.469 148.024L367.066 148.832ZM400.77 202.173L386.151 189.767L386.122 189.44L379.599 170.275L391.577 175.688L391.844 176.132L397.523 192.7L400.77 202.173ZM407.632 223.223L409.912 248.296L406.246 234.493L406.441 233.482L406.47 233.329L404.745 214.302L407.632 223.223ZM405.618 285.659L401.13 260.76L401.448 260.178L405.777 237.011L410.503 254.837L410.778 257.857L405.618 285.659ZM313.259 410.561L293.07 419.365L304.702 412.409L305.777 412.299L305.943 412.278L322.834 404.922L313.259 410.561ZM247.879 428.067L266.445 416.309L267 416.403L302.082 412.685L285.082 422.85L281.301 424.494L247.879 428.067ZM77.1658 212.265L79.4387 250.224L79.446 250.363L79.5469 250.661L66.9269 269.069L64.7984 232.747L65.0942 231.459L77.1658 212.265ZM83.9341 179.028L77.0432 209.471L77.0071 209.624L77.0576 210.424L65.8302 228.229L72.7716 197.691L83.9341 179.028ZM144.913 141.265L144.826 141.418L144.776 141.629L113.734 152.586L130.308 124.77L131.023 124.173L159.856 116.017L144.913 141.265ZM198.135 116.068L185.746 137.219L147.575 141.098L162.649 115.617L162.836 115.464L198.135 116.068ZM271.293 106.631L270.889 106.791L245.707 90.6814L270.673 88.8332L271.257 88.9496L289.051 105.277L271.293 106.631ZM330.808 117.428L311.982 109.104L311.426 108.995L301.88 95.3672L327.597 106.718L327.9 106.943L330.808 117.428ZM350.491 131.173L332.474 118.163L332.114 118.003L329.328 107.969L353.313 125.25L350.491 131.173ZM390.134 317.106L368.776 336.584L369.894 300.328L369.974 300.299L387.746 284.204L390.365 316.677L390.134 317.106ZM357.173 370.855L326.507 384.148L339.004 352.323L367.058 340.317L357.628 370.44L357.173 370.855ZM92.6216 291.698L92.6504 291.778L79.114 309.255L67.0496 271.245L67.0279 270.859L79.9582 251.971L92.6216 291.698ZM102.579 189.454L102.55 189.614L102.565 189.876L79.6769 207.79L87.4841 173.294L88.0397 172.377L110.127 155.759L102.579 189.454ZM137.683 173.862L137.654 173.985L105.061 188.472L112.702 154.325L112.847 154.078L144.494 142.902L137.683 173.862ZM404.247 233.22L399.723 257.435L384.21 229.335L384.231 229.298L387.601 211.792L404.197 232.704L404.247 233.22ZM375.371 245.444L375.392 245.422L383.582 230.477L399.399 259.138L399.348 259.421L387.998 280.318L375.371 245.444ZM387.277 281.65L369.606 297.643L361.871 257.544L374.483 246.237L387.298 281.613L387.277 281.65ZM367.564 337.698L339.618 349.703L345.693 310.609L368.776 300.808L367.643 337.618L367.564 337.698ZM324.97 384.81L288.914 388.543L305.055 355.75L337.763 352.468L325.107 384.752L324.97 384.81ZM305.38 410.109L268.761 413.98L287.521 390.879L287.666 390.908L323.549 387.19L306.022 409.826L305.38 410.109ZM147.597 365.572L183.891 391.526L166.559 405.445L131.687 380.554L147.597 365.572ZM116.318 331.622L146.767 364.838L130.842 379.834L101.605 347.95L116.318 331.622ZM93.2421 292.804L115.603 330.771L100.963 347.011L79.5253 310.529L93.2421 292.804ZM105.018 229.182L81.5457 248.602L79.2222 209.813L79.2944 209.5L102.644 191.193L105.018 229.182ZM230.259 142.327L226.506 160.212L182.318 163.515L187.744 138.325L230.259 142.327ZM230.569 141.25L188.271 137.27L200.545 116.33L239.191 126.349L230.569 141.25ZM331.161 119.982L328.434 140.937L318.671 136.615L318.541 136.594L312.502 111.753L331.161 119.982ZM347.382 157.258L339.567 148.781L350.188 133.814L364.749 149.545L347.382 157.258ZM353.803 167.764L348.031 158.182L365.471 150.411L376.352 168.375L353.803 167.764ZM357.577 178.839L354.229 168.885L376.994 169.46L383.474 188.414L357.577 178.839ZM385.725 209.886L382.456 227.123L356.56 199.677L358.299 190.917L385.725 209.849V209.886ZM345.816 308.149L344.625 264.762L360.853 258.024L368.646 298.458L345.816 308.149ZM338.449 350.169L305.928 353.429L317.798 313.33L344.56 310.754L338.449 350.169ZM287.644 388.652L248.954 382.155L268.948 349.587L303.915 355.582L287.644 388.652ZM105.371 230.317L117.883 269.281L94.3966 290.003L81.6323 249.962L105.371 230.317ZM140.28 210.599L151.659 245.728L119.745 267.862L107.262 228.993L140.28 210.599ZM182.261 194.104L191.612 222.779L153.586 244.527L142.286 209.653L182.261 194.104ZM287.99 138.98L255.852 115.049L271.618 108.828L296.021 135.815L287.99 138.98ZM374.144 243.116L351.935 208.176L356.055 200.754L382.197 228.432L374.144 243.116ZM318.289 311.053L324.783 266.741L343.543 265.017L344.734 308.506L318.289 311.053ZM304.774 353.472L270.016 347.55L288.135 308.229L316.694 313.214L304.774 353.472ZM247.821 381.907L209.398 365.478L233.166 334.292L267.88 349.23L247.821 381.907ZM207.941 367.239L246.45 383.734L226.146 407.359L186.59 390.5L207.941 367.239ZM118.41 270.285L140.302 307.327L117.205 329.148L94.8007 291.102L118.41 270.285ZM152.179 246.71L171.95 280.093L141.976 305.828L120.163 268.909L152.179 246.71ZM192.11 223.761L208.302 250.996L173.667 278.667L154.026 245.546L192.11 223.761ZM228.195 182.055L234.804 202.144L193.596 221.746L184.324 193.442L228.195 182.055ZM275.551 154.522L273.74 163.399L228.75 160.226L232.423 142.727L275.551 154.522ZM280.133 146.067L275.911 153.467L232.856 141.701L241.298 127.113L280.133 146.067ZM280.775 145.15L242.114 126.291L254.676 115.551L287.096 139.693L280.775 145.15ZM319.609 170.522L318.815 139.104L327.979 143.135L319.609 170.522ZM323.375 175.07L355.449 179.45L356.235 188.552L323.375 175.07ZM344.871 214.528L351.148 208.969L373.502 244.149L361.156 255.216L344.871 214.528ZM317.177 311.053L288.957 306.149L303.684 263.089L323.686 266.661L317.177 311.053ZM268.934 347.273L234.458 332.466L258.753 295.649L287.074 307.902L268.934 347.273ZM208.403 364.961L173.09 339.713L200.285 310.863L232.207 333.74L208.403 364.961ZM171.553 341.307L206.974 366.664L185.558 389.998L149.184 364.015L171.553 341.307ZM140.995 308.186L170.723 340.579L148.347 363.295L117.847 330.058L140.995 308.186ZM172.635 280.959L199.448 310.143L172.253 338.986L142.625 306.723L172.635 280.959ZM208.987 251.869L230.893 275.691L200.949 308.513L174.323 279.562L208.987 251.869ZM235.288 203.134L246.674 222.211L210.062 249.642L194.051 222.757L235.288 203.134ZM315.02 170.202L282.745 146.373L288.755 141.178L315.02 170.202ZM316.016 169.649L289.772 140.654L297.378 137.619L316.016 169.649ZM317.235 169.554L298.561 137.459L307.263 136.768L317.235 169.554ZM320.525 171.271L328.939 143.746L337.395 149.836L320.525 171.271ZM321.333 172.043L338.218 150.578L345.361 158.298L321.333 172.043ZM322.105 172.872L346.061 159.179L351.386 167.983L322.105 172.872ZM351.949 169.016L355.102 178.293L322.834 173.876L351.949 169.016ZM323.541 176.336L356.286 189.775L354.669 198.127L323.541 176.336ZM335.851 218.333L343.904 215.059L360.247 255.878L344.365 262.528L335.851 218.333ZM287.904 305.85L259.915 293.765L282.788 254.153L302.623 262.79L287.904 305.85ZM247.352 223.085L262.721 239.783L232.373 274.039L210.719 250.523L247.352 223.085ZM274.678 175.368L277.99 185.373L236.839 201.271L230.345 181.64L274.678 175.368ZM323.253 177.485L354.366 199.255L350.455 206.306L323.253 177.485ZM325.461 219.439L334.783 218.624L343.305 262.812L324.948 264.493L325.461 219.439ZM314.414 217.569L324.371 219.396L323.859 264.442L304.283 260.971L314.414 217.569ZM278.466 186.377L284.159 195.908L248.463 220.916L237.315 202.275L278.466 186.377ZM280.075 184.667L276.914 175.208L314.984 174.553L280.075 184.667ZM342.901 213.08L335.252 216.23L321.499 178.751L342.901 213.08ZM322.531 178.322L349.799 207.208L343.832 212.498L322.531 178.322ZM284.83 196.781L292.522 205.142L264.179 238.11L249.134 221.797L284.83 196.781ZM285.992 194.671L280.587 185.671L315.669 175.513L285.992 194.671ZM325.338 217.22L320.323 178.751L334.163 216.449L325.338 217.22ZM293.958 203.439L286.67 195.552L316.42 176.343L293.958 203.439ZM319.169 178.388L324.22 217.111L314.796 215.416L319.169 178.388ZM304.37 210.955L318.13 177.798L313.728 215.044L304.37 210.955ZM303.417 210.38L294.78 204.174L317.228 177.1L303.417 210.38ZM282.874 251.665L265.009 238.837L293.359 205.855L302.486 212.432L282.874 251.665ZM303.237 260.644L283.827 252.218L303.461 212.949L313.353 217.293L303.237 260.644ZM258.955 293.226L233.202 274.767L263.558 240.504L281.814 253.63L258.955 293.226ZM314.464 173.454L276.633 174.102L275.904 164.854L314.464 173.454ZM278.004 154.245L282.023 147.217L314.414 171.126L278.004 154.245ZM314.24 172.268L275.919 163.719L277.643 155.3L314.24 172.268ZM233.484 331.935L201.786 309.248L231.73 276.411L257.786 295.111L233.484 331.935ZM318.49 169.896L308.468 136.95L317.704 138.667L318.49 169.896ZM273.667 164.505L274.439 174.277L230.107 180.556L228.678 161.325L273.667 164.505ZM332.178 120.681L349.373 133.065L338.709 148.075L329.48 141.41L332.178 120.681ZM226.47 161.318L227.935 180.985L184.129 192.35L182.188 164.628L226.47 161.318ZM267.058 414.162L227.387 407.585L247.547 384.141L286.273 390.668L267.246 414.14L267.058 414.162ZM383.943 189.775L385.602 208.445L358.537 189.731L358.544 189.702L357.714 180.068L383.921 189.724L383.943 189.775ZM311.239 111.193L317.358 136.368L307.552 134.52L307.501 134.527L292.349 107.642L311.217 111.185L311.239 111.193ZM290.934 107.373L306.289 134.622L297.248 135.335L297.125 135.386L273.011 108.719L290.869 107.365L290.934 107.373ZM180.009 164.97L181.972 193.027L142.128 208.532L139.884 174.407L180.009 164.97ZM137.726 175.157L139.985 209.507L107.139 227.807L104.765 189.818L137.726 175.157ZM205.401 421.984L167.663 405.94L184.865 392.152L224.255 408.96L205.617 422.02L205.401 421.984ZM243.867 90.8197L269.634 107.278L253.63 113.543L253.529 113.63L221.174 99.5582L243.47 90.8486L243.867 90.8197ZM219.709 100.133L252.605 114.416L239.79 125.366L201.548 115.442L219.565 100.191L219.709 100.133ZM185.486 138.354L179.995 163.835L140.078 173.236L146.89 142.283L185.486 138.354ZM207.176 422.275L225.453 409.469L225.496 409.484L264.807 416.032L245.39 428.336L244.545 428.423L207.176 422.275ZM338.543 395.659L308.064 408.938L325.071 387.03L325.36 387.001L355.413 374.027L340.556 393.818L338.543 395.659ZM359.244 368.956L368.393 339.75L368.769 339.589L389.766 320.431L383.156 346.16L382.226 347.892L359.244 368.956ZM391.324 314.894L388.777 283.272L389.023 283.047L400.293 262.31L405.048 288.715L404.832 289.872L391.324 314.894ZM401.679 204.829L404.017 230.703L387.875 210.366L387.947 210.002L386.288 191.339L401.469 204.218L401.679 204.829ZM186.619 95.7674L216.931 99.5218L199.015 114.693L198.871 114.816L198.777 114.969L164.135 114.372L185.955 96.0221L186.619 95.7674ZM110.559 138.769L112.183 137.416L126.455 126.931L110.632 153.489L110.495 154.093L89.5405 169.86L105.682 142.858L110.559 138.769ZM152.576 410.444L144.473 404.965L121.498 388.572L129.977 382.024L164.301 406.551L152.85 410.561L152.576 410.444ZM364.418 371.91L348.262 386.739L344.993 389.736L357.455 373.147L358.378 372.747L375.32 357.219L364.418 371.91ZM398.554 317.572L391.332 330.982L385.328 342.129L391.245 319.078L391.887 318.496L403.028 297.854L398.554 317.572ZM375.428 149.057L390.56 174.014L379.108 168.834L379.022 168.572L367.722 149.872L375.407 149.043L375.428 149.057ZM299.355 94.2539L299.932 94.5086L309.875 108.704L290.992 105.132L290.53 105.168L273.307 89.3353L299.355 94.2539ZM253.579 83.2161L266.17 86.9487L243.146 88.6513L242.287 88.986L220.698 84.2638L248.37 82.2339L253.579 83.2161ZM156.263 103.022L159.77 101.661L182.059 96.4076L160.953 114.161L160.672 114.634L133.101 122.434L156.263 103.022ZM151.443 412.35L186.258 427.15L221.715 433L244.48 430.664L244.618 430.65H244.625L281.871 426.67L314.19 412.569C314.197 412.569 314.197 412.569 314.197 412.561L339.647 397.602L339.755 397.551L365.976 373.482L383.921 349.339L383.979 349.281L400.56 318.496C400.647 318.336 400.676 318.154 400.683 317.979L406.924 290.65L406.932 290.621L406.968 290.461V290.454L412.971 258.119L413 257.966L409.811 222.903C409.796 222.743 409.746 222.59 409.674 222.459L403.8 204.225L393.886 175.295L377.247 147.806L355.059 123.809L328.78 104.848L300.12 92.1657H300.105L300.033 92.1294L283.957 86.7159L283.863 86.694C283.848 86.694 283.834 86.6795 283.812 86.6795L248.492 80L214.861 82.4666L188.271 88.2439L188.17 88.2803C188.148 88.2875 188.127 88.2875 188.105 88.2948L155.577 100.912L155.303 101.013V101.021L155.137 101.086L154.603 101.53L131.189 118.614C131.182 118.614 131.182 118.614 131.182 118.622L119.139 128.706L104.022 141.367L103.993 141.389L103.849 141.629L88.4799 167.124L70.8017 196.694L70.7079 196.847L62.6192 232.405L62.5832 232.558L62.5903 232.667L60 256.831L62.0131 291.473L62.0204 291.611L73.1829 326.885L92.8453 360.428L95.7676 364.736L117.357 388.31L143.224 406.792L151.443 412.35Z" fill="url(#paint0_linear_47_10541)"/>
<g filter="url(#filter0_d_47_10541)">
<ellipse cx="236" cy="256" rx="118.704" ry="243.335" transform="rotate(-45 236 256)" stroke="url(#paint1_linear_47_10541)" stroke-width="2" shape-rendering="crispEdges"/>
</g>
<g filter="url(#filter1_d_47_10541)">
<ellipse cx="243.941" cy="291.099" rx="86.5749" ry="216.161" transform="rotate(-105 243.941 291.099)" stroke="url(#paint2_linear_47_10541)" stroke-width="2" shape-rendering="crispEdges"/>
</g>
<defs>
<filter id="filter0_d_47_10541" x="35.5127" y="55.5126" width="400.975" height="400.975" filterUnits="userSpaceOnUse" color-interpolation-filters="sRGB">
<feFlood flood-opacity="0" result="BackgroundImageFix"/>
<feColorMatrix in="SourceAlpha" type="matrix" values="0 0 0 0 0 0 0 0 0 0 0 0 0 0 0 0 0 0 127 0" result="hardAlpha"/>
<feOffset/>
<feGaussianBlur stdDeviation="4"/>
<feComposite in2="hardAlpha" operator="out"/>
<feColorMatrix type="matrix" values="0 0 0 0 0.992157 0 0 0 0 0.729412 0 0 0 0 0.454902 0 0 0 0.24 0"/>
<feBlend mode="normal" in2="BackgroundImageFix" result="effect1_dropShadow_47_10541"/>
<feBlend mode="normal" in="SourceGraphic" in2="effect1_dropShadow_47_10541" result="shape"/>
</filter>
<filter id="filter1_d_47_10541" x="24.9287" y="181.474" width="438.025" height="219.249" filterUnits="userSpaceOnUse" color-interpolation-filters="sRGB">
<feFlood flood-opacity="0" result="BackgroundImageFix"/>
<feColorMatrix in="SourceAlpha" type="matrix" values="0 0 0 0 0 0 0 0 0 0 0 0 0 0 0 0 0 0 127 0" result="hardAlpha"/>
<feOffset/>
<feGaussianBlur stdDeviation="4"/>
<feComposite in2="hardAlpha" operator="out"/>
<feColorMatrix type="matrix" values="0 0 0 0 0.992157 0 0 0 0 0.729412 0 0 0 0 0.454902 0 0 0 0.24 0"/>
<feBlend mode="normal" in2="BackgroundImageFix" result="effect1_dropShadow_47_10541"/>
<feBlend mode="normal" in="SourceGraphic" in2="effect1_dropShadow_47_10541" result="shape"/>
</filter>
<linearGradient id="paint0_linear_47_10541" x1="236.5" y1="80" x2="236.5" y2="433" gradientUnits="userSpaceOnUse">
<stop stop-color="#FB923C" stop-opacity="0.8"/>
<stop offset="1" stop-color="#FDBA74" stop-opacity="0"/>
</linearGradient>
<linearGradient id="paint1_linear_47_10541" x1="301.407" y1="74.6271" x2="167.057" y2="136.145" gradientUnits="userSpaceOnUse">
<stop stop-color="#09090B"/>
<stop offset="1" stop-color="#FB923C" stop-opacity="0"/>
</linearGradient>
<linearGradient id="paint2_linear_47_10541" x1="325.488" y1="199.648" x2="189.085" y2="187.891" gradientUnits="userSpaceOnUse">
<stop stop-color="#09090B" stop-opacity="0.7"/>
<stop offset="0.395" stop-color="#FB923C" stop-opacity="0.1"/>
<stop offset="1" stop-color="#FB923C" stop-opacity="0"/>
</linearGradient>
</defs>
</svg>
